<svg width="24" height="24" viewBox="0 0 24 24" fill="none" xmlns="http://www.w3.org/2000/svg">
    <path
        d="M12.0001 1.71423C17.6807 1.71423 22.2858 6.3193 22.2858 11.9999C22.2858 17.6806 17.6807 22.2857 12.0001 22.2857C6.31943 22.2857 1.71436 17.6806 1.71436 11.9999C1.71436 6.3193 6.31943 1.71423 12.0001 1.71423ZM12.0001 3.42852C7.2662 3.42852 3.42864 7.26608 3.42864 11.9999C3.42864 16.7338 7.2662 20.5714 12.0001 20.5714C16.7339 20.5714 20.5715 16.7338 20.5715 11.9999C20.5715 7.26608 16.7339 3.42852 12.0001 3.42852ZM12.0001 15.0857C12.6628 15.0857 13.2001 15.6229 13.2001 16.2857C13.2001 16.9484 12.6628 17.4857 12.0001 17.4857C11.3373 17.4857 10.8001 16.9484 10.8001 16.2857C10.8001 15.6229 11.3373 15.0857 12.0001 15.0857ZM12.0632 6.85709C12.2668 6.85709 12.3947 6.88892 12.5064 6.94868C12.6182 7.00844 12.7059 7.09614 12.7656 7.20789C12.8254 7.31963 12.8572 7.44747 12.8572 7.65113V12.9202C12.8572 13.1238 12.8254 13.2517 12.7656 13.3634C12.7059 13.4752 12.6182 13.5629 12.5064 13.6226C12.3947 13.6824 12.2668 13.7142 12.0632 13.7142H11.937C11.7333 13.7142 11.6055 13.6824 11.4937 13.6226C11.382 13.5629 11.2943 13.4752 11.2345 13.3634C11.1748 13.2517 11.1429 13.1238 11.1429 12.9202V7.65113C11.1429 7.44747 11.1748 7.31963 11.2345 7.20789C11.2943 7.09614 11.382 7.00844 11.4937 6.94868C11.6055 6.88892 11.7333 6.85709 11.937 6.85709H12.0632Z"
        fill="#3F8AE0" />
</svg>
