<svg width="20" height="20" viewBox="0 0 20 20" fill="none" xmlns="http://www.w3.org/2000/svg">
<path d="M12.5903 0.100098C14.7582 0.100098 15.7923 0.299799 16.8666 0.874298C17.8382 1.39395 18.6062 2.16189 19.1258 3.13354C19.7003 4.20776 19.9 5.2419 19.9 7.40981V12.5904C19.9 14.7583 19.7003 15.7924 19.1258 16.8666C18.6062 17.8383 17.8382 18.6062 16.8666 19.1259C15.7923 19.7004 14.7582 19.9001 12.5903 19.9001H7.40972C5.24181 19.9001 4.20767 19.7004 3.13345 19.1259C2.1618 18.6062 1.39385 17.8383 0.874206 16.8666C0.299707 15.7924 0.100006 14.7583 0.100006 12.5904V7.40981C0.100006 5.2419 0.299707 4.20776 0.874206 3.13354C1.39385 2.16189 2.1618 1.39395 3.13345 0.874298C4.20767 0.299799 5.24181 0.100098 7.40972 0.100098H12.5903ZM12.5903 1.9001H7.40972C5.51355 1.9001 4.76013 2.04559 3.98233 2.46156C3.32436 2.81345 2.81336 3.32445 2.46147 3.98242C2.0455 4.76022 1.90001 5.51364 1.90001 7.40981V12.5904C1.90001 14.4866 2.0455 15.24 2.46147 16.0178C2.81336 16.6757 3.32436 17.1867 3.98233 17.5386C4.76013 17.9546 5.51355 18.1001 7.40972 18.1001H12.5903C14.4865 18.1001 15.2399 17.9546 16.0177 17.5386C16.6757 17.1867 17.1867 16.6757 17.5385 16.0178C17.9545 15.24 18.1 14.4866 18.1 12.5904V7.40981C18.1 5.51364 17.9545 4.76022 17.5385 3.98242C17.1867 3.32445 16.6757 2.81345 16.0177 2.46156C15.2399 2.04559 14.4865 1.9001 12.5903 1.9001ZM10 5.5001C10.4588 5.5001 10.8375 5.84343 10.893 6.2872L10.9 6.4001L10.899 9.1001H13.6C14.0588 9.1001 14.4375 9.44343 14.493 9.8872L14.5 10.0001C14.5 10.4589 14.1567 10.8375 13.7129 10.8931L13.6 10.9001H10.899L10.9 13.6001C10.9 14.0589 10.5567 14.4375 10.1129 14.4931L10 14.5001C9.54118 14.5001 9.16256 14.1568 9.10702 13.713L9.10001 13.6001L9.09901 10.9001H6.40001C5.94118 10.9001 5.56255 10.5568 5.50702 10.113L5.50001 10.0001C5.50001 9.54128 5.84334 9.16265 6.28711 9.10711L6.40001 9.1001H9.09901L9.10001 6.4001C9.10001 5.94128 9.44334 5.56265 9.88711 5.50711L10 5.5001Z" fill="#3F8AE0"/>
</svg>
