<svg width="22" height="22" viewBox="0 0 22 22" fill="none" xmlns="http://www.w3.org/2000/svg">
<path d="M11 0.714355C16.6806 0.714355 21.2857 5.31943 21.2857 11.0001C21.2857 16.6807 16.6806 21.2858 11 21.2858C5.31935 21.2858 0.714279 16.6807 0.714279 11.0001C0.714279 5.31943 5.31935 0.714355 11 0.714355ZM11 2.42864C6.26612 2.42864 2.42856 6.2662 2.42856 11.0001C2.42856 15.7339 6.26612 19.5715 11 19.5715C15.7339 19.5715 19.5714 15.7339 19.5714 11.0001C19.5714 6.2662 15.7339 2.42864 11 2.42864ZM11 5.85721C11.4734 5.85721 11.8571 6.24097 11.8571 6.71435V10.1429H15.2857C15.7591 10.1429 16.1428 10.5267 16.1428 11.0001C16.1428 11.4735 15.7591 11.8572 15.2857 11.8572H11.8571V15.2858C11.8571 15.7592 11.4734 16.1429 11 16.1429C10.5266 16.1429 10.1428 15.7592 10.1428 15.2858V11.8572H6.71428C6.24089 11.8572 5.85714 11.4735 5.85714 11.0001C5.85714 10.5267 6.24089 10.1429 6.71428 10.1429H10.1428V6.71435C10.1428 6.24097 10.5266 5.85721 11 5.85721Z" fill="#3F8AE0"/>
</svg>
