<svg width="68" height="71" viewBox="0 0 68 71" fill="none" xmlns="http://www.w3.org/2000/svg">
    <path
        d="M64.8142 61.2588C63.4309 53.5523 59.1495 51.1152 53.0238 50.0613C46.8981 49.0074 41.8262 48.5463 40.6406 44.8577C39.455 41.235 39.3891 37.4805 39.3891 37.4805H27.8622C27.8622 37.4805 27.7305 41.1691 26.6107 44.8577C25.4909 48.4804 20.3532 48.9415 14.2275 50.0613C8.10177 51.1152 3.82035 53.5523 2.43712 61.2588C1.4491 66.8576 0 74.1031 0 74.1031H67.3172C67.2513 74.1031 65.8681 66.8576 64.8142 61.2588Z"
        fill="#FCCCA6" />
    <path
        d="M40.0478 42.4864C39.455 39.7859 39.3891 37.4805 39.3891 37.4805H27.8622C27.8622 37.4805 27.7305 40.7739 26.7424 44.2649C27.9281 44.4625 29.1796 44.5284 30.431 44.5284C33.9879 44.5942 37.2813 43.8038 40.0478 42.4864Z"
        fill="#DDBA98" />
    <path
        d="M2.43712 61.2554C1.4491 66.8542 0 74.0996 0 74.0996H24.8323C23.3832 67.5787 20.946 53.2853 20.2215 49.0039C18.4431 49.3991 16.4011 49.7285 14.2934 50.0578C8.10177 51.1117 3.82035 53.5488 2.43712 61.2554Z"
        fill="#5E83BC" />
    <path
        d="M21.8682 48.4094L26.7424 74.0979H33.5927L33.1975 51.9004L24.6346 47.3555L21.8682 48.4094Z"
        fill="#E6EDF3" />
    <path
        d="M27.928 74.0999H23.2514C23.2514 74.0999 19.0358 63.3634 18.9041 62.4413C18.7723 61.5191 20.6825 56.579 20.6825 56.579C20.6825 56.579 17.455 55.2616 17.3891 54.3395C17.3232 53.4173 18.2454 49.3335 18.2454 49.3335L22.6586 48.082L27.928 74.0999Z"
        fill="#506FA0" />
    <path
        d="M64.8141 61.2554C65.8022 66.8542 67.2513 74.0996 67.2513 74.0996H42.4849C43.934 67.5787 46.3711 53.2853 47.0956 49.0039C48.8741 49.3991 50.916 49.7285 53.0238 50.0578C59.1495 51.1117 63.4309 53.5488 64.8141 61.2554Z"
        fill="#5E83BC" />
    <path
        d="M45.3832 48.4094L40.4431 74.0979H33.5928L34.0538 51.9004L42.6167 47.3555L45.3832 48.4094Z"
        fill="#E6EDF3" />
    <path
        d="M39.2573 74.0999H43.934C43.934 74.0999 48.1495 63.3634 48.2813 62.4413C48.413 61.5191 46.5028 56.579 46.5028 56.579C46.5028 56.579 49.7303 55.2616 49.7962 54.3395C49.8621 53.4173 48.9399 49.3335 48.9399 49.3335L44.5268 48.082L39.2573 74.0999Z"
        fill="#506FA0" />
    <path
        d="M36.0957 62.6382C35.5688 59.4107 34.9101 57.764 34.9101 57.764C34.9101 57.764 34.1197 57.5664 33.5927 57.5664C33.0658 57.5664 32.2754 57.764 32.2754 57.764C32.2754 57.764 31.6167 59.4107 31.0897 62.6382C30.5628 65.8658 29.97 74.0993 29.97 74.0993H37.2155C37.2155 74.0993 36.6885 65.8658 36.0957 62.6382Z"
        fill="#963B39" />
    <path
        d="M34.91 57.764C34.91 57.764 34.1195 57.5664 33.5926 57.5664C33.0656 57.5664 32.2752 57.764 32.2752 57.764C32.2752 57.764 31.88 59.4766 31.4189 61.1891C32.1435 61.3209 32.868 61.3209 33.5926 61.3209C34.3171 61.3209 35.1076 61.255 35.7662 61.1891C35.371 59.4766 34.91 57.764 34.91 57.764Z"
        fill="#833433" />
    <path
        d="M33.5927 51.707C32.2095 51.707 29.97 52.695 29.97 53.5513C29.97 54.6052 31.0239 57.8986 32.1436 58.0962C32.6706 58.1621 33.1975 58.1621 33.5927 58.1621C33.9879 58.1621 34.5149 58.1621 35.0418 58.0962C36.1616 57.9645 37.2155 54.6711 37.2155 53.5513C37.2155 52.695 34.9759 51.707 33.5927 51.707Z"
        fill="#963B39" />
    <path d="M26.2813 44.5898L34.0538 51.9012L26.6107 57.5L21.8682 48.4102L26.2813 44.5898Z"
        fill="#F2F9FF" />
    <path d="M40.9699 44.5898L33.1975 51.9012L40.6406 57.5L45.3831 48.4102L40.9699 44.5898Z"
        fill="#F2F9FF" />
    <path
        d="M23.5808 21.7331C23.5808 21.7331 19.4311 17.9127 17.6526 21.7331C15.8083 25.5534 22.7904 32.3378 24.8981 31.1522C27.0718 30.0325 23.5808 21.7331 23.5808 21.7331Z"
        fill="#DDBA98" />
    <path
        d="M43.6047 21.7331C43.6047 21.7331 47.7544 17.9127 49.5329 21.7331C51.3772 25.5534 44.3952 32.3378 42.2874 31.1522C40.1796 30.0325 43.6047 21.7331 43.6047 21.7331Z"
        fill="#DDBA98" />
    <path
        d="M45.5808 13.9629C45.2514 3.6875 35.4371 3.6875 33.5928 3.6875C31.7485 3.6875 21.9341 3.6875 21.6048 13.9629C21.2755 24.2383 21.8024 31.6814 23.9102 34.9748C26.018 38.2682 31.0898 39.9808 33.5928 39.9808C36.0958 39.9808 41.1676 38.2682 43.2754 34.9748C45.449 31.6814 45.9101 24.2383 45.5808 13.9629Z"
        fill="#FCCCA6" />
    <path
        d="M45.2514 3.75448C43.2754 1.38323 37.5448 0 33.6586 0C29.7724 0 23.976 1.38323 22.0658 3.75448C18.5748 7.97004 20.8144 23.9101 21.4072 24.7005C22.0658 25.4909 20.8802 22.7903 22.9221 20.0239C24.964 17.2574 24.7006 8.82632 24.7006 8.82632C24.7006 8.82632 26.479 12.3173 31.7484 12.3832C33.5269 12.3832 37.0179 11.7904 38.4011 11.1317C39.0598 11 39.6526 11 40.1137 11.1317C41.6287 11.6586 43.0778 12.7784 43.0778 12.7784C43.0778 12.7784 42.2873 17.2574 44.3293 20.0898C46.3712 22.8562 45.2514 25.6227 45.8442 24.7664C46.5029 23.9101 48.6765 7.97004 45.2514 3.75448Z"
        fill="#8B482E" />
    <path
        d="M20.6825 10.8694C20.6825 6.91734 23.9101 3.62394 27.928 3.62394H39.3232C43.2753 3.62394 46.5687 6.85147 46.5687 10.8694V18.7736H48.6106V10.8694C48.6106 5.73172 44.4609 1.58203 39.3232 1.58203H27.928C22.7903 1.58203 18.6406 5.73172 18.6406 10.8694V18.7736H20.6825V10.8694Z"
        fill="#3FA9B7" />
    <path
        d="M18.7066 17.5898C15.5449 17.5898 12.9761 20.1587 12.9761 23.3204C12.9761 26.482 15.5449 29.0509 18.7066 29.0509H18.9701V17.5898H18.7066Z"
        fill="#3FA9B7" />
    <path
        d="M20.3533 17.5898H18.4431V29.1168H20.3533C20.8144 29.1168 21.1437 28.7874 21.1437 28.3263V18.3803C21.1437 17.9192 20.7485 17.5898 20.3533 17.5898Z"
        fill="#3F7E8D" />
    <path
        d="M48.4788 17.5898C51.6405 17.5898 54.2093 20.1587 54.2093 23.3204C54.2093 26.482 51.6405 29.0509 48.4788 29.0509H48.2153V17.5898H48.4788Z"
        fill="#3FA9B7" />
    <path
        d="M46.8981 17.5898H48.8083V29.1168H46.8981C46.437 29.1168 46.1077 28.7874 46.1077 28.3263V18.3803C46.1077 17.9192 46.437 17.5898 46.8981 17.5898Z"
        fill="#3F7E8D" />
    <path
        d="M31.485 36.1601C31.4191 36.1601 31.4191 36.1601 31.485 36.1601C31.4191 36.1601 30.1017 36.0942 25.7544 35.5673C20.8802 34.9745 19.1676 28.0583 19.1018 27.7949C18.97 27.3338 19.2994 26.9386 19.6946 26.8068C20.1557 26.6751 20.5509 27.0045 20.6826 27.3997C20.6826 27.4655 22.1317 33.4595 25.8862 33.9206C30.1676 34.4475 31.4191 34.5134 31.4191 34.5134C31.8802 34.5134 32.2095 34.9086 32.2095 35.3697C32.2754 35.8308 31.8802 36.1601 31.485 36.1601Z"
        fill="#3F7E8D" />
    <path
        d="M34.4489 35.568C34.4489 36.095 33.9878 36.5561 33.4609 36.5561H30.4968C29.9699 36.5561 29.5088 36.095 29.5088 35.568V34.8435C29.5088 34.3165 29.9699 33.8555 30.4968 33.8555H33.4609C33.9878 33.8555 34.4489 34.3165 34.4489 34.8435V35.568Z"
        fill="#3FA9B7" />
</svg>
