<svg width="23" height="22" viewBox="0 0 23 22" fill="none" xmlns="http://www.w3.org/2000/svg">
    <path
        d="M14.1117 14.259L13.3776 14.9931C13.1815 15.1894 12.8893 15.254 12.6287 15.1585C11.8986 14.89 10.9853 14.2084 9.88865 13.1117C8.79303 12.016 8.11049 11.1026 7.84302 10.3715C7.74733 10.1111 7.8115 9.81882 8.00747 9.62248L8.74251 8.88838C10.0967 7.53409 10.2205 5.40111 9.02681 3.9854L8.16497 2.96101C7.18129 1.791 5.40907 1.6731 4.20546 2.6965C3.75783 3.08227 3.42132 3.58059 3.23069 4.13995C3.14831 4.38344 3.0951 4.63585 3.07219 4.89189C2.63137 8.16417 4.20943 11.5989 7.80538 15.1952C11.4013 18.7914 14.8348 20.3686 18.1078 19.9278C18.9581 19.8466 19.7444 19.4406 20.303 18.7944C21.3273 17.5917 21.2085 15.8183 20.0395 14.8346L19.0152 13.9717C17.5977 12.7798 15.4658 12.9047 14.1117 14.259ZM11.3029 11.6976C11.8267 12.2214 12.2835 12.6188 12.6528 12.8894C14.7761 10.7659 18.08 10.5724 20.3038 12.4421L21.3274 13.3044C23.3566 15.0121 23.5596 18.0553 21.8161 20.1023C20.9208 21.138 19.6607 21.7886 18.3748 21.9099C14.3927 22.4462 10.3881 20.6067 6.39111 16.6093C2.39401 12.6119 0.553762 8.60614 1.08015 4.71366C1.11716 4.30005 1.20311 3.8923 1.33761 3.49479C1.64311 2.59836 2.18241 1.79976 2.90992 1.17282C4.94719 -0.55941 7.98874 -0.356484 9.69538 1.67344L10.5558 2.69617C12.428 4.9165 12.2362 8.22297 10.1558 10.3035C10.3818 10.7169 10.7789 11.1735 11.3029 11.6976Z"
        fill="#3F8AE0" />
</svg>
