<svg width="153" height="154" viewBox="0 0 153 154" fill="none" xmlns="http://www.w3.org/2000/svg">
    <path opacity="0.3" fill-rule="evenodd" clip-rule="evenodd"
        d="M80.6167 22.6283C89.8325 21.5556 97.6111 28.6707 105.892 32.8463C115.195 37.5372 130.354 38.3634 132.142 48.6094C134.116 59.9216 116.986 65.8506 113.566 76.8143C110.988 85.0783 117.874 93.8813 115.43 102.185C112.232 113.048 108.1 125.709 97.7838 130.423C87.5086 135.117 75.4224 129.539 64.9751 125.239C55.3191 121.264 47.7902 114.228 40.4428 106.82C32.601 98.9141 19.6153 91.7357 20.7726 80.6725C22.0089 68.8548 37.7849 65.038 45.7387 56.1949C50.7858 50.5836 53.4279 43.5539 58.8667 38.3196C65.4391 31.9943 71.5466 23.684 80.6167 22.6283Z"
        stroke="#3F8AE0" />
    <path opacity="0.08" fill-rule="evenodd" clip-rule="evenodd"
        d="M32.7712 44.1888C36.8742 35.8673 47.0726 33.1982 55.0753 28.5114C64.0657 23.246 72.9898 10.965 82.565 15.0264C93.1365 19.5104 88.8145 37.115 96.1645 45.9398C101.705 52.5915 112.836 51.5884 118.482 58.1502C125.868 66.7335 134.257 77.0771 132.614 88.2999C130.977 99.4778 119.73 106.598 110.447 113.037C101.866 118.987 91.8701 121.49 81.66 123.638C70.7628 125.93 57.684 132.938 49.0219 125.959C39.7691 118.504 45.1295 103.184 42.022 91.7031C40.0502 84.4181 35.5815 78.3825 34.1389 70.9733C32.3957 62.0196 28.7331 52.3787 32.7712 44.1888Z"
        fill="#3F8AE0" />
    <path
        d="M66 83H72C72.5304 83 73.0391 82.7893 73.4142 82.4142C73.7893 82.0391 74 81.5304 74 81C74 80.4696 73.7893 79.9609 73.4142 79.5858C73.0391 79.2107 72.5304 79 72 79H66C65.4696 79 64.9609 79.2107 64.5858 79.5858C64.2107 79.9609 64 80.4696 64 81C64 81.5304 64.2107 82.0391 64.5858 82.4142C64.9609 82.7893 65.4696 83 66 83ZM90 63H62C60.4087 63 58.8826 63.6321 57.7574 64.7574C56.6321 65.8826 56 67.4087 56 69V87C56 88.5913 56.6321 90.1174 57.7574 91.2426C58.8826 92.3679 60.4087 93 62 93H90C91.5913 93 93.1174 92.3679 94.2426 91.2426C95.3679 90.1174 96 88.5913 96 87V69C96 67.4087 95.3679 65.8826 94.2426 64.7574C93.1174 63.6321 91.5913 63 90 63ZM92 87C92 87.5304 91.7893 88.0391 91.4142 88.4142C91.0391 88.7893 90.5304 89 90 89H62C61.4696 89 60.9609 88.7893 60.5858 88.4142C60.2107 88.0391 60 87.5304 60 87V75H92V87ZM92 71H60V69C60 68.4696 60.2107 67.9609 60.5858 67.5858C60.9609 67.2107 61.4696 67 62 67H90C90.5304 67 91.0391 67.2107 91.4142 67.5858C91.7893 67.9609 92 68.4696 92 69V71Z"
        fill="#3F8AE0" />
</svg>
