<svg width="16" height="16" viewBox="0 0 16 16" fill="none" xmlns="http://www.w3.org/2000/svg">
    <path fill-rule="evenodd" clip-rule="evenodd"
        d="M6.66699 13.3333C6.66699 14.4379 5.77156 15.3333 4.66699 15.3333C3.56242 15.3333 2.66699 14.4379 2.66699 13.3333C2.66699 12.2287 3.56242 11.3333 4.66699 11.3333C5.77156 11.3333 6.66699 12.2287 6.66699 13.3333ZM5.33366 13.3333C5.33366 13.7015 5.03518 14 4.66699 14C4.2988 14 4.00033 13.7015 4.00033 13.3333C4.00033 12.9651 4.2988 12.6666 4.66699 12.6666C5.03518 12.6666 5.33366 12.9651 5.33366 13.3333Z"
        fill="white" />
    <path fill-rule="evenodd" clip-rule="evenodd"
        d="M13.3337 13.3333C13.3337 14.4379 12.4382 15.3333 11.3337 15.3333C10.2291 15.3333 9.33366 14.4379 9.33366 13.3333C9.33366 12.2287 10.2291 11.3333 11.3337 11.3333C12.4382 11.3333 13.3337 12.2287 13.3337 13.3333ZM12.0003 13.3333C12.0003 13.7015 11.7018 14 11.3337 14C10.9655 14 10.667 13.7015 10.667 13.3333C10.667 12.9651 10.9655 12.6666 11.3337 12.6666C11.7018 12.6666 12.0003 12.9651 12.0003 13.3333Z"
        fill="white" />
    <path fill-rule="evenodd" clip-rule="evenodd"
        d="M1.40354 1.70186C1.5682 1.37254 1.96864 1.23906 2.29796 1.40372L2.96697 1.73822C3.58648 2.04798 4.00162 2.65622 4.06433 3.346L4.09622 3.69685C4.11183 3.86854 4.25578 4 4.42819 4H13.2235C14.3872 4 15.1926 5.16229 14.784 6.25188L13.6151 9.36892C13.3224 10.1495 12.5762 10.6667 11.7425 10.6667H5.21744C4.18303 10.6667 3.3193 9.8779 3.22565 8.84774L2.73647 3.46672C2.71557 3.23679 2.57719 3.03404 2.37068 2.93079L1.70168 2.59629C1.37236 2.43163 1.23888 2.03118 1.40354 1.70186ZM4.61 5.33334C4.41399 5.33334 4.26029 5.50164 4.27804 5.69685L4.55351 8.72703C4.58473 9.07041 4.87264 9.33334 5.21744 9.33334H11.7425C12.0204 9.33334 12.2691 9.16095 12.3667 8.90075L13.5356 5.78371C13.6173 5.56579 13.4562 5.33334 13.2235 5.33334H4.61Z"
        fill="white" />
</svg>
