<svg width="113" height="113" viewBox="0 0 113 113" fill="none" xmlns="http://www.w3.org/2000/svg">
    <rect width="113" height="113" rx="10" fill="#36CF86" />
    <mask id="mask0" mask-type="alpha" maskUnits="userSpaceOnUse" x="0" y="0" width="113"
        height="113">
        <rect width="113" height="113" rx="10" fill="#825AD7" />
    </mask>
    <g mask="url(#mask0)">
        <path
            d="M88.9024 73.6607C92.9911 69.8321 97.7093 67.753 102.97 67.5217L103.963 67.5C115.408 67.5 124.75 76.781 124.75 88.225C124.75 98.9504 120.997 104.272 104.548 117.447L101.165 120.128L92.5946 126.808C90.1873 128.684 86.8127 128.684 84.4054 126.808L74.6613 119.203C56.3366 104.724 52.25 99.4168 52.25 88.225C52.25 76.781 61.5922 67.5 73.0371 67.5C78.6204 67.5 83.6518 69.5882 88.0369 73.6444L88.4783 74.0721L88.9024 73.6607Z"
            fill="#EBEBF5" fill-opacity="0.6" />
        <path
            d="M93.2033 29.4493C95.2712 27.5129 97.6574 26.4615 100.318 26.3445L100.82 26.3335C106.608 26.3335 111.333 31.0273 111.333 36.8151C111.333 42.2395 109.435 44.9308 101.116 51.594L99.405 52.9502L95.0707 56.3281C93.8532 57.277 92.1465 57.277 90.929 56.3281L86.0009 52.4824C76.7333 45.1597 74.6665 42.4753 74.6665 36.8151C74.6665 31.0273 79.3913 26.3335 85.1795 26.3335C88.0033 26.3335 90.5479 27.3896 92.7656 29.441L92.9888 29.6573L93.2033 29.4493Z"
            fill="#EBEBF5" fill-opacity="0.6" />
    </g>
    <path opacity="0.25"
        d="M40 25.3335C40 32.6557 33.5662 38.9057 30.1205 41.7278C28.8713 42.751 27.1287 42.751 25.8795 41.7278C22.4338 38.9057 16 32.6557 16 25.3335C16 18.7061 21.3726 13.3335 28 13.3335C34.6274 13.3335 40 18.7061 40 25.3335Z"
        fill="white" />
    <path
        d="M32 24C32 26.2091 30.2091 28 28 28C25.7909 28 24 26.2091 24 24C24 21.7909 25.7909 20 28 20C30.2091 20 32 21.7909 32 24Z"
        fill="white" />
</svg>
