<svg width="113" height="113" viewBox="0 0 113 113" fill="none" xmlns="http://www.w3.org/2000/svg">
    <rect width="113" height="113" rx="10" fill="#27BDEC" />
    <mask id="mask0" mask-type="alpha" maskUnits="userSpaceOnUse" x="0" y="0" width="113"
        height="113">
        <rect width="113" height="113" rx="10" fill="#825AD7" />
    </mask>
    <g mask="url(#mask0)">
        <path
            d="M88.9024 73.6607C92.9911 69.8321 97.7093 67.753 102.97 67.5217L103.963 67.5C115.408 67.5 124.75 76.781 124.75 88.225C124.75 98.9504 120.997 104.272 104.548 117.447L101.165 120.128L92.5946 126.808C90.1873 128.684 86.8127 128.684 84.4054 126.808L74.6613 119.203C56.3366 104.724 52.25 99.4168 52.25 88.225C52.25 76.781 61.5922 67.5 73.0371 67.5C78.6204 67.5 83.6518 69.5882 88.0369 73.6444L88.4783 74.0721L88.9024 73.6607Z"
            fill="#EBEBF5" fill-opacity="0.6" />
        <path
            d="M93.2033 29.4493C95.2712 27.5129 97.6574 26.4615 100.318 26.3445L100.82 26.3335C106.608 26.3335 111.333 31.0273 111.333 36.8151C111.333 42.2395 109.435 44.9308 101.116 51.594L99.405 52.9502L95.0707 56.3281C93.8532 57.277 92.1465 57.277 90.929 56.3281L86.0009 52.4824C76.7333 45.1597 74.6665 42.4753 74.6665 36.8151C74.6665 31.0273 79.3913 26.3335 85.1795 26.3335C88.0033 26.3335 90.5479 27.3896 92.7656 29.441L92.9888 29.6573L93.2033 29.4493Z"
            fill="#EBEBF5" fill-opacity="0.6" />
    </g>
    <path opacity="0.25" fill-rule="evenodd" clip-rule="evenodd"
        d="M21.3332 19.9998V18.6665C21.3332 16.4574 23.124 14.6665 25.3332 14.6665H30.6665C32.8756 14.6665 34.6665 16.4574 34.6665 18.6665V19.9998H37.3332C39.5423 19.9998 41.3332 21.7907 41.3332 23.9998V37.3332C41.3332 39.5423 39.5423 41.3332 37.3332 41.3332H18.6665C16.4574 41.3332 14.6665 39.5423 14.6665 37.3332V23.9998C14.6665 21.7907 16.4574 19.9998 18.6665 19.9998H21.3332ZM23.9998 18.6665C23.9998 17.9301 24.5968 17.3332 25.3332 17.3332H30.6665C31.4029 17.3332 31.9998 17.9301 31.9998 18.6665V19.9998H23.9998V18.6665Z"
        fill="white" />


    <path fill-rule="evenodd" clip-rule="evenodd"
        d="M26.6665 26.6668C26.6665 25.9304 27.2635 25.3335 27.9998 25.3335C28.7362 25.3335 29.3332 25.9304 29.3332 26.6668V29.3335H31.9998C32.7362 29.3335 33.3332 29.9305 33.3332 30.6668C33.3332 31.4032 32.7362 32.0002 31.9998 32.0002H29.3332V34.6668C29.3332 35.4032 28.7362 36.0002 27.9998 36.0002C27.2635 36.0002 26.6665 35.4032 26.6665 34.6668V32.0002H23.9998C23.2635 32.0002 22.6665 31.4032 22.6665 30.6668C22.6665 29.9304 23.2635 29.3335 23.9998 29.3335H26.6665V26.6668Z"
        fill="white" />
</svg>
