<svg width="113" height="113" viewBox="0 0 113 113" fill="none" xmlns="http://www.w3.org/2000/svg">
    <rect width="113" height="113" rx="10" fill="#EFA434" />
    <mask id="mask0" mask-type="alpha" maskUnits="userSpaceOnUse" x="0" y="0" width="113"
        height="113">
        <rect width="113" height="113" rx="10" fill="#825AD7" />
    </mask>
    <g mask="url(#mask0)">
        <path
            d="M88.9024 73.6607C92.9911 69.8321 97.7093 67.753 102.97 67.5217L103.963 67.5C115.408 67.5 124.75 76.781 124.75 88.225C124.75 98.9504 120.997 104.272 104.548 117.447L101.165 120.128L92.5946 126.808C90.1873 128.684 86.8127 128.684 84.4054 126.808L74.6613 119.203C56.3366 104.724 52.25 99.4168 52.25 88.225C52.25 76.781 61.5922 67.5 73.0371 67.5C78.6204 67.5 83.6518 69.5882 88.0369 73.6444L88.4783 74.0721L88.9024 73.6607Z"
            fill="#EBEBF5" fill-opacity="0.6" />
        <path
            d="M93.2033 29.4493C95.2712 27.5129 97.6574 26.4615 100.318 26.3445L100.82 26.3335C106.608 26.3335 111.333 31.0273 111.333 36.8151C111.333 42.2395 109.435 44.9308 101.116 51.594L99.405 52.9502L95.0707 56.3281C93.8532 57.277 92.1465 57.277 90.929 56.3281L86.0009 52.4824C76.7333 45.1597 74.6665 42.4753 74.6665 36.8151C74.6665 31.0273 79.3913 26.3335 85.1795 26.3335C88.0033 26.3335 90.5479 27.3896 92.7656 29.441L92.9888 29.6573L93.2033 29.4493Z"
            fill="#EBEBF5" fill-opacity="0.6" />
    </g>
    <path opacity="0.25" fill-rule="evenodd" clip-rule="evenodd"
        d="M19.212 15.3189C16.9586 15.6618 15.1732 17.313 14.7863 19.5593C14.5166 21.1248 14.2856 23.1135 14.2856 25.3332C14.2856 27.5528 14.5166 29.5415 14.7863 31.1071C15.1184 33.0353 16.4811 34.525 18.2856 35.1251V39.6632C18.2856 40.6956 19.4085 41.3364 20.2973 40.8111L28.4511 35.993C31.4035 35.9446 34.0507 35.648 36.0259 35.3474C38.2793 35.0045 40.0648 33.3533 40.4517 31.1071C40.7214 29.5415 40.9523 27.5528 40.9523 25.3332C40.9523 23.1135 40.7214 21.1248 40.4517 19.5593C40.0648 17.313 38.2793 15.6618 36.0259 15.3189C33.8668 14.9904 30.9049 14.6665 27.619 14.6665C24.3331 14.6665 21.3711 14.9904 19.212 15.3189Z"
        fill="white" />
    <path fill-rule="evenodd" clip-rule="evenodd"
        d="M26.7036 22.858C26.3876 23.4043 25.6884 23.591 25.1421 23.275C24.5957 22.9589 24.409 22.2598 24.7251 21.7135C25.3162 20.6916 26.4238 20 27.6943 20C29.5878 20 31.1228 21.535 31.1228 23.4286C31.1228 24.6831 30.3533 25.7074 29.4085 26.2857C28.6497 26.7502 29.1228 28 27.6913 28C27.0601 28 26.5484 27.4883 26.5484 26.8571C26.5484 26.817 26.5505 26.7774 26.5545 26.7383C26.5862 26.1339 26.8557 25.6421 27.1492 25.2845C27.4591 24.9068 27.8665 24.5985 28.1781 24.4133C29.9115 23.3829 27.7973 21.2747 26.7036 22.858ZM27.6913 29.1429C27.0601 29.1429 26.5484 29.6545 26.5484 30.2857C26.5484 30.9169 27.0601 31.4286 27.6913 31.4286C28.3224 31.4286 28.8341 30.9169 28.8341 30.2857C28.8341 29.6545 28.3224 29.1429 27.6913 29.1429Z"
        fill="white" />
</svg>
