<svg width="113" height="113" viewBox="0 0 113 113" fill="none" xmlns="http://www.w3.org/2000/svg">
    <rect width="113" height="113" rx="10" fill="#8256E0" />
    <mask id="mask0" mask-type="alpha" maskUnits="userSpaceOnUse" x="0" y="0" width="113"
        height="113">
        <rect width="113" height="113" rx="10" fill="#825AD7" />
    </mask>
    <g mask="url(#mask0)">
        <path
            d="M88.9024 73.6607C92.9911 69.8321 97.7093 67.753 102.97 67.5217L103.963 67.5C115.408 67.5 124.75 76.781 124.75 88.225C124.75 98.9504 120.997 104.272 104.548 117.447L101.165 120.128L92.5946 126.808C90.1873 128.684 86.8127 128.684 84.4054 126.808L74.6613 119.203C56.3366 104.724 52.25 99.4168 52.25 88.225C52.25 76.781 61.5922 67.5 73.0371 67.5C78.6204 67.5 83.6518 69.5882 88.0369 73.6444L88.4783 74.0721L88.9024 73.6607Z"
            fill="#EBEBF5" fill-opacity="0.6" />
        <path
            d="M93.2033 29.4493C95.2712 27.5129 97.6574 26.4615 100.318 26.3445L100.82 26.3335C106.608 26.3335 111.333 31.0273 111.333 36.8151C111.333 42.2395 109.435 44.9308 101.116 51.594L99.405 52.9502L95.0707 56.3281C93.8532 57.277 92.1465 57.277 90.929 56.3281L86.0009 52.4824C76.7333 45.1597 74.6665 42.4753 74.6665 36.8151C74.6665 31.0273 79.3913 26.3335 85.1795 26.3335C88.0033 26.3335 90.5479 27.3896 92.7656 29.441L92.9888 29.6573L93.2033 29.4493Z"
            fill="#EBEBF5" fill-opacity="0.6" />
    </g>
    <path opacity="0.25"
        d="M13.3335 20C13.3335 17.7909 15.1244 16 17.3335 16H38.6668C40.876 16 42.6668 17.7909 42.6668 20V36C42.6668 38.2091 40.876 40 38.6668 40H17.3335C15.1244 40 13.3335 38.2091 13.3335 36V20Z"
        fill="white" />
    <path
        d="M22.6665 32.6665C22.6665 33.7711 21.7711 34.6665 20.6665 34.6665C19.5619 34.6665 18.6665 33.7711 18.6665 32.6665C18.6665 31.5619 19.5619 30.6665 20.6665 30.6665C21.7711 30.6665 22.6665 31.5619 22.6665 32.6665Z"
        fill="white" />
    <path
        d="M29.3335 32.6665C29.3335 33.7711 28.4381 34.6665 27.3335 34.6665C26.2289 34.6665 25.3335 33.7711 25.3335 32.6665C25.3335 31.5619 26.2289 30.6665 27.3335 30.6665C28.4381 30.6665 29.3335 31.5619 29.3335 32.6665Z"
        fill="white" />
    <path d="M13.3335 22.6665H42.6668V25.3332H13.3335V22.6665Z" fill="white" />
</svg>
