<svg width="16" height="21" viewBox="0 0 16 21" fill="none" xmlns="http://www.w3.org/2000/svg">
    <path
        d="M15.7142 8.29842C15.7142 4.03127 12.2608 0.571411 7.99993 0.571411C3.73909 0.571411 0.285645 4.03127 0.285645 8.29842C0.285645 11.3393 2.15351 15.0098 5.84023 19.3688C6.84904 20.5615 8.63378 20.7107 9.82655 19.7018C9.94664 19.6003 10.0581 19.4889 10.1596 19.3688C13.8463 15.0098 15.7142 11.3393 15.7142 8.29842ZM8.71951 18.3929C8.24963 18.7903 7.54655 18.7316 7.14914 18.2617C3.69999 14.1837 1.99993 10.8429 1.99993 8.29842C1.99993 4.97733 4.68658 2.2857 7.99993 2.2857C11.3133 2.2857 13.9999 4.97733 13.9999 8.29842C13.9999 10.8429 12.2999 14.1837 8.85072 18.2617C8.81071 18.309 8.76682 18.3529 8.71951 18.3929ZM4.57136 8.2857C4.57136 6.39264 6.10687 4.85713 7.99993 4.85713C9.89299 4.85713 11.4285 6.39264 11.4285 8.2857C11.4285 10.1788 9.89299 11.7143 7.99993 11.7143C6.10687 11.7143 4.57136 10.1788 4.57136 8.2857ZM6.28565 8.2857C6.28565 9.23198 7.05365 9.99998 7.99993 9.99998C8.94622 9.99998 9.71422 9.23198 9.71422 8.2857C9.71422 7.33941 8.94622 6.57141 7.99993 6.57141C7.05365 6.57141 6.28565 7.33941 6.28565 8.2857Z"
        fill="#3F8AE0" />
</svg>
