<svg width="20" height="20" viewBox="0 0 20 20" fill="none" xmlns="http://www.w3.org/2000/svg">
    <path
        d="M10 0.249878C15.3835 0.249878 19.75 4.61488 19.75 9.99988C19.75 15.3849 15.3835 19.7499 10 19.7499C4.615 19.7499 0.25 15.3849 0.25 9.99988C0.25 4.61488 4.615 0.249878 10 0.249878ZM10 2.49988C5.85764 2.49988 2.5 5.85752 2.5 9.99988C2.5 14.1422 5.85764 17.4999 10 17.4999C14.1414 17.4999 17.5 14.1417 17.5 9.99988C17.5 5.85809 14.1414 2.49988 10 2.49988ZM9.35538 5.01988C9.9767 5.01988 10.4804 5.52356 10.4804 6.14488V9.75851L14.0451 10.9653C14.6336 11.1645 14.9492 11.8031 14.75 12.3916C14.5507 12.9801 13.9121 13.2957 13.3236 13.0965L8.99464 11.631C8.5378 11.4763 8.23038 11.0477 8.23038 10.5654V6.14488C8.23038 5.52356 8.73405 5.01988 9.35538 5.01988Z"
        fill="#B8C1CC" />
</svg>
