<svg width="153" height="154" viewBox="0 0 153 154" fill="none" xmlns="http://www.w3.org/2000/svg">
    <path opacity="0.2" fill-rule="evenodd" clip-rule="evenodd"
        d="M80.4682 21.9017C89.6841 20.8291 97.4627 27.9441 105.744 32.1197C115.047 36.8107 130.205 37.6368 131.993 47.8828C133.968 59.195 116.837 65.124 113.418 76.0877C110.84 84.3517 117.726 93.1547 115.281 101.459C112.083 112.321 107.952 124.982 97.6354 129.696C87.3601 134.391 75.274 128.812 64.8267 124.512C55.1706 120.537 47.6417 113.502 40.2943 106.094C32.4525 98.1876 19.4668 91.0091 20.6242 79.9459C21.8604 68.1282 37.6365 64.3114 45.5903 55.4683C50.6374 49.857 53.2795 42.8273 58.7182 37.593C65.2907 31.2677 71.3981 22.9574 80.4682 21.9017Z"
        stroke="#FFA000" />
    <path opacity="0.08" fill-rule="evenodd" clip-rule="evenodd"
        d="M32.6233 43.4603C36.7263 35.1388 46.9247 32.4697 54.9273 27.7829C63.9178 22.5175 72.8419 10.2365 82.4171 14.2979C92.9886 18.7819 88.6665 36.3865 96.0165 45.2112C101.557 51.863 112.688 50.8599 118.334 57.4217C125.72 66.005 134.109 76.3486 132.466 87.5713C130.829 98.7492 119.582 105.87 110.299 112.308C101.718 118.259 91.7221 120.761 81.512 122.909C70.6149 125.202 57.536 132.209 48.874 125.23C39.6211 117.776 44.9816 102.455 41.8741 90.9746C39.9022 83.6896 35.4335 77.654 33.991 70.2448C32.2477 61.2911 28.5851 51.6502 32.6233 43.4603Z"
        fill="#FFA000" />
    <path
        d="M82.7266 58.1426C86.0835 58.178 87.7918 58.5398 89.5632 59.4871C91.2587 60.3939 92.5997 61.7349 93.5065 63.4304C94.4538 65.2018 94.8155 66.9101 94.851 70.267V83.7266C94.8155 87.0835 94.4538 88.7918 93.5065 90.5632C92.5997 92.2587 91.2587 93.5997 89.5632 94.5065C87.7918 95.4538 86.0835 95.8155 82.7266 95.851H69.267C65.9101 95.8155 64.2018 95.4538 62.4304 94.5065C60.7349 93.5997 59.3939 92.2587 58.4871 90.5632C57.5398 88.7918 57.178 87.0835 57.1426 83.7266V70.267C57.178 66.9101 57.5398 65.2018 58.4871 63.4304C59.3939 61.7349 60.7349 60.3939 62.4304 59.4871C64.2018 58.5398 65.9101 58.178 69.267 58.1426H82.7266ZM82.1516 61.5682H69.842L68.8865 61.5766C66.3506 61.6247 65.2151 61.8859 64.0473 62.5105C62.9493 63.0977 62.0977 63.9493 61.5105 65.0473C60.8859 66.2151 60.6247 67.3506 60.5766 69.8865L60.5682 70.842V83.1516L60.5766 84.1071C60.6247 86.643 60.8859 87.7785 61.5105 88.9462C62.0977 90.0443 62.9493 90.8959 64.0473 91.4831C65.2151 92.1076 66.3506 92.3689 68.8865 92.417L69.842 92.4254H82.1516L83.1071 92.417C85.643 92.3689 86.7785 92.1076 87.9462 91.4831C89.0443 90.8959 89.8959 90.0443 90.4831 88.9462C91.1076 87.7785 91.3689 86.643 91.417 84.1071L91.4254 83.1516V70.842L91.417 69.8865C91.3689 67.3506 91.1076 66.2151 90.4831 65.0473C89.8959 63.9493 89.0443 63.0977 87.9462 62.5105C86.7785 61.8859 85.643 61.6247 83.1071 61.5766L82.1516 61.5682ZM75.9997 68.4283C76.9465 68.4283 77.714 69.1958 77.714 70.1426V75.2854H82.8569C83.8036 75.2854 84.5711 76.0529 84.5711 76.9997C84.5711 77.9465 83.8036 78.714 82.8569 78.714H77.714V83.8569C77.714 84.8036 76.9465 85.5711 75.9997 85.5711C75.0529 85.5711 74.2854 84.8036 74.2854 83.8569V78.714H69.1426C68.1958 78.714 67.4283 77.9465 67.4283 76.9997C67.4283 76.0529 68.1958 75.2854 69.1426 75.2854H74.2854V70.1426C74.2854 69.1958 75.0529 68.4283 75.9997 68.4283Z"
        fill="#FFA000" />
</svg>
