<svg width="153" height="154" viewBox="0 0 153 154" fill="none" xmlns="http://www.w3.org/2000/svg">
    <path opacity="0.3" fill-rule="evenodd" clip-rule="evenodd"
        d="M80.4687 21.9012C89.6846 20.8286 97.4632 27.9436 105.744 32.1192C115.047 36.8102 130.206 37.6363 131.994 47.8823C133.968 59.1945 116.838 65.1235 113.418 76.0872C110.84 84.3512 117.726 93.1542 115.282 101.458C112.084 112.321 107.952 124.982 97.6359 129.696C87.3606 134.39 75.2745 128.812 64.8271 124.511C55.1711 120.537 47.6422 113.501 40.2948 106.093C32.453 98.1871 19.4673 91.0086 20.6247 79.9454C21.8609 68.1277 37.637 64.3109 45.5908 55.4679C50.6379 49.8565 53.28 42.8268 58.7187 37.5925C65.2912 31.2672 71.3986 22.9569 80.4687 21.9012Z"
        stroke="#818C99" />
    <path opacity="0.64" fill-rule="evenodd" clip-rule="evenodd"
        d="M32.6233 43.4607C36.7263 35.1392 46.9247 32.4702 54.9273 27.7834C63.9178 22.518 72.8419 10.237 82.4171 14.2984C92.9886 18.7824 88.6665 36.387 96.0165 45.2117C101.557 51.8635 112.688 50.8603 118.334 57.4222C125.72 66.0054 134.109 76.3491 132.466 87.5718C130.829 98.7497 119.582 105.87 110.299 112.309C101.718 118.259 91.7221 120.762 81.512 122.91C70.6149 125.202 57.536 132.21 48.874 125.231C39.6211 117.776 44.9816 102.456 41.8741 90.9751C39.9022 83.69 35.4335 77.6545 33.991 70.2452C32.2477 61.2916 28.5851 51.6507 32.6233 43.4607Z"
        fill="#EBEDF0" />
    <path
        d="M74.2041 59.6357C82.2122 59.6357 88.7041 66.1276 88.7041 74.1357C88.7041 77.4182 87.6134 80.4459 85.7747 82.8762L94.1183 91.2215C94.8994 92.0026 94.8994 93.2689 94.1183 94.05C93.3373 94.831 92.0709 94.831 91.2899 94.05L82.9445 85.7063C80.5142 87.5451 77.4865 88.6357 74.2041 88.6357C66.196 88.6357 59.7041 82.1439 59.7041 74.1357C59.7041 66.1276 66.196 59.6357 74.2041 59.6357ZM74.2041 63.6357C68.4051 63.6357 63.7041 68.3368 63.7041 74.1357C63.7041 79.9347 68.4051 84.6357 74.2041 84.6357C80.0031 84.6357 84.7041 79.9347 84.7041 74.1357C84.7041 68.3368 80.0031 63.6357 74.2041 63.6357Z"
        fill="#B8C1CC" />
</svg>
