<svg width="153" height="154" viewBox="0 0 153 154" fill="none" xmlns="http://www.w3.org/2000/svg">
    <path opacity="0.2" fill-rule="evenodd" clip-rule="evenodd"
        d="M80.4692 21.9017C89.6851 20.8291 97.4637 27.9441 105.745 32.1197C115.048 36.8107 130.206 37.6368 131.994 47.8828C133.969 59.195 116.838 65.124 113.418 76.0877C110.841 84.3517 117.727 93.1547 115.282 101.459C112.084 112.321 107.953 124.982 97.6364 129.696C87.3611 134.391 75.275 128.812 64.8276 124.512C55.1716 120.537 47.6427 113.502 40.2953 106.094C32.4535 98.1876 19.4678 91.0091 20.6251 79.9459C21.8614 68.1282 37.6374 64.3114 45.5913 55.4683C50.6383 49.857 53.2804 42.8273 58.7192 37.593C65.2917 31.2677 71.3991 22.9574 80.4692 21.9017Z"
        stroke="#792EC0" />
    <path opacity="0.08" fill-rule="evenodd" clip-rule="evenodd"
        d="M32.6233 43.4603C36.7263 35.1388 46.9247 32.4697 54.9273 27.7829C63.9177 22.5175 72.8419 10.2365 82.4171 14.2979C92.9886 18.7819 88.6665 36.3865 96.0165 45.2112C101.557 51.863 112.688 50.8599 118.334 57.4217C125.72 66.005 134.109 76.3486 132.466 87.5713C130.829 98.7492 119.582 105.87 110.299 112.308C101.718 118.259 91.7221 120.761 81.512 122.909C70.6149 125.202 57.536 132.209 48.874 125.23C39.6211 117.776 44.9816 102.455 41.8741 90.9746C39.9022 83.6896 35.4335 77.654 33.991 70.2448C32.2477 61.2911 28.5851 51.6502 32.6233 43.4603Z"
        fill="#792EC0" />
    <path
        d="M88.264 66.7144C90.5565 66.7144 91.3878 66.9531 92.2259 67.4013C93.064 67.8496 93.7217 68.5073 94.17 69.3454L94.3282 69.6622C94.6741 70.4141 94.8569 71.3014 94.8569 73.3073V85.4847L94.8478 86.4811C94.7813 89.9416 94.3508 91.3397 93.5975 92.7481C92.7758 94.2846 91.5699 95.4905 90.0334 96.3122C88.4969 97.134 86.9729 97.5716 82.77 97.5716H69.2295L68.233 97.5625C64.7725 97.496 63.3745 97.0655 61.966 96.3122C60.4295 95.4905 59.2237 94.2846 58.4019 92.7481C57.6144 91.2756 57.1797 89.8146 57.1449 85.9963L57.1426 73.3073C57.1426 71.0148 57.3813 70.1835 57.8295 69.3454C58.2777 68.5073 58.9355 67.8496 59.7735 67.4013L60.0904 67.2431C60.7886 66.9219 61.6035 66.7414 63.3224 66.7172L88.264 66.7144ZM88.264 70.143H63.7354L63.1308 70.1477C62.053 70.1669 61.7229 70.2469 61.3905 70.4247C61.1499 70.5534 60.9815 70.7217 60.8528 70.9623C60.6602 71.3225 60.5824 71.6798 60.5723 72.9881L60.5711 85.4847C60.5711 88.7989 60.7934 89.9496 61.4253 91.1312C61.9275 92.0702 62.6439 92.7867 63.5829 93.2889C64.7645 93.9208 65.9152 94.143 69.2295 94.143H82.77C86.0842 94.143 87.2349 93.9208 88.4165 93.2889C89.3555 92.7867 90.072 92.0702 90.5742 91.1312C91.2061 89.9496 91.4283 88.7989 91.4283 85.4847V73.3073C91.4283 71.7348 91.354 71.3502 91.1466 70.9623C91.0179 70.7217 90.8496 70.5534 90.609 70.4247C90.2765 70.2469 89.9465 70.1669 88.8687 70.1477L88.264 70.143ZM84.5711 73.5716C85.5179 73.5716 86.2854 74.3391 86.2854 75.2859C86.2854 76.2326 85.5179 77.0001 84.5711 77.0001C83.6244 77.0001 82.8569 76.2326 82.8569 75.2859C82.8569 74.3391 83.6244 73.5716 84.5711 73.5716ZM67.4283 73.5716C68.3751 73.5716 69.1426 74.3391 69.1426 75.2859C69.1426 76.2326 68.3751 77.0001 67.4283 77.0001C66.4815 77.0001 65.714 76.2326 65.714 75.2859C65.714 74.3391 66.4815 73.5716 67.4283 73.5716ZM75.9997 56.4287C81.6804 56.4287 86.2854 61.0338 86.2854 66.7144H82.8569C82.8569 62.9273 79.7868 59.8573 75.9997 59.8573C72.2126 59.8573 69.1426 62.9273 69.1426 66.7144H65.714C65.714 61.0338 70.3191 56.4287 75.9997 56.4287Z"
        fill="#792EC0" />
</svg>
