<svg width="26" height="26" viewBox="0 0 26 26" fill="none" xmlns="http://www.w3.org/2000/svg">
    <path
        d="M13 0.166504C20.0877 0.166504 25.8333 5.91218 25.8333 12.9998C25.8333 20.0875 20.0877 25.8332 13 25.8332C5.91234 25.8332 0.166664 20.0875 0.166664 12.9998C0.166664 5.91218 5.91234 0.166504 13 0.166504ZM13 2.2665C7.07214 2.2665 2.26666 7.07198 2.26666 12.9998C2.26666 18.9277 7.07214 23.7332 13 23.7332C18.9279 23.7332 23.7333 18.9277 23.7333 12.9998C23.7333 7.07198 18.9279 2.2665 13 2.2665ZM12.7694 18.3365C13.4777 18.3365 14.0518 18.9107 14.0518 19.619V19.6507C14.0518 20.359 13.4777 20.9332 12.7694 20.9332C12.0611 20.9332 11.4869 20.359 11.4869 19.6507V19.619C11.4869 18.9107 12.0611 18.3365 12.7694 18.3365ZM12.6955 5.7665C14.9909 5.7665 16.85 7.66794 16.85 10.0155C16.85 10.9503 16.4761 11.8001 15.8841 12.4056L14.9493 13.3829C14.3934 13.9594 13.9924 14.4595 13.8233 15.3329C13.8077 15.4134 13.7964 15.5339 13.7893 15.6944C13.7649 16.248 13.309 16.6842 12.755 16.6842C12.1753 16.6842 11.7054 16.2143 11.7054 15.6346L11.7054 15.632C11.7061 15.3358 11.7152 15.1419 11.7326 15.0502C11.8933 14.2037 12.3009 13.4441 12.8721 12.8518L14.16 11.5133C14.5285 11.1379 14.7727 10.5998 14.7727 10.0155C14.7727 8.84705 13.838 7.89102 12.6955 7.89102C11.9695 7.89102 11.3274 8.27703 10.9557 8.85828C10.885 8.96895 10.7966 9.14289 10.6908 9.3801C10.463 9.89024 9.88325 10.1418 9.35515 9.95958C8.83272 9.77933 8.55532 9.20969 8.73557 8.68726C8.74117 8.671 8.7472 8.65489 8.75362 8.63893C8.82906 8.45211 8.90146 8.28728 8.97082 8.14445C9.68423 6.67529 11.0275 5.7665 12.6955 5.7665Z"
        fill="#3F8AE0" />
</svg>
