<svg width="18" height="14" viewBox="0 0 18 14" fill="none" xmlns="http://www.w3.org/2000/svg">
    <path fill-rule="evenodd" clip-rule="evenodd"
        d="M2.99998 3.90001C3.08043 3.90001 3.15841 3.88945 3.23263 3.86965C3.60205 5.04639 4.70133 5.90001 5.99998 5.90001C7.29863 5.90001 8.3979 5.04639 8.76733 3.86964C8.84154 3.88945 8.91952 3.90001 8.99998 3.90001H17C17.497 3.90001 17.9 3.49706 17.9 3.00001C17.9 2.50295 17.497 2.10001 17 2.10001H8.99998C8.91952 2.10001 8.84154 2.11057 8.76733 2.13037C8.3979 0.953621 7.29863 0.100006 5.99998 0.100006C4.70133 0.100006 3.60205 0.953619 3.23263 2.13037C3.15841 2.11056 3.08043 2.10001 2.99998 2.10001H0.999976C0.502919 2.10001 0.0999756 2.50295 0.0999756 3.00001C0.0999756 3.49706 0.502919 3.90001 0.999976 3.90001H2.99998ZM5.99998 1.90001C5.39246 1.90001 4.89998 2.39249 4.89998 3.00001C4.89998 3.60752 5.39246 4.10001 5.99998 4.10001C6.60749 4.10001 7.09998 3.60752 7.09998 3.00001C7.09998 2.39249 6.60749 1.90001 5.99998 1.90001Z"
        fill="#3F8AE0" />
    <path fill-rule="evenodd" clip-rule="evenodd"
        d="M0.0999756 11C0.0999756 10.5029 0.502919 10.1 0.999976 10.1H8.99998C9.08043 10.1 9.15841 10.1106 9.23263 10.1304C9.60205 8.95362 10.7013 8.10001 12 8.10001C13.2986 8.10001 14.3979 8.95362 14.7673 10.1304C14.8415 10.1106 14.9195 10.1 15 10.1H17C17.497 10.1 17.9 10.5029 17.9 11C17.9 11.4971 17.497 11.9 17 11.9H15C14.9195 11.9 14.8415 11.8894 14.7673 11.8696C14.3979 13.0464 13.2986 13.9 12 13.9C10.7013 13.9 9.60205 13.0464 9.23263 11.8696C9.15841 11.8894 9.08043 11.9 8.99998 11.9H0.999976C0.502919 11.9 0.0999756 11.4971 0.0999756 11ZM10.9 11C10.9 10.3925 11.3925 9.90001 12 9.90001C12.6075 9.90001 13.1 10.3925 13.1 11C13.1 11.6075 12.6075 12.1 12 12.1C11.3925 12.1 10.9 11.6075 10.9 11Z"
        fill="#3F8AE0" />
</svg>
