<svg width="191" height="142" viewBox="0 0 191 142" fill="none" xmlns="http://www.w3.org/2000/svg">
    <g clip-path="url(#clip0)">
        <path
            d="M80.8999 57.8C75.1999 54.5 74.7999 46.7 78.0999 41L78.3999 39.6H104L96.8999 51.9C93.4999 57.6 86.5999 61.1 80.8999 57.8Z"
            fill="#5065A7" />
        <path
            d="M113.5 1.3C119.2 4.6 119.6 12.4 116.3 18.1L115.6 19.5H90.3999L97.4999 7.2C100.8 1.5 107.8 -2 113.5 1.3Z"
            fill="#5576AA" />
        <path
            d="M115.5 19.5L96.9 51.9C94.5 56 90.1 59 85.8 59L108.7 59.1C112.2 59.1 115.4 57.3 117.1 54.2L126.2 38.5L115.5 19.5Z"
            fill="#9FD0DB" />
        <path
            d="M65.9 34.4C64.2 31.4 64.2 27.7 65.9 24.7L77.4 4.9C79.1 1.9 82.4 0 85.8 0L108.7 0.1C104.3 0.2 100 3.1 97.6 7.3L78.1 41C75.7 45.2 75.3 50.4 77.4 54.2L65.9 34.4Z"
            fill="#6EABE1" />
        <path d="M30 138.9V132.4H30.7V137.8L34.4 132.4H35.1V138.9H34.4V133.4L30.7 138.9H30Z"
            fill="#5065A7" />
        <path
            d="M39.6001 138.9V132.4H40.3001V135.2H44.0001V132.4H44.7001V138.9H44.0001V135.8H40.3001V138.9H39.6001Z"
            fill="#5065A7" />
        <path d="M50.4 138.9V133H48.5V132.4H53V133H51.1V138.9H50.4Z" fill="#5065A7" />
        <path
            d="M56.5 135.7C56.5 133.8 57.8 132.3 59.6 132.3C61.6 132.3 62.7 133.9 62.7 135.7V135.9H57.3C57.4 137.3 58.3 138.5 59.8 138.5C60.6 138.5 61.4 138.2 61.9 137.6L62.3 138.1C61.7 138.8 60.8 139.1 59.8 139.1C57.9 139.1 56.5 137.7 56.5 135.7ZM59.7 132.9C58.2 132.9 57.4 134.2 57.3 135.4H62C62 134.2 61.3 132.9 59.7 132.9Z"
            fill="#5065A7" />
        <path
            d="M67.5999 137.9V141.4H66.8999V132.4H67.5999V133.4C68.0999 132.7 68.8999 132.2 69.8999 132.2C71.5999 132.2 72.7999 133.5 72.7999 135.6C72.7999 137.7 71.5999 139 69.8999 139C68.9999 139.1 68.0999 138.6 67.5999 137.9ZM71.9999 135.7C71.9999 134.1 71.1999 132.9 69.6999 132.9C68.7999 132.9 67.8999 133.4 67.5999 134.1V137.3C67.9999 137.9 68.7999 138.5 69.6999 138.5C71.1999 138.5 71.9999 137.2 71.9999 135.7Z"
            fill="#5065A7" />
        <path
            d="M76.8999 138.9V132.4H77.5999V135.2H81.2999V132.4H81.9999V138.9H81.2999V135.8H77.5999V138.9H76.8999Z"
            fill="#5065A7" />
        <path
            d="M86.2 135.7C86.2 133.8 87.5 132.3 89.3 132.3C91.3 132.3 92.4 133.9 92.4 135.7V135.9H87C87.1 137.3 88 138.5 89.5 138.5C90.3 138.5 91.1 138.2 91.6 137.6L92 138C91.4 138.7 90.5 139 89.5 139C87.6 139.1 86.2 137.7 86.2 135.7ZM89.3 132.9C87.8 132.9 87 134.2 86.9 135.4H91.6C91.7 134.2 91 132.9 89.3 132.9Z"
            fill="#5065A7" />
        <path d="M97.7999 138.9V133H95.8999V132.4H100.4V133H98.4999V138.9H97.7999Z"
            fill="#5065A7" />
        <path
            d="M114.2 138.9V138.1C113.6 138.7 112.9 139 112 139C110.9 139 109.7 138.2 109.7 136.8C109.7 135.4 110.8 134.6 112 134.6C112.9 134.6 113.6 134.9 114.2 135.5V134.2C114.2 133.2 113.4 132.7 112.5 132.7C111.7 132.7 111.1 133 110.5 133.7L110.1 133.2C110.8 132.5 111.5 132.1 112.6 132.1C113.9 132.1 115 132.7 115 134.2V138.8H114.2V138.9ZM114.2 137.6V136.2C113.7 135.6 113 135.3 112.2 135.3C111.1 135.3 110.4 136 110.4 136.9C110.4 137.8 111.1 138.5 112.2 138.5C113.1 138.5 113.8 138.2 114.2 137.6Z"
            fill="#5065A7" />
        <path d="M123.9 138.9V133H120.2V138.9H119.5V132.4H124.6V138.9H123.9Z" fill="#5065A7" />
        <path d="M130.3 138.9V133H128.4V132.4H132.9V133H131V138.9H130.3Z" fill="#5065A7" />
        <path
            d="M136.4 135.7C136.4 133.8 137.7 132.3 139.5 132.3C141.5 132.3 142.6 133.9 142.6 135.7V135.9H137.2C137.3 137.3 138.2 138.5 139.7 138.5C140.5 138.5 141.3 138.2 141.8 137.6L142.2 138.1C141.6 138.8 140.7 139.1 139.7 139.1C137.8 139.1 136.4 137.7 136.4 135.7ZM139.5 132.9C138 132.9 137.2 134.2 137.1 135.4H141.8C141.9 134.2 141.2 132.9 139.5 132.9Z"
            fill="#5065A7" />
        <path
            d="M151.3 138.9L148.7 135.8L147.5 136.9V138.9H146.8V132.4H147.5V136.1L151.3 132.4H152.2L149.2 135.3L152.2 138.9H151.3Z"
            fill="#5065A7" />
        <path
            d="M160.1 138.9V138.1C159.5 138.7 158.8 139 157.9 139C156.8 139 155.6 138.2 155.6 136.8C155.6 135.4 156.7 134.6 157.9 134.6C158.8 134.6 159.5 134.9 160.1 135.5V134.2C160.1 133.2 159.3 132.7 158.4 132.7C157.6 132.7 157 133 156.4 133.7L156 133.2C156.7 132.5 157.4 132.1 158.5 132.1C159.8 132.1 160.9 132.7 160.9 134.2V138.8H160.1V138.9ZM160.1 137.6V136.2C159.6 135.6 158.9 135.3 158.1 135.3C157 135.3 156.3 136 156.3 136.9C156.3 137.8 157 138.5 158.1 138.5C158.9 138.5 159.7 138.2 160.1 137.6Z"
            fill="#5065A7" />
        <path
            d="M31.9 101.3V103.7C31.9 108.1 30.5 111.7 27.6 114.5C24.7 117.3 21.1 118.6 16.6 118.6C11.8 118.6 7.8 117 4.7 113.9C1.5 110.7 0 106.9 0 102.4C0 98 1.6 94.2 4.7 91C7.9 87.8 11.7 86.3 16.3 86.3C22.1 86.3 27.2 89.1 29.8 93.5L24.6 96.5C23.1 94 19.9 92.2 16.3 92.2C13.3 92.2 10.9 93.2 9 95.1C7.1 97 6.2 99.5 6.2 102.4C6.2 105.3 7.2 107.8 9.1 109.7C11.1 111.6 13.6 112.5 16.8 112.5C21.6 112.5 24.7 110.3 25.9 106.6H16.5V101.2H31.9V101.3Z"
            fill="#6EABE1" />
        <path
            d="M46.5999 118.6C43.2999 118.6 40.4999 117.5 38.2999 115.2C36.0999 112.9 34.8999 110.1 34.8999 106.9C34.8999 103.7 35.9999 100.9 38.2999 98.6001C40.5999 96.3001 43.3999 95.2001 46.5999 95.2001C49.8999 95.2001 52.6999 96.4001 54.8999 98.6001C57.0999 100.8 58.2999 103.6 58.2999 106.9C58.2999 110.2 57.0999 113 54.8999 115.2C52.6999 117.4 49.8999 118.6 46.5999 118.6ZM46.5999 113C48.2999 113 49.7999 112.4 50.8999 111.3C51.9999 110.2 52.5999 108.7 52.5999 106.9C52.5999 105.1 51.9999 103.7 50.8999 102.5C49.6999 101.3 48.2999 100.8 46.5999 100.8C44.8999 100.8 43.3999 101.4 42.2999 102.5C41.1999 103.7 40.5999 105.1 40.5999 106.9C40.5999 108.7 41.1999 110.1 42.2999 111.3C43.3999 112.4 44.8999 113 46.5999 113Z"
            fill="#6EABE1" />
        <path
            d="M74.2001 86.9C77.2001 86.9 79.7001 87.9 81.7001 89.9C83.7001 91.9 84.8001 94.4 84.8001 97.3C84.8001 100.2 83.8001 102.7 81.7001 104.7C79.7001 106.7 77.1001 107.7 74.2001 107.7H68.7001V118H62.6001V86.9H74.2001ZM74.2001 102.1C76.8001 102.1 78.7001 100.1 78.7001 97.4C78.7001 94.7 76.8001 92.7 74.2001 92.7H68.7001V102.1H74.2001Z"
            fill="#5065A7" />
        <path
            d="M106.9 97.6C108.5 99.2 109.3 101.5 109.3 104.3V118H103.6V105.1C103.6 102.1 101.9 100.5 99.2001 100.5C96.2001 100.5 94.3001 102.3 94.3001 106V118H88.6001V86.9H94.3001V98.3C95.7001 96.2 97.9001 95.2 100.9 95.2C103.4 95.2 105.4 96 106.9 97.6Z"
            fill="#5065A7" />
        <path
            d="M131.1 95.8001H136.8V118H131.1V115.4C129.4 117.6 127 118.6 123.9 118.6C120.9 118.6 118.4 117.5 116.3 115.2C114.2 112.9 113.1 110.1 113.1 106.9C113.1 103.7 114.2 100.9 116.3 98.6001C118.4 96.3001 121 95.2001 123.9 95.2001C127 95.2001 129.4 96.3001 131.1 98.4001V95.8001ZM124.9 113.2C126.7 113.2 128.1 112.6 129.3 111.5C130.5 110.3 131.1 108.8 131.1 107C131.1 105.2 130.5 103.7 129.3 102.5C128.1 101.3 126.7 100.7 124.9 100.7C123.1 100.7 121.7 101.3 120.5 102.5C119.3 103.7 118.8 105.2 118.8 107C118.8 108.8 119.4 110.3 120.5 111.5C121.7 112.6 123.1 113.2 124.9 113.2Z"
            fill="#5065A7" />
        <path
            d="M147.7 99.6C148.8 96.8 151.4 95.3 154.4 95.3V101.7C152.7 101.5 151.1 101.8 149.7 102.8C148.3 103.7 147.7 105.2 147.7 107.4V118H142V95.8H147.7V99.6Z"
            fill="#5065A7" />
        <path
            d="M190.8 104.3V118H185V104.7C185 102 183.6 100.5 181.3 100.5C178.7 100.5 177.2 102.3 177.2 105.5V118H171.5V104.7C171.5 102 170.1 100.5 167.8 100.5C165.3 100.5 163.6 102.3 163.6 105.5V118H157.9V95.8001H163.6V98.2001C164.9 96.2001 167 95.2001 169.8 95.2001C172.5 95.2001 174.6 96.3001 175.8 98.4001C177.3 96.3001 179.5 95.2001 182.4 95.2001C187.5 95.2001 190.8 98.8001 190.8 104.3Z"
            fill="#5065A7" />
    </g>
    <defs>
        <clipPath id="clip0">
            <rect width="190.8" height="141.4" fill="white" />
        </clipPath>
    </defs>
</svg>
