<svg width="153" height="154" viewBox="0 0 153 154" fill="none" xmlns="http://www.w3.org/2000/svg">
    <path opacity="0.2" fill-rule="evenodd" clip-rule="evenodd"
        d="M80.4687 21.9015C89.6846 20.8288 97.4632 27.9439 105.744 32.1195C115.047 36.8104 130.206 37.6366 131.994 47.8826C133.968 59.1948 116.838 65.1238 113.418 76.0874C110.84 84.3515 117.726 93.1545 115.282 101.459C112.084 112.321 107.952 124.982 97.6359 129.696C87.3606 134.391 75.2745 128.812 64.8271 124.512C55.1711 120.537 47.6422 113.501 40.2948 106.094C32.453 98.1873 19.4673 91.0089 20.6247 79.9457C21.8609 68.128 37.637 64.3111 45.5908 55.4681C50.6379 49.8568 53.28 42.8271 58.7187 37.5928C65.2912 31.2675 71.3986 22.9571 80.4687 21.9015Z"
        stroke="#5AC8FA" />
    <path opacity="0.08" fill-rule="evenodd" clip-rule="evenodd"
        d="M32.6233 43.4605C36.7263 35.139 46.9247 32.47 54.9273 27.7831C63.9177 22.5178 72.8419 10.2368 82.4171 14.2982C92.9886 18.7822 88.6665 36.3867 96.0165 45.2115C101.557 51.8633 112.688 50.8601 118.334 57.4219C125.72 66.0052 134.109 76.3488 132.466 87.5716C130.829 98.7495 119.582 105.87 110.299 112.308C101.718 118.259 91.7221 120.762 81.512 122.91C70.6149 125.202 57.536 132.209 48.874 125.231C39.6211 117.776 44.9816 102.456 41.8741 90.9748C39.9022 83.6898 35.4335 77.6543 33.991 70.245C32.2477 61.2914 28.5851 51.6504 32.6233 43.4605Z"
        fill="#5AC8FA" />
    <path
        d="M65.8108 100.493C61.1314 97.7837 60.803 91.3803 63.5121 86.7009L63.7584 85.5515H84.7749L78.9461 95.6493C76.1548 100.329 70.4903 103.202 65.8108 100.493Z"
        fill="#5065A7" />
    <path
        d="M92.5739 54.1088C97.2533 56.8179 97.5817 63.2214 94.8726 67.9008L94.2979 69.0502H73.6099L79.4386 58.9524C82.1478 54.273 87.8945 51.3996 92.5739 54.1088Z"
        fill="#5576AA" />
    <path
        d="M94.2158 69.0503L78.9461 95.6492C76.9758 99.0151 73.3636 101.478 69.8335 101.478L88.6333 101.56C91.5067 101.56 94.1337 100.082 95.5294 97.5374L103 84.6484L94.2158 69.0503Z"
        fill="#9FD0DB" />
    <path
        d="M53.4964 81.2826C52.1008 78.8197 52.1008 75.7822 53.4964 73.3193L62.9374 57.0644C64.333 54.6016 67.0422 53.0417 69.8334 53.0417L88.6333 53.1238C85.0211 53.2059 81.491 55.5867 79.5207 59.0347L63.5121 86.7009C61.5418 90.1489 61.2134 94.4179 62.9374 97.5375L53.4964 81.2826Z"
        fill="#6EABE1" />
</svg>
