<svg width="192" height="46" viewBox="0 0 192 46" fill="none" xmlns="http://www.w3.org/2000/svg">
    <path
        d="M32.2252 15.2016V17.6016C32.2252 22.0016 30.8252 25.6016 27.9252 28.4016C25.0252 31.2016 21.4252 32.5016 16.9252 32.5016C12.1252 32.5016 8.12519 30.9016 5.02519 27.8016C1.82519 24.6016 0.325195 20.8016 0.325195 16.3016C0.325195 11.8016 1.92519 8.00156 5.02519 4.80156C8.22519 1.60156 12.0252 0.101562 16.6252 0.101562C22.4252 0.101562 27.5252 2.90156 30.1252 7.30156L24.9252 10.3016C23.4252 7.80156 20.2252 6.00156 16.6252 6.00156C13.6252 6.00156 11.2252 7.00156 9.3252 8.90156C7.4252 10.8016 6.52519 13.3016 6.52519 16.2016C6.52519 19.1016 7.52519 21.6016 9.42519 23.5016C11.4252 25.4016 13.9252 26.3016 17.1252 26.3016C21.9252 26.3016 25.0252 24.1016 26.2252 20.4016H16.8252V15.0016H32.2252V15.2016Z"
        fill="#6EABE1" />
    <path
        d="M46.9251 32.5016C43.6251 32.5016 40.8251 31.4016 38.6251 29.1016C36.4251 26.8016 35.2251 24.0016 35.2251 20.8016C35.2251 17.6016 36.3251 14.8016 38.6251 12.5016C40.9251 10.2016 43.7251 9.10156 46.9251 9.10156C50.2251 9.10156 53.0251 10.3016 55.2251 12.5016C57.4251 14.7016 58.6251 17.5016 58.6251 20.8016C58.6251 24.1016 57.4251 26.9016 55.2251 29.1016C53.0251 31.3016 50.2251 32.5016 46.9251 32.5016ZM46.9251 26.9016C48.6251 26.9016 50.1251 26.3016 51.2251 25.2016C52.3251 24.1016 52.9251 22.6016 52.9251 20.8016C52.9251 19.0016 52.3251 17.6016 51.2251 16.4016C50.0251 15.2016 48.6251 14.7016 46.9251 14.7016C45.2251 14.7016 43.7251 15.3016 42.6251 16.4016C41.5251 17.6016 40.9251 19.0016 40.9251 20.8016C40.9251 22.6016 41.5251 24.0016 42.6251 25.2016C43.7251 26.4016 45.2251 26.9016 46.9251 26.9016Z"
        fill="#6EABE1" />
    <path
        d="M74.6254 0.800781C77.6254 0.800781 80.1254 1.80078 82.1254 3.80078C84.1254 5.80078 85.2254 8.30078 85.2254 11.2008C85.2254 14.1008 84.2254 16.6008 82.1254 18.6008C80.1254 20.6008 77.5254 21.6008 74.6254 21.6008H69.1254V31.8008H63.0254V0.800781H74.6254ZM74.6254 16.0008C77.2254 16.0008 79.1254 14.0008 79.1254 11.3008C79.1254 8.60078 77.2254 6.60078 74.6254 6.60078H69.1254V16.0008H74.6254Z"
        fill="#5065A7" />
    <path
        d="M107.325 11.5008C108.925 13.1008 109.725 15.4008 109.725 18.2008V31.8008H103.925V19.0008C103.925 16.0008 102.225 14.4008 99.5253 14.4008C96.5253 14.4008 94.6253 16.2008 94.6253 19.9008V31.9008H88.9253V0.800781H94.6253V12.2008C96.0253 10.1008 98.2253 9.10078 101.225 9.10078C103.725 9.10078 105.725 9.90078 107.325 11.5008Z"
        fill="#5065A7" />
    <path
        d="M131.425 9.70156H137.125V31.9016H131.425V29.3016C129.725 31.5016 127.325 32.5016 124.225 32.5016C121.225 32.5016 118.725 31.4016 116.625 29.1016C114.525 26.8016 113.425 24.0016 113.425 20.8016C113.425 17.6016 114.525 14.8016 116.625 12.5016C118.725 10.2016 121.325 9.10156 124.225 9.10156C127.325 9.10156 129.725 10.2016 131.425 12.3016V9.70156ZM125.225 27.1016C127.025 27.1016 128.425 26.5016 129.625 25.4016C130.825 24.2016 131.425 22.7016 131.425 20.9016C131.425 19.1016 130.825 17.6016 129.625 16.4016C128.425 15.2016 127.025 14.6016 125.225 14.6016C123.425 14.6016 122.025 15.2016 120.825 16.4016C119.625 17.6016 119.125 19.1016 119.125 20.9016C119.125 22.7016 119.725 24.2016 120.825 25.4016C122.025 26.5016 123.525 27.1016 125.225 27.1016Z"
        fill="#5065A7" />
    <path
        d="M148.125 13.5031C149.225 10.7031 151.825 9.20312 154.825 9.20312V15.6031C153.125 15.4031 151.525 15.7031 150.125 16.7031C148.725 17.6031 148.125 19.1031 148.125 21.3031V31.9031H142.425V9.70312H148.125V13.5031Z"
        fill="#5065A7" />
    <path
        d="M191.125 18.2016V31.9016H185.425V18.6016C185.425 15.9016 184.025 14.4016 181.725 14.4016C179.125 14.4016 177.625 16.2016 177.625 19.4016V31.9016H171.925V18.6016C171.925 15.9016 170.525 14.4016 168.225 14.4016C165.725 14.4016 164.025 16.2016 164.025 19.4016V31.9016H158.325V9.70156H164.025V12.1016C165.325 10.1016 167.425 9.10156 170.225 9.10156C172.925 9.10156 175.025 10.2016 176.225 12.3016C177.725 10.2016 179.925 9.10156 182.825 9.10156C187.825 9.10156 191.125 12.7016 191.125 18.2016Z"
        fill="#5065A7" />
    <path
        d="M93.0552 36.7383H93.9615V42.0391H93.0552V38.1737L90.6105 42.0391H89.7042V36.7383H90.6105V40.6085L93.0552 36.7383ZM99.7473 42.0391H98.841V39.7757H96.4061V42.0391H95.4949V36.7383H96.4061V39.0359H98.841V36.7383H99.7473V42.0391ZM105.146 37.4731H103.368V42.0391H102.461V37.4731H100.717V36.7383H105.146V37.4731ZM107.836 42.137C107.117 42.137 106.533 41.9019 106.082 41.4316C105.631 40.958 105.406 40.326 105.406 39.5356V39.3691C105.406 38.8432 105.505 38.3746 105.705 37.963C105.907 37.5482 106.188 37.2249 106.547 36.993C106.91 36.7579 107.302 36.6403 107.723 36.6403C108.412 36.6403 108.948 36.8673 109.33 37.3213C109.712 37.7752 109.903 38.4252 109.903 39.2711V39.6483H106.312C106.325 40.1709 106.477 40.5938 106.768 40.9172C107.062 41.2372 107.434 41.3973 107.885 41.3973C108.205 41.3973 108.476 41.332 108.698 41.2013C108.92 41.0707 109.114 40.8976 109.281 40.682L109.834 41.1131C109.39 41.7957 108.724 42.137 107.836 42.137ZM107.723 37.3849C107.357 37.3849 107.05 37.5189 106.802 37.7867C106.554 38.0512 106.4 38.4235 106.341 38.9037H108.997V38.8351C108.971 38.3746 108.847 38.0186 108.624 37.7671C108.402 37.5123 108.102 37.3849 107.723 37.3849ZM115.434 39.4475C115.434 40.2542 115.25 40.9041 114.881 41.3973C114.511 41.8905 114.012 42.137 113.381 42.137C112.738 42.137 112.232 41.9329 111.863 41.5247V44.0771H110.956V36.7383H111.784L111.828 37.3262C112.197 36.8689 112.71 36.6403 113.367 36.6403C114.004 36.6403 114.507 36.8803 114.876 37.3604C115.248 37.8406 115.434 38.5085 115.434 39.3642V39.4475ZM114.528 39.3446C114.528 38.7469 114.4 38.2749 114.146 37.9287C113.891 37.5825 113.541 37.4094 113.097 37.4094C112.549 37.4094 112.137 37.6528 111.863 38.1394V40.6722C112.134 41.1556 112.549 41.3973 113.107 41.3973C113.541 41.3973 113.886 41.2258 114.141 40.8829C114.399 40.5367 114.528 40.0239 114.528 39.3446ZM120.921 42.0391H120.015V39.7757H117.58V42.0391H116.669V36.7383H117.58V39.0359H120.015V36.7383H120.921V42.0391ZM124.581 42.137C123.862 42.137 123.278 41.9019 122.827 41.4316C122.376 40.958 122.151 40.326 122.151 39.5356V39.3691C122.151 38.8432 122.25 38.3746 122.45 37.963C122.652 37.5482 122.933 37.2249 123.292 36.993C123.655 36.7579 124.047 36.6403 124.468 36.6403C125.157 36.6403 125.693 36.8673 126.075 37.3213C126.457 37.7752 126.648 38.4252 126.648 39.2711V39.6483H123.057C123.07 40.1709 123.222 40.5938 123.513 40.9172C123.807 41.2372 124.179 41.3973 124.63 41.3973C124.95 41.3973 125.221 41.332 125.443 41.2013C125.665 41.0707 125.859 40.8976 126.026 40.682L126.58 41.1131C126.135 41.7957 125.469 42.137 124.581 42.137ZM124.468 37.3849C124.102 37.3849 123.795 37.5189 123.547 37.7867C123.299 38.0512 123.145 38.4235 123.086 38.9037H125.742V38.8351C125.716 38.3746 125.592 38.0186 125.369 37.7671C125.147 37.5123 124.847 37.3849 124.468 37.3849ZM131.581 37.4731H129.803V42.0391H128.897V37.4731H127.153V36.7383H131.581V37.4731ZM138.225 42.0391C138.172 41.9345 138.13 41.7484 138.097 41.4806C137.676 41.9182 137.173 42.137 136.588 42.137C136.066 42.137 135.636 41.9901 135.3 41.6961C134.967 41.3989 134.8 41.0233 134.8 40.5693C134.8 40.0174 135.009 39.5895 135.427 39.2858C135.849 38.9788 136.44 38.8253 137.201 38.8253H138.083V38.4088C138.083 38.092 137.988 37.8406 137.798 37.6544C137.609 37.465 137.33 37.3702 136.961 37.3702C136.637 37.3702 136.366 37.4519 136.147 37.6152C135.929 37.7785 135.819 37.9761 135.819 38.208H134.908C134.908 37.9434 135.001 37.6887 135.187 37.4437C135.377 37.1955 135.631 36.9995 135.951 36.8558C136.275 36.7121 136.629 36.6403 137.015 36.6403C137.625 36.6403 138.104 36.7938 138.45 37.1008C138.796 37.4045 138.976 37.8242 138.989 38.3599V40.7996C138.989 41.2862 139.051 41.6733 139.175 41.9607V42.0391H138.225ZM136.721 41.3483C137.005 41.3483 137.274 41.2748 137.529 41.1278C137.784 40.9809 137.968 40.7898 138.083 40.5546V39.467H137.372C136.262 39.467 135.706 39.792 135.706 40.442C135.706 40.7261 135.801 40.9482 135.991 41.1082C136.18 41.2683 136.423 41.3483 136.721 41.3483ZM144.745 42.0391H143.839V37.4878H141.399V42.0391H140.488V36.7383H144.745V42.0391ZM150.139 37.4731H148.361V42.0391H147.454V37.4731H145.71V36.7383H150.139V37.4731ZM152.829 42.137C152.11 42.137 151.526 41.9019 151.075 41.4316C150.624 40.958 150.399 40.326 150.399 39.5356V39.3691C150.399 38.8432 150.498 38.3746 150.698 37.963C150.9 37.5482 151.181 37.2249 151.54 36.993C151.903 36.7579 152.295 36.6403 152.716 36.6403C153.405 36.6403 153.941 36.8673 154.323 37.3213C154.705 37.7752 154.896 38.4252 154.896 39.2711V39.6483H151.305C151.318 40.1709 151.47 40.5938 151.761 40.9172C152.055 41.2372 152.427 41.3973 152.878 41.3973C153.198 41.3973 153.469 41.332 153.691 41.2013C153.913 41.0707 154.107 40.8976 154.274 40.682L154.828 41.1131C154.383 41.7957 153.717 42.137 152.829 42.137ZM152.716 37.3849C152.35 37.3849 152.043 37.5189 151.795 37.7867C151.547 38.0512 151.393 38.4235 151.335 38.9037H153.99V38.8351C153.964 38.3746 153.84 38.0186 153.617 37.7671C153.395 37.5123 153.095 37.3849 152.716 37.3849ZM157.6 39.7806H156.939V42.0391H156.028V36.7383H156.939V38.982H157.532L159.315 36.7383H160.413L158.316 39.2858L160.589 42.0391H159.438L157.6 39.7806ZM164.64 42.0391C164.588 41.9345 164.546 41.7484 164.513 41.4806C164.092 41.9182 163.589 42.137 163.004 42.137C162.482 42.137 162.052 41.9901 161.716 41.6961C161.383 41.3989 161.216 41.0233 161.216 40.5693C161.216 40.0174 161.425 39.5895 161.843 39.2858C162.264 38.9788 162.856 38.8253 163.617 38.8253H164.498V38.4088C164.498 38.092 164.404 37.8406 164.214 37.6544C164.025 37.465 163.746 37.3702 163.376 37.3702C163.053 37.3702 162.782 37.4519 162.563 37.6152C162.344 37.7785 162.235 37.9761 162.235 38.208H161.324C161.324 37.9434 161.417 37.6887 161.603 37.4437C161.792 37.1955 162.047 36.9995 162.367 36.8558C162.691 36.7121 163.045 36.6403 163.43 36.6403C164.041 36.6403 164.52 36.7938 164.866 37.1008C165.212 37.4045 165.392 37.8242 165.405 38.3599V40.7996C165.405 41.2862 165.467 41.6733 165.591 41.9607V42.0391H164.64ZM163.136 41.3483C163.421 41.3483 163.69 41.2748 163.945 41.1278C164.199 40.9809 164.384 40.7898 164.498 40.5546V39.467H163.788C162.678 39.467 162.122 39.792 162.122 40.442C162.122 40.7261 162.217 40.9482 162.406 41.1082C162.596 41.2683 162.839 41.3483 163.136 41.3483Z"
        fill="#5065A7" />
</svg>
