<svg width="188" height="18" viewBox="0 0 188 18" fill="none" xmlns="http://www.w3.org/2000/svg">
    <path fill-rule="evenodd" clip-rule="evenodd"
        d="M17.726 10.3219C17.726 14.475 14.5486 18 9.17417 18C3.79978 18 0 13.9687 0 9C0 4.03125 3.79978 0 9.17417 0C12.4459 0 15.3029 1.71563 16.7455 4.275L15.1991 5.16562C14.1243 3.075 11.7954 1.6875 9.17417 1.6875C4.75209 1.6875 1.75375 4.94062 1.75375 8.99062C1.75375 13.0406 4.75209 16.3031 9.17417 16.3031C13.2474 16.3031 15.5952 13.9687 15.9252 11.0531H8.97617V9.4125H17.726V10.3219V10.3219Z"
        fill="#3F8AE0" />
    <path fill-rule="evenodd" clip-rule="evenodd"
        d="M29.8793 10.7436H24.9764V17.6998H23.2227V0.299805H30.2188C33.1134 0.299805 35.4706 2.63418 35.4706 5.52168C35.4706 7.88418 33.8677 9.89981 31.6991 10.5186L35.9703 17.6998H33.9714L29.8793 10.7436ZM24.9764 9.10293H30.2282C32.1517 9.10293 33.7263 7.49043 33.7263 5.52168C33.7263 3.53418 32.1517 1.94043 30.2282 1.94043H24.9764V9.10293V9.10293Z"
        fill="#3F8AE0" />
    <path fill-rule="evenodd" clip-rule="evenodd"
        d="M50.9995 13.4248H42.7022L41.0805 17.6998H39.2324L45.9551 0.299805H47.756L54.4787 17.6998H52.6307L50.9995 13.4248ZM50.3772 11.7842L46.8509 2.46543L43.3245 11.7842H50.3772Z"
        fill="#3F8AE0" />
    <path fill-rule="evenodd" clip-rule="evenodd"
        d="M72.2347 0.299805V17.6998H70.7355L60.9862 3.53418V17.6998H59.2324V0.299805H60.7316L70.4809 14.4748V0.299805H72.2347Z"
        fill="#3F8AE0" />
    <path fill-rule="evenodd" clip-rule="evenodd"
        d="M93.7316 8.9998C93.7316 13.7998 90.309 17.6998 85.4815 17.6998H78.7305V0.299805H85.4815C90.309 0.299805 93.7316 4.20918 93.7316 8.9998ZM92.0345 8.9998C92.0345 5.0998 89.385 1.94043 85.4815 1.94043H80.4842V16.0592H85.4815C89.385 16.0592 92.0345 12.9092 92.0345 8.9998Z"
        fill="#3F8AE0" />
    <path fill-rule="evenodd" clip-rule="evenodd"
        d="M110.986 5.7748C110.986 8.87793 108.639 11.2404 105.49 11.2404H100.992V17.6998H99.2383V0.299805H105.49C108.639 0.299805 110.986 2.64355 110.986 5.7748ZM109.242 5.7748C109.242 3.53418 107.668 1.9498 105.49 1.9498H100.992V9.60918H105.49C107.658 9.5998 109.242 7.9873 109.242 5.7748Z"
        fill="#3F8AE0" />
    <path fill-rule="evenodd" clip-rule="evenodd"
        d="M129.494 0.299805V17.6998H127.741V9.57168H118.237V17.6998H116.492V0.299805H118.237V7.93106H127.741V0.299805H129.494Z"
        fill="#3F8AE0" />
    <path fill-rule="evenodd" clip-rule="evenodd"
        d="M146.013 13.4248H137.716L136.094 17.6998H134.246L140.969 0.299805H142.77L149.492 17.6998H147.644L146.013 13.4248ZM145.391 11.7842L141.865 2.46543L138.338 11.7842H145.391Z"
        fill="#3F8AE0" />
    <path fill-rule="evenodd" clip-rule="evenodd"
        d="M160.893 10.7436H155.99V17.6998H154.236V0.299805H161.232C164.136 0.299805 166.484 2.63418 166.484 5.52168C166.484 7.88418 164.881 9.89981 162.713 10.5186L166.984 17.6998H164.985L160.893 10.7436ZM156 9.10293H161.251C163.175 9.10293 164.749 7.49043 164.749 5.52168C164.749 3.53418 163.175 1.94043 161.251 1.94043H156V9.10293Z"
        fill="#3F8AE0" />
    <path fill-rule="evenodd" clip-rule="evenodd"
        d="M188.001 17.6998H186.247V2.93418L180.128 13.1248H179.873L173.754 2.93418V17.6998H172V0.299805H174.178L179.996 9.99355L185.823 0.299805H188.001V17.6998Z"
        fill="#3F8AE0" />
</svg>
