<svg width="20" height="22" viewBox="0 0 20 22" fill="none" xmlns="http://www.w3.org/2000/svg">
<path d="M16.1321 5.85721C17.2784 5.85721 17.694 5.97656 18.1131 6.20067C18.5321 6.42478 18.861 6.75365 19.0851 7.1727L19.1642 7.33111C19.3372 7.70707 19.4286 8.15068 19.4286 9.15364V15.2423L19.424 15.7406C19.3908 17.4708 19.1755 18.1698 18.7989 18.8741C18.388 19.6423 17.7851 20.2452 17.0168 20.6561C16.2486 21.067 15.4866 21.2858 13.3851 21.2858H6.61487L6.11664 21.2812C4.38638 21.248 3.68738 21.0327 2.98315 20.6561C2.21489 20.2452 1.61196 19.6423 1.2011 18.8741C0.807349 18.1378 0.589993 17.4073 0.572564 15.4981L0.571426 9.15364C0.571426 8.0074 0.690774 7.59174 0.914883 7.1727C1.13899 6.75365 1.46786 6.42478 1.88691 6.20067L2.04533 6.12157C2.39443 5.96094 2.80186 5.87068 3.66131 5.85861L16.1321 5.85721ZM16.1321 7.5715H3.86785L3.56551 7.57386C3.02662 7.58347 2.86159 7.62345 2.69537 7.71235C2.57506 7.77669 2.4909 7.86085 2.42656 7.98115C2.33026 8.16123 2.29136 8.3399 2.28629 8.99403L2.28571 15.2423C2.28571 16.8995 2.39682 17.4748 2.71278 18.0656C2.96387 18.5351 3.32209 18.8933 3.7916 19.1444C4.3824 19.4604 4.95774 19.5715 6.61487 19.5715H13.3851C15.0423 19.5715 15.6176 19.4604 16.2084 19.1444C16.6779 18.8933 17.0361 18.5351 17.2872 18.0656C17.6032 17.4748 17.7143 16.8995 17.7143 15.2423V9.15364C17.7143 8.36738 17.6771 8.17508 17.5734 7.98115C17.5091 7.86085 17.4249 7.77669 17.3046 7.71235C17.1384 7.62345 16.9734 7.58347 16.4345 7.57386L16.1321 7.5715ZM14.2857 9.28578C14.7591 9.28578 15.1429 9.66954 15.1429 10.1429C15.1429 10.6163 14.7591 11.0001 14.2857 11.0001C13.8123 11.0001 13.4286 10.6163 13.4286 10.1429C13.4286 9.66954 13.8123 9.28578 14.2857 9.28578ZM5.71428 9.28578C6.18767 9.28578 6.57143 9.66954 6.57143 10.1429C6.57143 10.6163 6.18767 11.0001 5.71428 11.0001C5.2409 11.0001 4.85714 10.6163 4.85714 10.1429C4.85714 9.66954 5.2409 9.28578 5.71428 9.28578ZM10 0.714355C12.8403 0.714355 15.1429 3.01689 15.1429 5.85721H13.4286C13.4286 3.96366 11.8935 2.42864 10 2.42864C8.10645 2.42864 6.57143 3.96366 6.57143 5.85721H4.85714C4.85714 3.01689 7.15968 0.714355 10 0.714355Z" fill="#3F8AE0"/>
</svg>
