<svg width="24" height="24" viewBox="0 0 24 24" fill="none" xmlns="http://www.w3.org/2000/svg">
    <path
        d="M12.2857 2C17.9664 2 22.5714 6.60507 22.5714 12.2857C22.5714 17.9664 17.9664 22.5714 12.2857 22.5714C6.60507 22.5714 2 17.9664 2 12.2857C2 6.60507 6.60507 2 12.2857 2ZM12.2857 3.71429C7.55184 3.71429 3.71429 7.55184 3.71429 12.2857C3.71429 17.0196 7.55184 20.8571 12.2857 20.8571C17.0196 20.8571 20.8571 17.0196 20.8571 12.2857C20.8571 7.55184 17.0196 3.71429 12.2857 3.71429Z"
        fill="#3F8AE0" />
    <path
        d="M9.66284 9.46151C9.89795 8.79317 10.362 8.22961 10.9728 7.87064C11.5836 7.51167 12.3017 7.38045 13 7.50022C13.6983 7.61999 14.3317 7.98303 14.7879 8.52504C15.2442 9.06704 15.4939 9.75303 15.4928 10.4615C15.4928 12.4615 12.4928 13.4615 12.4928 13.4615"
        stroke="#3F8AE0" stroke-width="2" stroke-linecap="round" stroke-linejoin="round" />
    <path d="M12.49 17H12.5" stroke="#3F8AE0" stroke-width="2" stroke-linecap="round"
        stroke-linejoin="round" />
    <path d="M12 17H12.01" stroke="#3F8AE0" stroke-width="2" stroke-linecap="round"
        stroke-linejoin="round" />
</svg>
