<svg width="20" height="20" viewBox="0 0 20 20" fill="none" xmlns="http://www.w3.org/2000/svg">
    <path
        d="M10.0041 0.0996094C14.0194 0.0996094 16.9 3.37792 16.9 7.63119V9.23084C16.9 9.45954 17.0933 9.76265 17.6205 10.3067C17.6881 10.3764 17.7518 10.4411 17.8909 10.5819C18.9721 11.6786 19.4 12.3104 19.4 13.3268C19.4 13.7713 19.3481 14.1178 19.1323 14.5331C18.6761 15.4106 17.709 15.8996 16.2632 15.8996L14.3514 15.9006C13.7222 18.2331 12.2209 19.4998 10 19.4998C7.7554 19.4998 6.24592 18.206 5.62881 15.8257L5.64801 15.8996H3.73685C2.24889 15.8996 1.27135 15.3973 0.834669 14.489C0.643712 14.0918 0.600006 13.7694 0.600006 13.3268C0.600006 12.3104 1.02788 11.6786 2.10913 10.5819C2.2482 10.4411 2.31187 10.3764 2.37949 10.3067C2.90676 9.76265 3.10001 9.45954 3.10001 9.23084V7.63119C3.10001 3.37958 5.98772 0.0996094 10.0041 0.0996094ZM12.466 15.9015H7.53404C7.98999 17.1481 8.77578 17.6998 10 17.6998C11.2242 17.6998 12.01 17.1481 12.466 15.9015ZM10.0041 1.89961C7.03647 1.89961 4.90001 4.32628 4.90001 7.63119V9.23084C4.90001 10.0834 4.51056 10.6942 3.67201 11.5594C3.59875 11.635 3.52959 11.7053 3.39089 11.8457C2.644 12.6032 2.40001 12.9635 2.40001 13.3268C2.40001 13.5189 2.41355 13.6189 2.45693 13.7091C2.56423 13.9323 2.88991 14.0996 3.73685 14.0996H16.2632C17.0832 14.0996 17.4165 13.9311 17.5352 13.7028C17.5847 13.6077 17.6 13.5051 17.6 13.3268C17.6 12.9635 17.356 12.6032 16.6091 11.8457C16.4704 11.7053 16.4013 11.635 16.328 11.5594C15.4894 10.6942 15.1 10.0834 15.1 9.23084V7.63119C15.1 4.32396 12.9697 1.89961 10.0041 1.89961Z"
        fill="#3F8AE0" />
</svg>
