<svg width="275" height="208" viewBox="0 0 275 208" fill="none" xmlns="http://www.w3.org/2000/svg">
    <path
        d="M262.407 174.176C257.438 171.267 249.469 171.267 244.5 174.176C239.532 176.991 239.625 181.684 244.594 184.499C249.563 187.408 266.813 187.784 271.688 184.874C276.563 182.059 267.375 177.085 262.407 174.176Z"
        fill="#4986CC" />
    <path
        d="M241.5 171.172C241.5 171.172 235.031 175.207 230.625 175.958C226.313 176.615 222.281 177.647 217.5 175.958C212.719 174.268 213.844 171.641 216.281 169.952C218.625 168.169 235.781 157.939 235.781 157.939C235.781 157.939 258.75 160.098 241.5 171.172Z"
        fill="#4986CC" />
    <path
        d="M250.312 153.435C250.312 155.593 249.563 158.127 248.25 160.286C247.031 162.444 245.25 164.415 243.281 165.447L228.656 173.893C224.812 176.145 221.719 174.362 221.719 169.952C221.719 167.793 222.469 165.259 223.781 163.101C225 160.943 226.781 158.972 228.656 157.94L243.281 149.493C247.125 147.241 250.312 149.024 250.312 153.435Z"
        fill="#175AFF" />
    <path
        d="M250.312 153.435C250.312 155.594 249.563 158.127 248.25 160.286C247.031 162.444 245.25 164.415 243.281 165.447L235.969 169.67V153.623L243.281 149.4C247.125 147.241 250.312 149.024 250.312 153.435Z"
        fill="#175AFF" />
    <path
        d="M250.031 145.741C247.5 144.99 244.594 144.708 231.375 153.154L240.562 170.328C254.25 162.633 254.531 161.225 255.844 158.785C258.375 153.999 254.719 147.054 250.031 145.741Z"
        fill="#175AFF" />
    <path
        d="M256.125 154.562C256.031 151.089 253.406 146.491 250.031 146.397C248.156 146.303 247.125 146.585 246.188 148.086C245.063 149.869 246 151.371 247.031 152.872C247.969 154.374 248.813 156.063 249.094 157.752C249.188 158.222 249.281 158.785 249.656 159.16C249.844 159.348 250.125 159.442 250.313 159.535C252.938 160.286 255.188 158.972 255.844 156.72C256.031 156.063 256.125 155.312 256.125 154.562Z"
        fill="#3972FF" />
    <path
        d="M254.062 149.307C253.5 147.993 252.281 147.43 250.969 147.524C250.219 147.524 249.937 147.993 249.75 148.65C249.562 149.494 250.125 149.87 250.781 150.339C251.344 150.808 251.906 151.277 252.281 151.841C252.375 152.028 252.469 152.216 252.656 152.31C252.75 152.31 252.844 152.31 252.937 152.31C254.062 152.216 254.344 151.09 254.25 150.151C254.25 149.87 254.156 149.588 254.062 149.307Z"
        fill="#7FA4FF" />
    <path
        d="M235.969 153.812C232.125 151.56 229.031 153.343 229.031 157.753C229.031 162.164 232.125 167.513 235.969 169.672C239.812 171.924 242.906 170.141 242.906 165.73C242.906 161.319 239.812 155.97 235.969 153.812Z"
        fill="#F1F4F4" />
    <path
        d="M231.469 153.154C217.594 160.944 217.406 163.008 216.938 165.073C215.438 171.454 220.125 175.396 222.75 176.146C227.438 177.46 230.906 176.991 240.656 170.328C242.625 168.92 233.531 151.934 231.469 153.154Z"
        fill="#F1F4F4" />
    <path
        d="M274.406 173.612L271.406 175.677C271.125 175.489 270.938 175.395 270.656 175.207C265.688 172.298 257.719 172.298 252.75 175.207C252.469 175.395 252.188 175.583 251.906 175.677L249 173.612V180.369C249 182.246 250.219 184.123 252.75 185.53C257.719 188.439 265.688 188.439 270.656 185.53C273.094 184.123 274.312 182.246 274.312 180.369V173.612H274.406Z"
        fill="#DCE4E4" />
    <path
        d="M270.75 178.022C265.781 180.838 257.813 180.838 252.844 178.022C247.875 175.113 247.875 170.515 252.75 167.699C257.719 164.884 265.688 164.884 270.656 167.699C275.625 170.515 275.625 175.207 270.75 178.022Z"
        fill="#F1F4F4" />
    <path
        d="M123.094 96.5664C123.094 96.5664 92.8125 118.245 99.4688 130.444C106.219 142.55 134.625 153.155 159 158.973C183.375 164.792 193.688 163.009 206.062 163.572C218.438 164.229 232.219 152.123 243.281 136.92C254.344 121.811 258.75 116.18 258.75 116.18C258.75 116.18 262.781 109.517 240.562 107.452C218.437 105.388 123.094 96.5664 123.094 96.5664Z"
        fill="#4986CC" />
    <path
        d="M156.844 47.2044C156.844 47.2044 125.625 62.1258 109.969 79.5809C94.3125 97.0361 92.7188 106.233 92.7188 106.233C92.7188 106.233 120.094 136.263 143.625 145.648C167.156 155.032 191.625 154.563 205.219 151.654C218.812 148.745 256.594 122.374 264.469 91.7808C250.875 68.7888 221.906 72.4487 202.125 65.4104C182.25 58.4658 174.562 43.9199 156.844 47.2044Z"
        fill="#F1F4F4" />
    <path
        d="M159 55.2756C162.935 55.2756 166.125 52.2084 166.125 48.4249C166.125 44.6414 162.935 41.5742 159 41.5742C155.065 41.5742 151.875 44.6414 151.875 48.4249C151.875 52.2084 155.065 55.2756 159 55.2756Z"
        fill="#F1F4F4" />
    <path
        d="M257.344 83.1484C258.562 84.8376 259.781 86.5269 260.812 88.4038C252.938 118.997 217.688 135.702 204.094 138.517C190.5 141.426 167.063 138.611 143.625 129.226C120.094 119.842 95.9062 100.604 95.9062 100.604C95.9062 100.604 95.8125 99.9467 95.8125 98.7267C93.0938 103.7 92.625 106.234 92.625 106.234C92.625 106.234 120 136.265 143.531 145.649C167.062 155.034 191.531 154.564 205.125 151.655C218.719 148.746 256.5 122.376 264.375 91.7822C262.5 88.4037 260.062 85.5884 257.344 83.1484Z"
        fill="#CACACA" />
    <path
        d="M212.531 75.6401C212.531 74.8893 212.531 74.1386 212.25 73.4817C211.969 72.8248 211.406 72.3555 210.844 71.9802C209.625 71.0417 208.031 69.9156 206.438 69.5402C204.094 69.071 201.469 69.2587 199.031 68.7894C183.75 66.0679 169.031 60.6249 154.875 54.2435C154.219 53.9619 153.75 54.2435 153.469 54.9004C152.906 55.8388 152.531 56.8711 152.156 57.9973C150.375 57.1527 148.5 56.4958 146.625 56.0265C147.844 56.6834 148.688 57.8096 148.969 59.1234C149.156 60.1557 149.062 61.6572 148.406 62.5018C148.219 62.7834 146.156 63.9095 146.812 64.4726C148.125 65.5049 150.094 65.3172 151.594 66.1618C153.281 67.1002 153.937 69.071 154.969 70.6663C156.844 73.6694 160.219 75.6401 163.594 76.6724C167.062 77.6109 170.625 77.7985 174.281 77.8924C176.344 77.9862 178.5 77.9862 180.563 77.6109C183.188 77.1416 185.813 75.8278 188.344 76.5786C188.438 79.7693 186.938 82.8662 184.406 84.7431C181.875 86.62 178.313 86.9953 175.406 85.8692C175.031 86.4323 174.938 87.9338 174.75 88.6845C174.375 90.1861 174.281 91.9691 173.156 93.0953C172.969 93.2829 172.781 93.4706 172.688 93.7522C172.688 93.9399 172.781 94.1275 172.781 94.2214C174 96.5675 176.438 97.9752 178.875 98.9136C181.313 99.8521 184.031 100.415 186.656 100.04C188.25 99.7582 189.844 99.1952 191.344 98.5382C194.531 97.2244 197.719 95.9106 200.906 94.5968C203.531 93.5645 207.563 92.7199 209.719 90.9368C211.313 89.623 211.125 86.0569 211.031 84.0861C211.031 83.0539 210.75 82.4908 211.312 81.5523C211.969 80.52 213.094 79.6754 214.219 79.1124C215.813 78.3616 217.688 77.9862 219.469 77.8924C222.281 77.6108 225.188 77.6109 228.094 77.6109C223.031 76.297 217.688 76.1093 212.531 76.9539C212.531 76.5786 212.531 76.1093 212.531 75.6401Z"
        fill="#D6D6D6" />
    <path
        d="M181.594 59.5918C181.688 63.1579 179.25 66.6301 169.781 68.0378C169.781 68.0378 157.969 75.9208 152.813 65.4101C149.25 58.1841 153.188 51.8965 158.719 49.175C161.156 47.955 163.969 47.3919 166.594 47.7673C173.438 48.8935 178.969 51.0519 180.938 56.0257C181.031 56.2134 181.031 56.3072 181.125 56.4949C181.313 57.4333 181.5 58.4656 181.594 59.5918Z"
        fill="#F1A725" />
    <path
        d="M181.031 56.4957C180.75 59.311 164.063 67.7571 156.563 66.4432C155.156 66.1617 153.844 65.7863 152.813 65.411C149.25 58.1849 153.188 51.8973 158.719 49.1758C158.719 49.1758 156.656 51.3342 155.719 53.305C154.875 55.3695 161.156 52.4603 165.094 52.3665C169.031 52.2727 178.781 53.868 180.844 56.0265C181.031 56.1203 181.031 56.308 181.031 56.4957Z"
        fill="#E37E25" />
    <path
        d="M152.437 64.8474C152.437 64.8474 150.562 60.4367 157.312 56.589C164.062 52.7414 175.969 54.5245 179.437 55.5567C182.906 56.6829 157.125 68.695 155.625 67.9443C154.219 67.1935 153.844 67.9443 152.437 64.8474Z"
        fill="#B55600" />
    <path
        d="M211.031 95.9096L160.031 59.7793L145.781 80.1436C143.156 83.8974 143.063 89.4343 146.063 95.8157C152.063 108.672 168.188 120.028 182.156 121.248C189.188 121.905 194.344 119.84 196.969 115.992L211.031 95.9096Z"
        fill="url(#paint0_linear)" />
    <path
        d="M154.969 68.8828C154.969 68.8828 158.344 71.8858 158.906 82.3965C159.563 92.4379 157.031 96.567 155.438 97.5993C153.844 98.6316 147.469 101.822 145.125 94.0332C142.781 86.2441 154.969 68.8828 154.969 68.8828Z"
        fill="#BD2E33" />
    <path
        d="M196.219 101.165C182.25 99.9454 166.031 88.5901 160.125 75.7334C154.125 62.8766 160.688 53.4921 174.656 54.7121C188.625 55.9321 204.844 67.2874 210.75 80.1441C216.75 93.0009 210.188 102.385 196.219 101.165Z"
        fill="#FF7369" />
    <path
        d="M210.793 95.396C216.424 87.4479 209.827 73.0809 196.059 63.3064C182.29 53.5319 166.564 52.0513 160.933 59.9994C155.302 67.9474 161.898 82.3144 175.667 92.0889C189.435 101.863 205.161 103.344 210.793 95.396Z"
        fill="#F72E33" />
    <path
        d="M195.375 97.5056C208.031 98.6318 213.375 91.7811 207.937 80.1443C202.5 68.5076 187.875 58.4662 175.219 57.34C162.562 56.2139 157.219 62.8769 162.656 74.4198C168 86.1504 182.719 96.3795 195.375 97.5056Z"
        fill="#FF7369" />
    <path
        d="M160.781 63.9088C163.594 61.9381 167.625 61.7504 169.781 61.8442C183.188 62.2196 199.219 73.0118 204.938 85.587C206.344 88.6839 207 91.6869 206.813 94.2207C206.813 94.7838 206.719 95.253 206.531 95.6284C208.219 94.5023 209.531 92.6254 209.813 89.9039C210 87.37 209.344 84.4609 207.938 81.2701C202.313 68.7888 186.188 57.9028 172.781 57.5274C169.5 57.4335 162.281 57.9028 160.781 63.9088Z"
        fill="url(#paint1_linear)" />
    <path
        d="M178.594 61.1883L179.437 61.4698C188.719 64.379 198 71.1359 203.437 79.1127C204.187 80.2388 204.937 81.4588 205.5 82.5849C205.687 82.9603 205.875 83.3357 206.062 83.6172C206.812 85.2126 207.281 86.7141 207.562 88.1218C207.844 89.5295 207.937 90.9371 207.844 92.1571C207.75 93.2833 207.469 94.2217 207.094 95.0663C206.437 95.6294 205.781 96.0048 205.031 96.3801C202.406 97.6001 199.312 97.694 197.531 97.694C189 97.5063 179.344 93.0017 172.031 86.4326C167.906 82.7726 164.437 78.4558 162.469 73.9512C161.719 72.262 161.156 70.5728 160.875 69.0713C160.688 68.039 160.594 67.0067 160.594 66.1621C160.594 65.8806 160.594 65.6929 160.594 65.4113C160.687 64.2852 160.969 63.3467 161.344 62.5021C164.156 60.156 168.656 59.8745 170.906 59.9683C173.344 59.9683 175.969 60.4376 178.594 61.1883Z"
        fill="#E9E5CB" />
    <path
        d="M168.656 62.126C166.781 62.0322 163.594 62.2199 160.875 63.5337C160.688 64.0968 160.594 64.6598 160.5 65.4106C160.313 67.9444 160.875 70.8536 162.375 74.0443C168 86.5257 184.125 97.4117 197.531 97.7871C199.406 97.8809 202.594 97.6932 205.313 96.3794C205.5 95.8163 205.594 95.2533 205.688 94.5025C205.875 91.9687 205.219 89.0595 203.813 85.8688C198.094 73.2935 182.063 62.5014 168.656 62.126Z"
        fill="#F6F4E9" />
    <path
        d="M198.563 95.9112C185.156 95.5358 169.125 84.7436 163.406 72.1684C162 69.0715 162.281 65.2239 162.469 62.6901C162.469 62.2208 162.844 60.5316 162.938 60.1562C162.469 60.4378 161.813 61.4701 161.25 62.4085C160.875 63.2531 160.594 64.1916 160.5 65.3177C160.313 67.8515 160.875 70.7607 162.375 73.9514C168 86.4328 184.125 97.3188 197.531 97.6942C199.875 97.788 204.281 97.5065 207.094 95.1604C207.938 94.5035 208.313 93.9404 208.594 93.4712C205.875 94.8789 200.531 96.005 198.563 95.9112Z"
        fill="#C0BFAE" />
    <path
        d="M166.125 80.707L166.312 81.2701L183.281 83.4285L187.688 83.147L187.5 82.5839L182.344 81.364L166.125 80.707Z"
        fill="#D2D1D4" />
    <path
        d="M164.438 79.2993L164.625 79.8624L183.375 82.1147L187.312 81.8331L187.781 81.3639L182.438 80.1439L164.438 78.8301V79.2993Z"
        fill="#131313" />
    <path
        d="M195.281 91.5L195.656 91.2185L195.844 90.8431L182.344 79.9571L178.5 77.9863L178.312 78.3617L181.969 82.1155L195.281 91.5Z"
        fill="#131313" />
    <path
        d="M195.469 91.1249L195.844 90.8434L182.437 79.582L179.156 77.7051L178.5 77.9866L182.156 81.7404L195.469 91.1249Z"
        fill="#404040" />
    <path d="M181.688 83.3342L186.844 67.6621L187.312 67.8498L182.156 83.3342H181.688Z"
        fill="#EF2C2C" />
    <path
        d="M184.781 81.082C184.781 80.9883 184.687 80.8945 184.594 80.8008L187.219 81.2695H184.781C184.781 81.1758 184.781 81.082 184.781 81.082Z"
        fill="#595959" />
    <path
        d="M180.656 80.5192C180.75 80.613 180.75 80.8007 180.844 80.8946L164.906 79.2054L164.719 78.9238L180.469 80.05C180.562 80.2377 180.562 80.3315 180.656 80.5192Z"
        fill="#595959" />
    <path
        d="M182.063 79.0176C183 79.1114 184.125 79.8622 184.594 80.8006C184.969 81.7391 184.594 82.396 183.563 82.3021C182.625 82.2083 181.5 81.4575 181.031 80.5191C180.656 79.6745 181.031 79.0176 182.063 79.0176Z"
        fill="#A2A2A2" />
    <path
        d="M182.438 79.957C182.906 79.957 183.375 80.3324 183.563 80.8016C183.75 81.177 183.563 81.4585 183.094 81.4585C182.625 81.4585 182.156 81.0832 181.969 80.6139C181.781 80.2386 182.063 79.957 182.438 79.957Z"
        fill="#C9C9C9" />
    <path
        d="M162.844 77.4224C163.125 77.4224 163.5 77.7039 163.688 77.9854C163.875 78.267 163.688 78.4547 163.313 78.4547C163.031 78.4547 162.656 78.1731 162.469 77.8916C162.375 77.5162 162.469 77.3285 162.844 77.4224Z"
        fill="black" />
    <path
        d="M202.687 81.9266C203.062 81.9266 203.437 82.2081 203.531 82.4897C203.719 82.7712 203.531 83.0527 203.156 82.9589C202.781 82.9589 202.406 82.6774 202.312 82.3958C202.219 82.1143 202.406 81.8328 202.687 81.9266Z"
        fill="black" />
    <path
        d="M161.719 74.4189C162.094 74.5128 162.375 74.7943 162.469 75.0758C162.562 75.3574 162.375 75.4512 162 75.4512C161.625 75.3574 161.344 75.0758 161.25 74.7943C161.156 74.5128 161.344 74.3251 161.719 74.4189Z"
        fill="#9A715A" />
    <path
        d="M204 85.1182C204.375 85.212 204.656 85.4935 204.75 85.7751C204.844 86.0566 204.656 86.2443 204.281 86.1504C203.906 86.0566 203.625 85.7751 203.531 85.4935C203.437 85.212 203.719 85.0243 204 85.1182Z"
        fill="#9A715A" />
    <path
        d="M161.25 71.6973C161.625 71.7911 161.906 72.1665 161.906 72.3542C161.906 72.6357 161.625 72.7296 161.344 72.5419C160.969 72.448 160.688 72.0726 160.688 71.8849C160.688 71.6034 160.969 71.5096 161.25 71.6973Z"
        fill="#9A715A" />
    <path
        d="M204.656 88.1211C205.031 88.215 205.312 88.5904 205.312 88.8719C205.312 89.1534 205.031 89.2473 204.656 89.1534C204.281 89.0596 204 88.6842 204 88.4027C204.094 88.1211 204.375 88.0273 204.656 88.1211Z"
        fill="#9A715A" />
    <path
        d="M161.531 69.164C161.906 69.3517 162.094 69.6332 162.094 69.9147C162.094 70.1024 161.719 70.1963 161.344 70.0086C160.969 69.8209 160.781 69.5394 160.781 69.2578C160.875 68.9763 161.156 68.9763 161.531 69.164Z"
        fill="#9A715A" />
    <path
        d="M204.656 91.0292C205.031 91.2169 205.219 91.5923 205.219 91.78C205.219 92.0615 204.844 92.0615 204.469 91.8738C204.094 91.6862 203.906 91.3108 203.906 91.1231C204 90.8416 204.281 90.8416 204.656 91.0292Z"
        fill="#9A715A" />
    <path
        d="M161.906 67.006C162.281 67.1937 162.469 67.5691 162.375 67.7568C162.281 67.9444 161.906 67.9444 161.531 67.7568C161.156 67.5691 160.969 67.1937 161.062 67.006C161.25 66.8183 161.625 66.8183 161.906 67.006Z"
        fill="black" />
    <path
        d="M204 93.5647C204.375 93.7524 204.562 94.1277 204.469 94.3154C204.375 94.5031 204 94.5031 203.625 94.3154C203.25 94.1277 203.062 93.7524 203.156 93.5647C203.344 93.2831 203.625 93.2831 204 93.5647Z"
        fill="black" />
    <path
        d="M163.5 65.036C163.781 65.3175 163.969 65.5991 163.781 65.7867C163.594 65.9744 163.219 65.8806 162.937 65.6929C162.656 65.4114 162.469 65.1298 162.656 64.9422C162.75 64.7545 163.125 64.8483 163.5 65.036Z"
        fill="#9A715A" />
    <path
        d="M202.687 95.6278C202.969 95.9093 203.156 96.1909 202.969 96.3785C202.781 96.5662 202.406 96.4724 202.125 96.2847C201.844 96.0032 201.656 95.7216 201.844 95.5339C201.937 95.3463 202.406 95.4401 202.687 95.6278Z"
        fill="#9A715A" />
    <path
        d="M165.562 63.5335C165.844 63.8151 165.937 64.0966 165.656 64.2843C165.469 64.3781 165 64.2843 164.719 64.0028C164.437 63.7212 164.344 63.4397 164.625 63.252C164.906 63.1581 165.281 63.252 165.562 63.5335Z"
        fill="#9A715A" />
    <path
        d="M200.719 97.3187C201 97.6002 201.094 97.8818 200.812 98.0695C200.625 98.1633 200.156 98.0695 199.875 97.7879C199.594 97.5064 199.5 97.2248 199.781 97.0371C200.062 96.9433 200.437 97.0371 200.719 97.3187Z"
        fill="#9A715A" />
    <path
        d="M168.187 62.5014C168.469 62.7829 168.375 63.0644 168.187 63.1583C167.906 63.2521 167.531 63.0644 167.25 62.7829C166.969 62.5014 167.062 62.2198 167.25 62.126C167.531 62.0321 168 62.2198 168.187 62.5014Z"
        fill="#9A715A" />
    <path
        d="M198.375 97.1303C198.656 97.4118 198.562 97.6933 198.375 97.7872C198.094 97.881 197.719 97.6933 197.437 97.4118C197.156 97.1303 197.25 96.8487 197.437 96.7549C197.719 96.661 198.187 96.8487 198.375 97.1303Z"
        fill="#9A715A" />
    <path
        d="M171.281 62.126C171.469 62.4075 171.375 62.689 171.094 62.689C170.812 62.689 170.437 62.5013 170.156 62.2198C169.969 61.9383 170.062 61.6567 170.344 61.6567C170.719 61.5629 171.094 61.7506 171.281 62.126Z"
        fill="#9A715A" />
    <path
        d="M195.562 97.6001C195.75 97.8816 195.656 98.1631 195.375 98.1631C195.094 98.1631 194.719 97.9755 194.531 97.6939C194.344 97.4124 194.437 97.1309 194.719 97.1309C194.906 97.1309 195.281 97.3185 195.562 97.6001Z"
        fill="#9A715A" />
    <path
        d="M174.75 62.2201C174.844 62.5017 174.75 62.7832 174.375 62.6894C174 62.6894 173.625 62.4078 173.531 62.1263C173.438 61.8448 173.531 61.5632 173.906 61.6571C174.188 61.6571 174.656 61.9386 174.75 62.2201Z"
        fill="black" />
    <path
        d="M192.281 97.6002C192.469 97.8817 192.281 98.0694 191.906 98.0694C191.625 98.0694 191.25 97.7879 191.062 97.5063C190.875 97.2248 191.062 97.0371 191.437 97.0371C191.719 97.0371 192.094 97.3186 192.281 97.6002Z"
        fill="black" />
    <path
        d="M178.406 62.8766C178.5 63.1582 178.312 63.3459 177.937 63.252C177.562 63.1582 177.281 62.8766 177.187 62.5951C177.094 62.3136 177.281 62.1259 177.656 62.2197C178.031 62.3136 178.312 62.5951 178.406 62.8766Z"
        fill="#9A715A" />
    <path
        d="M188.531 97.3171C188.625 97.5986 188.437 97.6925 188.062 97.6925C187.687 97.5986 187.406 97.3171 187.312 97.0355C187.219 96.754 187.406 96.6602 187.781 96.6602C188.062 96.754 188.437 97.0355 188.531 97.3171Z"
        fill="#9A715A" />
    <path
        d="M182.25 64.0965C182.25 64.378 181.969 64.4719 181.594 64.378C181.219 64.2842 180.938 63.9088 180.938 63.6273C180.938 63.3457 181.219 63.2519 181.594 63.3457C181.875 63.5334 182.25 63.815 182.25 64.0965Z"
        fill="#9A715A" />
    <path
        d="M184.594 95.9108C184.594 96.1924 184.312 96.2862 184.031 96.0985C183.656 96.0047 183.375 95.6293 183.375 95.4416C183.375 95.1601 183.656 95.0662 183.938 95.2539C184.313 95.3477 184.594 95.6293 184.594 95.9108Z"
        fill="#9A715A" />
    <path
        d="M186.094 65.8796C186.094 66.1611 185.719 66.1611 185.344 65.9735C184.969 65.7858 184.781 65.4104 184.781 65.2227C184.781 64.9412 185.156 64.9412 185.531 65.1289C185.813 65.2227 186.094 65.5981 186.094 65.8796Z"
        fill="#9A715A" />
    <path
        d="M181.219 94.314C181.219 94.5017 180.844 94.5955 180.469 94.4078C180.094 94.2202 179.906 93.9386 179.906 93.6571C179.906 93.4694 180.281 93.3756 180.656 93.5632C180.938 93.7509 181.219 94.1263 181.219 94.314Z"
        fill="#9A715A" />
    <path
        d="M189.844 68.038C189.75 68.2257 189.375 68.2257 189 68.038C188.625 67.8503 188.437 67.4749 188.531 67.2873C188.625 67.0996 189 67.0996 189.375 67.2873C189.75 67.4749 189.937 67.7565 189.844 68.038Z"
        fill="#9A715A" />
    <path
        d="M177.469 92.3446C177.375 92.5323 177 92.5323 176.625 92.3446C176.25 92.157 176.062 91.7816 176.156 91.5939C176.25 91.4062 176.625 91.4062 177 91.5939C177.375 91.7816 177.562 92.157 177.469 92.3446Z"
        fill="#9A715A" />
    <path
        d="M193.312 70.5719C193.125 70.7596 192.75 70.6657 192.469 70.4781C192.187 70.1965 192 69.915 192.187 69.7273C192.375 69.5396 192.75 69.6335 193.031 69.8212C193.312 70.1027 193.5 70.3842 193.312 70.5719Z"
        fill="black" />
    <path
        d="M173.906 89.997C173.719 90.1847 173.344 90.0909 173.062 89.8093C172.781 89.5278 172.594 89.2463 172.781 89.0586C172.969 88.8709 173.344 88.9647 173.625 89.2463C173.906 89.5278 174.094 89.8093 173.906 89.997Z"
        fill="black" />
    <path
        d="M196.5 73.4816C196.312 73.5754 195.844 73.4816 195.562 73.2C195.281 72.9185 195.187 72.637 195.469 72.4493C195.656 72.3554 196.125 72.4492 196.406 72.7308C196.687 73.0123 196.687 73.2939 196.5 73.4816Z"
        fill="#9A715A" />
    <path
        d="M170.625 87.2763C170.437 87.3702 169.969 87.2764 169.687 86.9948C169.406 86.7133 169.312 86.4318 169.594 86.3379C169.781 86.2441 170.25 86.3379 170.531 86.6195C170.719 86.901 170.812 87.1825 170.625 87.2763Z"
        fill="#9A715A" />
    <path
        d="M199.312 76.4845C199.031 76.5783 198.656 76.3906 198.375 76.1091C198.094 75.8275 198.187 75.546 198.375 75.4521C198.656 75.3583 199.031 75.546 199.312 75.8275C199.594 76.1091 199.594 76.4845 199.312 76.4845Z"
        fill="#9A715A" />
    <path
        d="M167.719 84.461C167.437 84.5548 167.062 84.3671 166.781 84.0856C166.5 83.8041 166.594 83.5226 166.781 83.4287C167.062 83.3349 167.437 83.5225 167.719 83.8041C168 84.0856 168 84.3671 167.719 84.461Z"
        fill="#9A715A" />
    <path
        d="M201.562 79.7686C201.281 79.7686 200.906 79.5809 200.625 79.2994C200.437 79.0179 200.531 78.7363 200.812 78.7363C201.094 78.7363 201.469 78.924 201.75 79.2056C201.937 79.4871 201.844 79.6748 201.562 79.7686Z"
        fill="#9A715A" />
    <path
        d="M165.281 81.4581C165 81.4581 164.625 81.2704 164.437 80.9888C164.25 80.7073 164.344 80.4258 164.625 80.4258C164.906 80.4258 165.281 80.6135 165.469 80.895C165.656 81.1765 165.562 81.4581 165.281 81.4581Z"
        fill="#9A715A" />
    <path
        d="M173.719 115.805L170.625 126.222C170.625 126.41 170.344 126.503 169.969 126.597C169.5 126.691 168.937 126.691 168.469 126.691C168.094 126.691 167.812 126.597 167.531 126.41C167.156 126.222 167.062 126.128 167.062 125.94L168.937 112.427C169.5 112.333 170.437 112.239 171.375 112.427C171.656 112.521 171.937 112.614 172.312 112.802C172.875 113.084 173.25 113.553 173.437 113.928C173.812 114.867 173.719 115.805 173.719 115.805Z"
        fill="#82806F" />
    <path
        d="M173.437 114.021L169.969 126.69C169.5 126.784 168.937 126.784 168.469 126.784L171.375 112.52C171.656 112.613 171.937 112.707 172.312 112.895C172.781 113.083 173.156 113.552 173.437 114.021Z"
        fill="#CDCCC5" />
    <path
        d="M221.812 85.3068C217.687 84.9314 213.281 88.216 211.688 91.876C211.312 92.7206 211.031 93.659 210.656 94.5975C209.625 97.0374 207.75 99.0082 205.781 100.791C203.531 102.856 200.906 103.231 198.75 105.014C196.219 107.173 194.344 109.894 191.437 111.583C188.062 113.648 184.406 112.991 180.75 112.897C176.719 112.803 174.75 115.525 171.937 118.153C171.469 118.622 170.906 119.091 170.625 119.654C170.437 119.936 170.25 120.311 170.062 120.499C169.781 120.78 169.406 120.968 169.031 121.156C168.75 121.343 168.281 121.437 168.094 121.156C168 121.062 168 120.874 168 120.686C168 118.809 168.375 116.557 167.156 114.962C163.406 109.894 157.406 107.079 153 102.574C151.406 100.979 148.312 101.167 146.156 100.979C143.25 100.697 140.437 100.604 137.531 100.51C138.187 105.014 138.844 109.613 139.5 114.117C139.594 115.15 139.781 116.088 140.156 117.026C141.562 120.123 144.375 119.466 146.719 120.968C149.906 122.939 153.375 124.722 156.281 126.974C158.625 128.851 161.25 129.602 164.156 130.54C190.219 138.517 222.094 122.563 224.625 111.02C225.937 105.014 232.594 97.2251 230.812 90.9375C229.875 87.653 225.656 85.6822 222.656 85.1191C222.187 85.3068 222 85.3068 221.812 85.3068Z"
        fill="#F1F4F4" />
    <path
        d="M141.094 98.7255C141.469 98.444 141.75 98.2563 141.938 97.8809C142.313 97.3178 142.031 94.784 141.375 94.8779C141.281 94.8779 141.187 94.9717 141.094 95.0655C140.062 95.8163 139.219 97.5994 138.094 96.0978C137.625 95.4409 137.344 94.5963 136.875 93.9394C136.125 92.6256 134.813 91.6871 133.5 90.9364C132.281 90.1856 130.875 89.2472 129.563 88.6841C126.563 87.4641 123.094 88.3087 120 89.2472C120.656 87.558 122.25 86.4318 123.938 85.7749C125.344 85.2118 126.75 85.0241 128.25 84.8365C129.656 84.7426 130.406 84.1795 131.625 83.4288C132.094 83.1472 132.656 82.7719 132.844 82.2088C132.938 81.8334 132.844 81.3642 132.75 80.9888C132.281 79.8627 131.531 78.8304 130.406 78.1735C130.125 77.9858 129.75 77.7981 129.656 77.5166C129.563 77.3289 129.563 77.1412 129.563 76.9535C129.563 75.3581 129.75 73.8566 130.312 72.3551C130.875 70.9474 131.906 69.5397 133.313 68.9767C133.875 68.6951 134.437 68.6013 135 68.5074C136.781 68.1321 138.656 67.7567 140.438 67.8505C141.375 67.9444 142.125 68.3198 142.969 68.4136C143.625 68.5074 144.375 68.3197 145.031 68.3197C148.5 68.3197 152.062 68.9767 155.438 70.1028C155.906 70.2905 156.375 70.4782 156.656 70.7597C157.031 71.2289 157.125 71.8859 157.125 72.4489C157.031 78.3612 153.469 83.4288 152.156 88.9656C150.938 93.8456 156.75 99.007 160.406 101.259C161.531 102.01 162.75 102.573 163.688 103.605C164.25 104.262 164.625 105.013 165.281 105.482C165.75 105.858 166.312 106.139 166.875 106.327C171.469 108.016 176.437 108.955 181.406 108.861C186.469 108.767 191.531 107.735 196.125 105.764C197.344 105.201 198.562 104.825 199.781 104.356C200.719 103.981 201.375 103.23 202.219 102.667C202.969 102.104 203.813 101.635 204.563 101.072C205.313 100.509 206.344 100.227 207 99.5701C208.219 98.1624 209.531 96.4732 210.188 94.6902C210.375 94.1271 210.562 93.564 210.844 93.001C211.125 92.4379 211.5 91.8748 211.875 91.4056C212.437 90.6548 213.094 89.9979 213.844 89.4348C213.938 89.341 213.563 92.0625 213.563 92.2502C213.656 93.2825 214.687 93.7517 215.531 94.0333C217.125 94.5963 218.719 95.1594 220.219 95.8163C218.344 95.9101 216.375 96.004 214.594 96.5671C213.562 96.8486 212.344 97.5994 212.531 98.6317C214.594 99.1009 216.656 99.6639 218.531 100.602C220.406 101.635 222 103.23 222.562 105.295C218.437 102.104 211.875 100.227 206.719 101.916C206.156 102.104 205.594 102.385 205.125 102.667C204 103.23 202.875 103.512 201.75 104.075C201.094 104.45 200.438 104.825 199.875 105.388C199.594 105.67 199.406 106.045 199.219 106.327C198.937 106.608 198.562 106.702 198.281 106.796C196.969 107.547 195.562 108.955 195.094 110.362C194.812 111.207 194.719 112.051 194.344 112.802C193.594 114.21 191.906 114.679 190.312 114.773C186 115.055 181.781 113.553 177.469 113.365C177.094 113.365 176.719 113.365 176.344 113.459C175.875 113.553 175.594 113.835 175.219 114.116C173.719 115.242 172.219 116.462 171.656 118.245C171.281 119.184 171.188 120.028 170.438 120.685C169.781 121.248 169.031 121.717 168.188 121.905C167.531 122.093 166.781 122.093 166.125 122.281C165.188 122.656 164.438 123.501 163.781 124.251C164.25 121.53 164.531 118.808 164.438 115.993C164.438 115.524 164.438 115.148 164.156 114.773C163.781 114.116 163.125 114.022 162.656 113.647C162 113.084 161.437 112.521 160.781 111.958C160.406 111.676 159.938 111.395 159.469 111.488C159.094 111.582 158.813 111.864 158.531 112.145C157.406 113.365 156.281 114.585 155.25 115.805C155.531 114.398 156.094 113.084 156.75 111.77C157.219 110.831 158.344 109.705 157.406 108.673C156.656 107.828 155.719 107.172 154.687 106.608C153 105.764 150.938 105.295 149.438 104.168C148.875 103.699 148.406 103.136 147.75 102.761C146.906 102.292 145.969 102.385 145.031 102.385C142.875 102.479 140.625 102.573 138.563 103.136C136.219 103.793 134.063 105.107 132.375 106.89C134.063 104.262 136.406 102.01 138.938 100.227C139.031 99.8516 140.156 99.3824 141.094 98.7255Z"
        fill="#D6D6D6" />
    <path
        d="M147.469 93.4699C136.406 97.2237 131.438 83.4285 133.875 75.3578C134.25 74.1378 134.719 73.0117 135.188 71.8856C135.281 71.6979 135.281 71.604 135.281 71.604C138.094 65.9733 142.969 63.2518 149.156 63.9087C149.906 64.0026 150.656 64.1903 151.406 64.5656C153.938 65.8795 155.813 69.2579 156 76.6716C156.094 76.6716 158.531 89.7161 147.469 93.4699Z"
        fill="#F1A725" />
    <path
        d="M147.469 93.4707C136.406 97.2245 131.438 83.4293 133.875 75.3587C134.25 74.1387 134.719 73.0125 135.188 71.8864C134.719 73.0125 133.313 76.8602 134.063 81.177C134.906 86.3385 139.031 89.4354 145.125 89.3416C151.219 89.2477 153 80.614 153.375 76.4848C153.75 72.4495 153.844 68.508 151.5 64.4727C154.031 65.7865 155.906 69.1649 156.094 76.5786C156.094 76.6725 158.531 89.7169 147.469 93.4707Z"
        fill="#E37E25" />
    <path
        d="M148.875 65.974C148.875 65.974 144.562 65.8802 142.594 70.197C142.125 71.2293 141.937 72.637 142.312 73.6693C142.594 74.42 143.812 74.8893 144.469 75.1708C144.656 75.2647 144.844 75.3585 144.937 75.3585C145.969 75.64 147.844 75.7339 148.406 74.7016C149.25 73.3878 149.344 71.6985 149.906 70.197C151.125 66.6309 152.344 66.2555 152.344 66.2555C152.344 66.2555 150.281 65.7863 148.875 65.974Z"
        fill="#FFD534" />
    <path
        d="M168.844 52.4593C168.844 52.4593 167.719 52.1777 165.281 52.1777C162.844 52.1777 169.875 53.6793 172.5 54.8054C175.031 55.9315 176.906 57.1515 176.906 57.1515C176.906 57.1515 175.781 53.5854 168.844 52.4593Z"
        fill="#FFD534" />
    <path
        d="M102.563 101.636C102.563 102.762 102.281 103.888 101.719 104.827C100.5 106.985 98.1562 108.487 95.4375 108.487C91.5 108.487 88.3125 105.39 88.3125 101.636C88.3125 100.697 88.5 99.7589 88.875 98.9143C90 96.4744 92.5312 94.7852 95.4375 94.7852C99.375 94.7852 102.563 97.882 102.563 101.636Z"
        fill="#F1F4F4" />
    <path
        d="M269.531 88.6846C269.531 92.4384 266.344 95.5353 262.406 95.5353C261.187 95.5353 259.969 95.2538 258.937 94.6907C256.781 93.5646 255.281 91.3123 255.281 88.6846C255.281 84.9309 258.469 81.834 262.406 81.834C264.094 81.834 265.688 82.3971 266.906 83.4293C268.5 84.6493 269.531 86.6201 269.531 88.6846Z"
        fill="#F1F4F4" />
    <path
        d="M217.312 138.329C217.312 142.083 214.125 145.18 210.188 145.18C206.25 145.18 203.062 142.083 203.062 138.329C203.062 134.575 206.25 131.479 210.188 131.479C214.125 131.479 217.312 134.482 217.312 138.329Z"
        fill="#F1F4F4" />
    <path
        d="M101.719 104.826C101.719 104.826 101.719 104.92 101.719 104.826C100.5 106.985 98.1562 108.486 95.4375 108.486C91.5 108.486 88.3125 105.389 88.3125 101.636C88.3125 100.697 88.5 99.7587 88.875 98.9141C88.875 98.9141 90 103.325 93.5625 104.357C97.125 105.389 99.75 103.606 100.875 103.982C101.719 104.357 101.719 104.732 101.719 104.826Z"
        fill="#D6D6D6" />
    <path
        d="M217.125 136.92C217.125 136.92 217.5 140.486 213.938 141.612C210.375 142.644 204.375 141.988 203.062 138.797C205.031 148.275 217.125 152.592 217.125 136.92Z"
        fill="#D6D6D6" />
    <path
        d="M269.531 88.685C269.531 92.4388 266.344 95.5357 262.406 95.5357C261.187 95.5357 259.969 95.2541 258.938 94.6911L258.844 94.5972C258.844 94.5972 269.906 92.8142 267.656 85.9635C267.281 84.9312 267.094 84.0866 266.906 83.4297C268.5 84.6497 269.531 86.6204 269.531 88.685Z"
        fill="#D6D6D6" />
    <path
        d="M132.094 10.1348L133.5 11.2609L125.719 25.6192L132.281 21.8654L133.687 22.9915L121.125 34.2529L119.719 33.1268V29.8422L126.094 17.6424L121.312 22.3346L119.906 21.2085V17.1731L132.094 10.1348Z"
        fill="#9C9C9C" />
    <path
        d="M146.062 12.5742L147.469 13.7004L141.656 23.6479L146.344 20.9264L147.75 22.0526L137.531 31.7186L136.125 30.5924V27.6832L140.625 19.5187L137.719 23.0848L136.312 21.9587V18.2049L146.062 12.5742Z"
        fill="#9C9C9C" />
    <path
        d="M158.063 0L159.469 1.12614L153.656 11.0737L158.344 8.35219L159.75 9.47833L149.531 19.1444L148.125 18.0182V15.109L152.625 6.94452L149.719 10.6045L148.313 9.47833V5.72454L158.063 0Z"
        fill="#9C9C9C" />
    <path
        d="M163.031 12.0126C163.031 13.4202 162.187 14.8279 161.062 15.4848C159.844 16.1418 159.094 15.6725 159.094 14.3587C159.094 13.0449 159.937 11.6372 161.062 10.8864C162.187 10.1357 163.031 10.6049 163.031 12.0126Z"
        fill="#9C9C9C" />
    <path
        d="M168.469 8.44616C168.469 9.85384 167.625 11.2615 166.5 11.9184C165.281 12.5753 164.531 12.1061 164.531 10.7923C164.531 9.47846 165.375 8.07078 166.5 7.32002C167.625 6.56926 168.469 7.03849 168.469 8.44616Z"
        fill="#9C9C9C" />
    <path
        d="M173.438 6.75687C173.438 8.16454 172.594 9.57222 171.469 10.2291C170.25 10.8861 169.5 10.4168 169.5 9.10299C169.5 7.78917 170.344 6.38149 171.469 5.63074C172.594 4.97382 173.438 5.44304 173.438 6.75687Z"
        fill="#9C9C9C" />
    <path
        d="M119.625 39.6955C119.625 42.1354 117.656 45.2323 115.312 46.64C112.969 48.0477 111 47.1092 111 44.6693C111 42.2293 112.969 39.1324 115.312 37.7247C117.75 36.3171 119.625 37.2555 119.625 39.6955Z"
        fill="#9C9C9C" />
    <path
        d="M121.687 51.896C121.687 53.3975 120.562 55.1806 119.156 56.0252C117.75 56.8698 116.625 56.3067 116.625 54.8991C116.625 53.3975 117.75 51.6145 119.156 50.7699C120.562 49.9253 121.687 50.4883 121.687 51.896Z"
        fill="#9C9C9C" />
    <path
        d="M128.156 56.3065C128.156 57.4327 127.219 58.9342 126.094 59.5911C124.969 60.248 124.031 59.8726 124.031 58.6526C124.031 57.5265 124.969 56.025 126.094 55.3681C127.219 54.805 128.156 55.1804 128.156 56.3065Z"
        fill="#9C9C9C" />
    <path
        d="M133.5 11.2617V14.5463L127.125 26.7461L133.687 22.9923V27.0276L121.125 34.2537V30.9691L127.5 18.7693L121.312 22.3354V18.3939L133.5 11.2617Z"
        fill="#FCFCFC" />
    <path
        d="M147.469 13.7031V16.6123L142.969 24.7768L147.656 22.0553V25.8091L137.438 31.7213V28.8121L141.938 20.6476L137.719 23.0876V19.3338L147.469 13.7031Z"
        fill="#FCFCFC" />
    <path
        d="M159.469 1.12695V4.03614L154.969 12.2007L159.656 9.47915V13.2329L149.438 19.1452V16.236L153.938 8.07147L149.719 10.5114V6.75765L159.469 1.12695Z"
        fill="#FCFCFC" />
    <path
        d="M164.438 13.1397C164.438 14.5474 163.594 15.955 162.469 16.6119C161.344 17.2689 160.5 16.7996 160.5 15.4858C160.5 14.172 161.344 12.7643 162.469 12.0135C163.594 11.3566 164.438 11.8259 164.438 13.1397Z"
        fill="#FCFCFC" />
    <path
        d="M169.781 9.57328C169.781 10.981 168.937 12.3886 167.812 13.0455C166.594 13.7025 165.844 13.2332 165.844 11.9194C165.844 10.6056 166.687 9.1979 167.812 8.44714C169.031 7.79023 169.781 8.25945 169.781 9.57328Z"
        fill="#FCFCFC" />
    <path
        d="M174.844 7.88383C174.844 9.2915 174 10.6992 172.875 11.3561C171.656 12.013 170.906 11.5438 170.906 10.23C170.906 8.91612 171.75 7.50845 172.875 6.75769C174 6.10077 174.844 6.57 174.844 7.88383Z"
        fill="#FCFCFC" />
    <path
        d="M121.031 40.8238C121.031 43.2637 119.062 46.3606 116.719 47.7683C114.375 49.176 112.406 48.2375 112.406 45.7975C112.406 43.3576 114.375 40.2607 116.719 38.853C119.062 37.5392 121.031 38.3838 121.031 40.8238Z"
        fill="#FCFCFC" />
    <path
        d="M123.094 53.1162C123.094 54.6177 121.969 56.4007 120.562 57.2453C119.156 58.09 118.031 57.5269 118.031 56.1192C118.031 54.6177 119.156 52.8347 120.562 51.99C121.969 51.0516 123.094 51.6147 123.094 53.1162Z"
        fill="#FCFCFC" />
    <path
        d="M129.562 57.4335C129.562 58.5596 128.625 60.0611 127.5 60.718C126.375 61.3749 125.438 60.9996 125.438 59.7796C125.438 58.5596 126.375 57.1519 127.5 56.495C128.625 55.932 129.562 56.3073 129.562 57.4335Z"
        fill="#FCFCFC" />
    <path
        d="M74.4375 118.151C74.4375 128.568 46.4062 130.726 29.9063 130.726C13.4063 130.726 0 122.28 0 111.77C0 101.353 13.4063 92.8129 29.9063 92.8129C46.4062 92.7191 74.4375 107.64 74.4375 118.151Z"
        fill="#4986CC" />
    <path
        d="M85.7812 51.709L84.75 60.2489L84.1875 64.4719L82.9688 74.5133L79.4062 104.168C78.8437 107.171 76.875 109.893 73.7812 111.957C71.9062 113.271 69.5625 114.397 66.9375 115.148C64.125 115.993 61.0312 116.462 57.75 116.462C57.2812 116.462 56.9062 116.462 56.5312 116.462C53.7187 116.368 51.0938 115.899 48.6562 115.242C48.2812 115.148 47.9062 115.054 47.5312 114.867C45.375 114.116 43.4062 113.177 41.7187 112.051C38.7187 109.987 36.75 107.359 36.1875 104.45L31.4062 64.6596L30.9375 60.4366L29.9062 52.1782H30.1875L42.5625 52.0844H50.7187L64.9687 51.9905L73.125 51.8967L85.5 51.8028H85.7812V51.709Z"
        fill="#864B2B" />
    <path
        d="M78.4688 57.9023V58.3716L77.8125 65.973L77.4375 69.8206L76.875 76.2959L73.875 111.863C72 113.177 69.6563 114.303 67.0313 115.054C64.2188 115.898 61.125 116.368 57.8438 116.368C57.375 116.368 57 116.368 56.625 116.368C53.8125 116.274 51.1875 115.805 48.75 115.148C48.375 115.054 48 114.96 47.625 114.772C45.4687 114.022 43.5 113.083 41.8125 111.957L40.0312 91.3111L39.6562 86.6189L38.25 69.9145L37.875 66.0668L37.2188 58.3716V58.09L60.4688 57.9962L69.5625 57.9023H78.4688Z"
        fill="#8F512F" />
    <path
        d="M69.4688 57.9023L69.2813 62.2192L69 69.5391L68.8125 73.199V73.3867L67.0313 115.054C64.2188 115.898 61.125 116.368 57.8438 116.368C57.375 116.368 57 116.368 56.625 116.368C53.8125 116.274 51.1875 115.805 48.75 115.148L47.9063 96.4726V95.628L47.625 88.4019L46.9688 73.2929L46.7813 69.633L46.4063 62.2192L46.2188 58.1839L60.4688 57.9962L69.4688 57.9023Z"
        fill="#A05B35" />
    <path
        d="M81.75 51.709H73.2188L65.0625 51.8028L50.7188 51.8967H42.5625L33.375 51.9905C32.25 52.8351 31.125 53.7736 30.1875 54.8059L30.8438 60.3427L31.3125 64.5657L32.4375 73.5748C38.3438 78.3609 47.4375 81.4578 57.75 81.4578C68.0625 81.4578 77.1563 78.3609 83.0625 73.5748L84.0938 64.5657L84.6563 60.3427L85.3125 54.8997C84.2812 53.6797 83.0625 52.6474 81.75 51.709Z"
        fill="#CFCDCC" />
    <path
        d="M31.4062 61.5619C36.4687 67.568 46.3125 71.6033 57.75 71.6033C69.1875 71.6033 79.125 67.4741 84.1875 61.4681L85.6875 48.6113L29.9062 48.9867L31.4062 61.5619Z"
        fill="#7A4528" />
    <path
        d="M87.375 50.0186C82.5 42.6987 71.0625 37.4434 57.75 37.4434C44.4375 37.4434 33 42.6048 28.125 50.0186H25.6875V53.6785C25.6875 64.9399 40.0312 74.0429 57.75 74.0429C75.4688 74.0429 89.8125 64.9399 89.8125 53.6785V50.0186H87.375Z"
        fill="url(#paint2_linear)" />
    <path
        d="M89.9062 50.0186C89.9062 61.28 75.5625 70.383 57.8437 70.383C40.125 70.383 25.7812 61.28 25.7812 50.0186C25.7812 38.7572 40.125 29.6543 57.8437 29.6543C75.5625 29.6543 89.9062 38.7572 89.9062 50.0186Z"
        fill="#FFFEF3" />
    <path
        d="M85.4062 44.2012C80.9062 37.3505 70.2187 32.5645 57.8437 32.5645C45.4687 32.5645 34.7812 37.3505 30.2812 44.2012H28.0312V49.0812C28.0312 59.4979 41.4375 68.0378 57.9375 68.0378C74.4375 68.0378 87.8438 59.5918 87.8438 49.0812V44.2012H85.4062Z"
        fill="url(#paint3_linear)" />
    <path
        d="M87.6562 44.2008C87.6562 54.6176 74.25 63.1575 57.75 63.1575C41.25 63.1575 27.8438 54.7114 27.8438 44.2008C27.8438 33.784 41.25 25.2441 57.75 25.2441C74.25 25.2441 87.6562 33.6902 87.6562 44.2008Z"
        fill="#FFFEF3" />
    <path
        d="M57.75 57.9963C70.4062 57.9963 80.625 51.521 80.625 43.4503C80.625 42.9811 80.625 42.5119 80.5312 42.0426C80.1562 39.3211 78.4688 36.6935 75.9375 34.6289L42.2812 54.1486C46.4062 56.4948 51.8437 57.9963 57.75 57.9963Z"
        fill="#F6F5E8" />
    <path
        d="M80.7188 43.4502C80.7188 42.9809 80.7188 42.5117 80.625 42.0425C80.625 41.8548 80.5313 41.6671 80.5313 41.3856C80.5313 41.2917 80.5313 41.2917 80.5313 41.1979C80.5313 41.0102 80.4375 40.9164 80.4375 40.7287C80.4375 40.6348 80.4375 40.6348 80.3438 40.541C80.25 40.3533 80.25 40.1656 80.1562 39.9779C80.0625 39.7902 79.9688 39.6025 79.875 39.4148C79.875 39.321 79.7812 39.321 79.7812 39.2271C79.6875 39.1333 79.6875 38.9456 79.5938 38.8518C79.5938 38.7579 79.5 38.7579 79.5 38.6641C79.4062 38.4764 79.3125 38.3825 79.2188 38.1948C79.2188 38.1948 79.2188 38.101 79.125 38.101C79.0313 37.9133 78.9375 37.7256 78.75 37.5379C78.75 37.4441 78.6562 37.4441 78.5625 37.3502C78.4687 37.2564 78.375 37.1626 78.2812 36.9749C78.1875 36.881 78.1875 36.881 78.0937 36.7872C78 36.6933 77.9062 36.5056 77.8125 36.4118C77.8125 36.3179 77.7188 36.3179 77.7188 36.2241C77.625 36.0364 77.4375 35.9426 77.25 35.7549C77.1563 35.661 77.1562 35.661 77.0625 35.5672C76.9688 35.4733 76.875 35.3795 76.7813 35.2857C76.6875 35.1918 76.5938 35.1918 76.5938 35.098C76.5 35.0041 76.3125 34.9103 76.2187 34.8164C72.0937 31.2503 65.3437 28.998 57.8437 28.998C45.9375 28.998 36.1875 34.7226 35.0625 42.1363C35.0625 42.324 35.0625 42.4179 35.1562 42.6056C36.5625 35.3795 46.125 29.8426 57.8437 29.8426C64.875 29.8426 71.25 31.9072 75.375 35.098H75.2812C77.5312 37.5379 78.2812 41.1979 78.75 43.8255C78.8438 44.2948 78.8438 46.7347 78.8438 47.204C78.8438 48.0486 78.75 48.8932 78.4688 49.6439C79.875 47.767 80.7188 45.7024 80.7188 43.4502Z"
        fill="url(#paint4_linear)" />
    <path
        d="M57.75 115.711C47.1563 115.711 38.4375 112.239 37.2188 105.67L38.4375 115.711C38.4375 118.902 40.3125 121.811 43.5 123.97C45.1875 125.19 47.25 126.128 49.5938 126.785C52.125 127.536 54.8437 128.005 57.8437 128.005C60.6562 128.005 63.2812 127.63 65.7188 126.879C65.8125 126.879 65.9063 126.879 66 126.785H66.0938C68.4375 126.128 70.4063 125.096 72.0938 123.97C75.2813 121.811 77.1562 118.902 77.1562 115.711L78.375 105.576C77.25 112.145 68.4375 115.711 57.75 115.711Z"
        fill="url(#paint5_linear)" />
    <path
        d="M54.5627 101.352C50.8127 97.7856 49.2189 90.935 51.0939 86.2427C52.9689 81.5505 57.4689 80.612 61.3127 84.1781C65.0627 87.7442 66.6564 94.5949 64.7814 99.2871C62.9064 104.073 58.4064 105.012 54.5627 101.352Z"
        fill="#DADADA" />
    <path
        d="M60.2811 87.1827C59.4374 86.2443 58.4999 85.7751 57.5624 85.5874C56.0624 85.3058 54.6561 86.0566 53.7186 87.652C53.5311 88.0273 53.3436 88.4027 53.2499 88.7781C53.1561 88.9658 53.0624 89.2473 53.0624 89.5289C52.4061 92.2504 52.9686 95.7226 54.7499 98.2564C55.9686 99.9456 57.4686 100.884 58.9686 100.79C60.3749 100.696 61.5936 99.7579 62.3436 98.0687C62.4374 97.7872 62.5311 97.5057 62.6249 97.2241C61.4999 97.5057 60.3749 97.318 59.4374 96.7549C58.4999 96.1918 57.7499 95.3472 57.1874 94.0334C56.8124 93.1888 56.5311 92.3442 56.2499 91.4996C55.7811 90.4673 55.0311 89.8104 54.0936 89.5289C54.1874 89.0596 54.3749 88.6842 54.4686 88.3089C54.7499 88.3089 55.0311 88.3089 55.2186 88.3089C55.9686 88.4966 56.7186 88.9658 57.3749 89.7165C58.0311 90.4673 58.3124 91.6873 58.8749 92.7196C59.4374 93.7519 60.2811 94.2211 61.1249 94.878C61.2186 94.9719 62.1561 95.5349 62.9061 95.9103C63.2811 92.8134 62.2499 89.2473 60.2811 87.1827Z"
        fill="#9C6429" />
    <path
        d="M56.9062 90.2793C57.2812 91.0301 57.5625 91.8747 57.8437 92.7193C58.4062 93.9393 59.1562 94.7839 60.0937 95.347C60.8437 95.8162 61.7812 95.9101 62.625 95.9101C62.625 95.9101 62.7188 95.91 62.7188 96.0039C62.625 96.4731 62.5312 96.8485 62.4375 97.2239C61.3125 97.5054 60.1875 97.3177 59.25 96.7547C58.3125 96.1916 57.5625 95.347 57 94.0332C56.625 93.1885 56.3437 92.3439 56.0625 91.4993C55.5 90.0916 54.1875 89.3409 52.875 89.5286C52.9688 89.247 52.9687 89.0594 53.0625 88.7778C53.4375 88.5901 53.7187 88.4024 54.0937 88.3086C55.3125 88.4024 56.3437 89.1532 56.9062 90.2793Z"
        fill="#7D460B" />
    <path
        d="M42.4688 46.2653C42.4688 46.5468 42.375 46.8284 42.0938 47.1099C41.625 47.5791 40.7813 47.9545 39.8438 47.9545C39.375 47.9545 39 47.8606 38.7188 47.7668C37.875 47.4853 37.3125 46.9222 37.3125 46.2653C37.3125 45.8899 37.5 45.6084 37.7812 45.3268C38.25 44.9515 39 44.6699 39.8438 44.6699C40.3125 44.6699 40.7813 44.7638 41.25 44.9515C41.9063 45.233 42.4688 45.7022 42.4688 46.2653Z"
        fill="#E4E6C8" />
    <path
        d="M40.9688 45.139C40.6875 44.9513 40.2188 44.8574 39.8438 44.8574C39.0938 44.8574 38.4375 45.139 38.0625 45.5143C37.7813 45.7959 37.6875 46.0774 37.6875 46.4528C37.6875 46.922 37.9688 47.2974 38.4375 47.6728C38.5313 47.6728 38.625 47.7666 38.7187 47.7666C39.0937 47.8605 39.4688 47.9543 39.8438 47.9543C40.4063 47.9543 40.875 47.8605 41.25 47.6728C41.4375 47.5789 41.5313 47.4851 41.7188 47.2974C41.9063 47.0159 42 46.8282 42 46.4528C42 45.8897 41.625 45.4205 40.9688 45.139Z"
        fill="#F6F5E8" />
    <path
        d="M41.0625 45.8895C41.0625 46.0772 40.9688 46.1711 40.875 46.2649C40.6875 46.4526 40.2188 46.6403 39.8438 46.6403C39.6563 46.6403 39.4688 46.6403 39.2813 46.5464C38.9063 46.4526 38.625 46.1711 38.625 45.7957C38.625 45.608 38.7188 45.4203 38.9063 45.3265C39.0938 45.1388 39.4688 45.0449 39.9375 45.0449C40.2188 45.0449 40.4062 45.0449 40.5937 45.1388C40.875 45.3265 41.0625 45.608 41.0625 45.8895Z"
        fill="#FFFEF3" />
    <path
        d="M44.1562 38.57C44.1562 38.8515 44.0625 39.133 43.7812 39.4146C43.3125 39.8838 42.4687 40.2592 41.5312 40.2592C41.0625 40.2592 40.6875 40.1653 40.4062 40.0715C39.5625 39.79 39 39.2269 39 38.57C39 38.1946 39.1875 37.9131 39.4688 37.6315C39.9375 37.2561 40.6875 36.9746 41.5312 36.9746C42 36.9746 42.4687 37.0685 42.9375 37.2561C43.6875 37.4438 44.1562 38.0069 44.1562 38.57Z"
        fill="#E4E6C8" />
    <path
        d="M42.75 37.4436C42.4688 37.256 42 37.1621 41.625 37.1621C40.875 37.1621 40.2188 37.4436 39.8438 37.819C39.5625 38.1006 39.4688 38.3821 39.4688 38.7575C39.4688 39.2267 39.75 39.6021 40.2188 39.9775C40.3125 39.9775 40.4062 40.0713 40.5 40.0713C40.875 40.1651 41.25 40.259 41.625 40.259C42.1875 40.259 42.6563 40.1651 43.0313 39.9775C43.2188 39.8836 43.3125 39.7898 43.5 39.6021C43.6875 39.3205 43.7812 39.1329 43.7812 38.7575C43.7812 38.1944 43.4063 37.7252 42.75 37.4436Z"
        fill="#F6F5E8" />
    <path
        d="M42.8438 38.1005C42.8438 38.2881 42.75 38.382 42.6563 38.4758C42.4688 38.6635 42 38.8512 41.625 38.8512C41.4375 38.8512 41.25 38.8512 41.0625 38.7574C40.6875 38.6635 40.4062 38.382 40.4062 38.0066C40.4062 37.8189 40.5 37.6312 40.6875 37.5374C40.875 37.3497 41.25 37.2559 41.7188 37.2559C42 37.2559 42.1875 37.2559 42.375 37.3497C42.5625 37.6312 42.8438 37.8189 42.8438 38.1005Z"
        fill="#FFFEF3" />
    <path
        d="M52.6875 33.5954C52.6875 33.8769 52.5937 34.1584 52.3125 34.44C51.8437 34.9092 51 35.2846 50.0625 35.2846C49.5938 35.2846 49.2188 35.1907 48.9375 35.0969C48.0938 34.8153 47.5312 34.2523 47.5312 33.5954C47.5312 33.22 47.7187 32.9384 48 32.6569C48.4688 32.2815 49.2188 32 50.0625 32C50.5313 32 51 32.0938 51.4688 32.2815C52.2188 32.4692 52.6875 32.9384 52.6875 33.5954Z"
        fill="#E4E6C8" />
    <path
        d="M51.2813 32.3753C51 32.1876 50.5313 32.0938 50.1563 32.0938C49.4063 32.0938 48.75 32.3753 48.375 32.7507C48.0938 33.0322 48 33.3137 48 33.6891C48 34.1583 48.2813 34.5337 48.75 34.9091C48.8438 34.9091 48.9375 35.0029 49.0312 35.0029C49.4062 35.0968 49.7813 35.1906 50.1563 35.1906C50.7188 35.1906 51.1875 35.0968 51.5625 34.9091C51.75 34.8153 51.8438 34.7214 52.0313 34.5337C52.2188 34.2522 52.3125 34.0645 52.3125 33.6891C52.3125 33.1261 51.8438 32.6568 51.2813 32.3753Z"
        fill="#F6F5E8" />
    <path
        d="M51.375 33.1258C51.375 33.3135 51.2813 33.4074 51.1875 33.5012C51 33.6889 50.5313 33.8766 50.1563 33.8766C49.9688 33.8766 49.7813 33.8766 49.5938 33.7828C49.2188 33.6889 48.9375 33.4074 48.9375 33.032C48.9375 32.8443 49.0313 32.6566 49.2188 32.5628C49.4063 32.3751 49.7813 32.2812 50.25 32.2812C50.5313 32.2812 50.7187 32.2812 50.9062 32.3751C51.0937 32.5628 51.375 32.8443 51.375 33.1258Z"
        fill="#FFFEF3" />
    <path
        d="M63.75 31.9079C63.75 32.1894 63.6562 32.4709 63.375 32.7525C62.9062 33.2217 62.0625 33.5971 61.125 33.5971C60.6562 33.5971 60.2812 33.5032 60 33.4094C59.1562 33.1278 58.5938 32.5648 58.5938 31.9079C58.5938 31.5325 58.7812 31.251 59.0625 30.9694C59.5312 30.594 60.2812 30.3125 61.125 30.3125C61.5937 30.3125 62.0625 30.4063 62.5312 30.594C63.2812 30.7817 63.75 31.3448 63.75 31.9079Z"
        fill="#E4E6C8" />
    <path
        d="M62.3438 30.7815C62.0625 30.5938 61.5937 30.5 61.2187 30.5C60.4687 30.5 59.8125 30.7815 59.4375 31.1569C59.1563 31.4384 59.0625 31.72 59.0625 32.0954C59.0625 32.5646 59.3437 32.94 59.8125 33.3153C59.9062 33.3153 60 33.4092 60.0937 33.4092C60.4687 33.503 60.8437 33.5969 61.2187 33.5969C61.7812 33.5969 62.25 33.503 62.625 33.3153C62.8125 33.2215 62.9062 33.1276 63.0937 32.94C63.2812 32.6584 63.375 32.4707 63.375 32.0954C63.375 31.5323 62.9063 31.0631 62.3438 30.7815Z"
        fill="#F6F5E8" />
    <path
        d="M62.4375 31.4384C62.4375 31.626 62.3438 31.7199 62.25 31.8137C62.0625 32.0014 61.5937 32.1891 61.2187 32.1891C61.0312 32.1891 60.8437 32.1891 60.6562 32.0953C60.2812 32.0014 60 31.7199 60 31.3445C60 31.1568 60.0937 30.9691 60.2812 30.8753C60.4687 30.6876 60.8438 30.5938 61.3125 30.5938C61.5938 30.5938 61.7812 30.5937 61.9687 30.6876C62.1562 30.8753 62.4375 31.1568 62.4375 31.4384Z"
        fill="#FFFEF3" />
    <path
        d="M72.0938 56.7755L73.4062 57.5263L73.9688 57.8078C74.25 57.9955 74.5312 57.9955 74.8125 57.8078L75.375 57.4324L79.2188 55.1801L80.5313 54.4294C80.7188 54.3355 80.7188 54.1479 80.5313 54.054L78.6563 52.9279C78.375 52.7402 78.0938 52.7402 77.8125 52.9279L72.0938 56.3063C71.9062 56.494 71.9062 56.6817 72.0938 56.7755Z"
        fill="#E3E4D4" />
    <path
        d="M72.0938 56.7754L72.4687 56.9631L77.8125 53.8662C78.0938 53.6785 78.375 53.6785 78.6563 53.8662L80.1563 54.7108L80.5313 54.5231C80.7188 54.4293 80.7188 54.2416 80.5313 54.1478L78.6563 53.0216C78.375 52.8339 78.0938 52.8339 77.8125 53.0216L72.0938 56.4C71.9062 56.4939 71.9062 56.6816 72.0938 56.7754Z"
        fill="#C5C6B8" />
    <path
        d="M115.406 207.397C114.187 208.053 111.562 207.397 110.156 207.397C109.5 207.397 108.75 207.303 108.187 207.115C107.906 207.021 107.625 206.927 107.344 206.833C107.25 206.74 107.156 206.74 107.062 206.646L101.625 203.549L101.062 203.267L100.594 202.986L93.6561 198.951L93.0936 198.669L92.6248 198.387L85.6873 194.352L85.1248 194.071L84.6561 193.789L80.5311 191.349C79.5936 190.786 79.2186 190.035 79.3123 189.284C79.4061 188.534 80.0623 187.783 81.0936 187.126C81.9373 186.657 83.0623 186.281 84.0936 186.188C84.4686 186.094 84.8436 186.094 85.2186 186.094C86.4373 186.094 87.5623 186.375 88.4061 186.844L114.281 201.766L114.75 202.047C115.406 202.423 115.781 202.892 115.875 203.361C116.25 204.487 116.812 206.646 115.406 207.397Z"
        fill="#4986CC" />
    <path
        d="M112.594 159.066H87.5623C82.9685 159.254 79.031 159.442 75.0935 160.193C66.8435 161.882 51.1873 174.269 59.0623 178.774C62.531 180.745 67.031 181.871 71.531 182.152H71.7185C72.8435 182.246 73.8748 182.246 74.9998 182.152H109.687L112.594 159.066Z"
        fill="#4986CC" />
    <path d="M132.469 118.902L132.187 169.579H88.125L87.8438 118.902H132.469Z" fill="#FFDB31" />
    <path
        d="M94.4065 178.586C98.8127 181.12 104.719 182.434 110.625 182.34C115.406 182.246 120.094 181.308 124.031 179.525C124.688 179.243 125.25 178.961 125.813 178.586C134.344 173.612 134.25 165.635 125.625 160.849C125.156 160.568 124.594 160.286 124.031 160.005C120.094 158.222 115.313 157.283 110.531 157.189C104.813 157.189 99.094 158.316 94.6877 160.849C86.0627 165.635 85.8752 173.612 94.4065 178.586Z"
        fill="#FFCF31" />
    <path
        d="M95.4373 161.226C103.687 156.628 116.812 156.628 124.969 161.132C133.219 165.731 133.312 173.332 125.156 178.118C116.906 182.904 103.312 182.998 95.156 178.212C86.906 173.426 87.0935 165.825 95.4373 161.226Z"
        fill="#FFA420" />
    <path
        d="M123.656 160.755C123.469 159.629 123 158.503 122.156 157.471C121.406 156.438 120.375 155.594 119.344 155.218L111.469 152.028C109.406 151.183 108 152.309 108.281 154.468C108.469 155.594 108.938 156.72 109.781 157.752C110.531 158.784 111.563 159.629 112.594 160.004L120.469 163.195C122.531 164.04 124.031 162.914 123.656 160.755Z"
        fill="#5700EB" />
    <path
        d="M123.656 160.755C123.469 159.629 123 158.503 122.156 157.471C121.406 156.438 120.375 155.594 119.344 155.218L115.406 153.623L116.438 161.6L120.375 163.195C122.531 164.04 124.031 162.914 123.656 160.755Z"
        fill="#5700EB" />
    <path
        d="M124.125 164.604C122.906 165.167 121.5 165.448 114.375 162.164L117.844 152.967C125.156 155.876 125.438 156.533 126.188 157.753C127.688 159.911 126.281 163.665 124.125 164.604Z"
        fill="#F05907" />
    <path
        d="M116.625 161.508C114.844 162.821 113.25 162.165 112.875 160.006C112.594 157.848 113.812 154.938 115.5 153.625C117.281 152.311 118.875 152.968 119.156 155.126C119.531 157.285 118.312 160.194 116.625 161.508Z"
        fill="#EB6A00" />
    <path
        d="M114.375 162.164C106.969 159.255 106.781 158.222 106.406 157.19C105.281 154.093 107.344 151.841 108.563 151.278C110.813 150.339 112.594 150.339 117.844 152.967C118.875 153.53 115.5 162.633 114.375 162.164Z"
        fill="#EB6A00" />
    <path
        d="M111 164.793C111.469 165.731 112.406 166.67 113.437 167.327C114.469 167.983 115.687 168.453 116.812 168.547L125.25 168.922C127.5 169.016 128.437 167.514 127.406 165.543C126.937 164.605 126 163.667 124.875 163.01C123.844 162.353 122.625 161.884 121.5 161.79L113.062 161.414C110.906 161.32 109.969 162.822 111 164.793Z"
        fill="#5700EB" />
    <path
        d="M111 164.793C111.469 165.731 112.406 166.67 113.437 167.327C114.469 167.983 115.687 168.453 116.812 168.547L121.031 168.734L117.375 161.602L113.156 161.414C110.906 161.32 109.969 162.822 111 164.793Z"
        fill="#5700EB" />
    <path
        d="M109.312 161.32C110.25 160.381 111.469 159.631 119.344 160.287L119.156 170.047C111.281 169.766 110.812 169.203 109.687 168.358C107.437 166.857 107.531 163.009 109.312 161.32Z"
        fill="#F05907" />
    <path
        d="M117.375 161.695C118.593 159.818 120.375 159.912 121.406 161.882C122.437 163.853 122.25 166.95 121.031 168.827C119.812 170.704 118.031 170.61 117 168.639C116.062 166.575 116.25 163.478 117.375 161.695Z"
        fill="#EB6A00" />
    <path
        d="M119.25 160.287C127.219 160.569 127.781 161.413 128.437 162.258C130.594 164.792 129.375 167.607 128.344 168.545C126.562 170.235 124.875 170.798 119.062 170.047C117.937 169.953 118.125 160.287 119.25 160.287Z"
        fill="#EB6A00" />
    <path
        d="M106.688 158.785C105.75 158.222 104.438 158.035 103.219 158.129C102 158.129 100.688 158.504 99.7502 159.067L92.5315 163.572C90.6565 164.792 90.6565 166.575 92.6252 167.607C93.5627 168.17 94.8752 168.358 96.094 168.264C97.3127 168.264 98.6252 167.888 99.5627 167.325L106.781 162.821C108.656 161.695 108.656 159.818 106.688 158.785Z"
        fill="#5700EB" />
    <path
        d="M106.687 158.785C105.75 158.222 104.437 158.035 103.219 158.129C102 158.129 100.688 158.504 99.75 159.067L96.1875 161.319L103.313 165.073L106.875 162.821C108.656 161.695 108.656 159.818 106.687 158.785Z"
        fill="#5700EB" />
    <path
        d="M110.063 160.757C109.781 162.071 109.219 163.385 102.375 167.232L96.9375 159.068C103.594 154.845 104.25 155.033 105.656 155.033C108.375 155.126 110.531 158.317 110.063 160.757Z"
        fill="#F05907" />
    <path
        d="M103.219 165.075C103.313 167.327 101.813 168.265 99.844 167.233C97.8753 166.201 96.2815 163.573 96.1878 161.321C96.094 159.068 97.594 158.13 99.5628 159.162C101.438 160.195 103.125 162.822 103.219 165.075Z"
        fill="#EB6A00" />
    <path
        d="M102.375 167.232C95.7189 171.549 94.6876 171.173 93.6564 170.892C90.4689 170.047 89.8126 167.044 90.0939 165.73C90.6564 163.384 91.5939 161.883 96.8439 159.161C98.0626 158.598 103.406 166.575 102.375 167.232Z"
        fill="#EB6A00" />
    <path
        d="M114 171.831C113.625 170.799 112.875 169.767 111.937 168.922C111 168.077 109.875 167.421 108.75 167.233L100.5 165.544C98.3437 165.074 97.1249 166.482 97.7812 168.547C98.1562 169.579 98.9062 170.611 99.8437 171.456C100.781 172.3 101.906 172.957 103.031 173.145L111.281 174.834C113.531 175.21 114.75 173.896 114 171.831Z"
        fill="#5700EB" />
    <path
        d="M114 171.83C113.625 170.797 112.875 169.765 111.938 168.921C111 168.076 109.875 167.419 108.75 167.231L104.625 166.387L107.156 173.988L111.281 174.833C113.531 175.208 114.75 173.894 114 171.83Z"
        fill="#5700EB" />
    <path
        d="M115.125 175.491C114 176.242 112.688 176.805 105.094 174.928L106.781 165.262C114.469 166.763 114.844 167.42 115.875 168.359C117.844 170.329 117.187 174.177 115.125 175.491Z"
        fill="#F05907" />
    <path
        d="M107.156 173.896C105.656 175.585 103.969 175.209 103.219 173.145C102.562 171.08 103.125 167.983 104.625 166.388C106.125 164.699 107.812 165.074 108.562 167.139C109.312 169.203 108.656 172.3 107.156 173.896Z"
        fill="#EB6A00" />
    <path
        d="M105.094 174.927C97.2186 173.426 96.8436 172.394 96.2811 171.549C94.5936 168.734 96.1873 166.106 97.3123 165.355C99.3748 163.948 101.062 163.666 106.781 165.261C107.906 165.637 106.312 175.209 105.094 174.927Z"
        fill="#EB6A00" />
    <path
        d="M125.25 170.048C124.406 169.391 123.094 169.015 121.875 168.828C120.656 168.64 119.344 168.828 118.313 169.297L110.531 172.675C108.469 173.52 108.281 175.397 110.063 176.711C110.906 177.368 112.219 177.743 113.438 177.931C114.656 178.025 115.969 177.931 117 177.461L124.781 174.083C126.844 173.145 127.031 171.362 125.25 170.048Z"
        fill="#5700EB" />
    <path
        d="M125.25 170.048C124.406 169.391 123.094 169.015 121.875 168.828C120.656 168.64 119.344 168.828 118.313 169.297L114.469 170.986L120.937 175.772L124.781 174.083C126.844 173.145 127.031 171.362 125.25 170.048Z"
        fill="#5700EB" />
    <path
        d="M128.344 172.487C127.875 173.707 127.125 175.021 119.813 177.836L115.594 169.015C122.719 165.73 123.469 166.105 124.781 166.293C127.5 166.669 129.188 170.141 128.344 172.487Z"
        fill="#EB6A00" />
    <path
        d="M120.844 175.772C120.562 177.93 118.969 178.681 117.187 177.367C115.406 176.053 114.187 173.238 114.469 170.986C114.75 168.827 116.344 168.076 118.125 169.39C119.906 170.704 121.125 173.519 120.844 175.772Z"
        fill="#F05907" />
    <path
        d="M119.813 177.741C112.594 181.026 111.656 180.463 110.719 180.087C107.719 178.774 107.531 175.677 108 174.457C108.844 172.205 110.063 170.891 115.688 168.92C116.719 168.545 120.844 177.272 119.813 177.741Z"
        fill="#F05907" />
    <path
        d="M94.5002 118.152C103.219 113.929 117.188 113.929 125.813 118.058C134.438 122.281 134.344 129.132 125.719 133.355C117 137.578 103.031 137.578 94.4064 133.448C85.7814 129.225 85.8752 122.375 94.5002 118.152Z"
        fill="#FFA422" />
    <path
        d="M110.531 119.652V181.496C115.312 181.402 120 180.464 123.938 178.681L124.031 159.255L124.125 119.746H110.531V119.652Z"
        fill="#FFBE45" />
    <path
        d="M94.3127 128.005C103.031 133.073 117.188 132.979 125.906 127.911C134.625 122.844 134.719 114.679 126 109.612C117.281 104.544 103.125 104.638 94.4064 109.705C85.6877 114.867 85.5939 123.031 94.3127 128.005Z"
        fill="#FF7C00" />
    <path
        d="M85.6875 113.928L91.4062 111.019C91.875 110.737 92.3437 110.362 92.9062 110.08C102.469 104.544 117.937 104.544 127.5 109.987C128.062 110.268 128.531 110.644 129.094 111.019L134.625 113.928V120.028C134.625 123.594 132.187 127.254 127.406 129.976C117.844 135.512 102.375 135.512 92.8125 130.069C88.0312 127.348 85.6875 123.688 85.6875 120.028V113.928Z"
        fill="#CAD7D7" />
    <path
        d="M85.6875 110.174L91.4062 107.265C91.875 106.983 92.3437 106.608 92.9062 106.327C102.469 100.79 117.937 100.79 127.5 106.233C128.062 106.514 128.531 106.89 129.094 107.265L134.625 110.174V116.274C134.625 119.84 132.187 123.5 127.406 126.222C117.844 131.759 102.375 131.759 92.8125 126.316C88.0312 123.594 85.6875 119.934 85.6875 116.274V110.174Z"
        fill="#9DB5B5" />
    <path
        d="M110.234 128.007C123.748 127.934 134.669 121.572 134.627 113.798C134.585 106.023 123.596 99.7802 110.082 99.8536C96.5683 99.9269 85.6474 106.289 85.6895 114.063C85.7316 121.837 96.7208 128.08 110.234 128.007Z"
        fill="#F1F4F4" />
    <path
        d="M85.125 99.4766V114.398C85.125 115.899 85.5 117.495 86.3438 118.902C86.625 119.466 87 119.935 87.375 120.498C87.8438 121.061 88.3125 121.624 88.875 122.093C89.25 122.375 89.5313 122.75 89.9063 123.032C90.375 123.407 90.8437 123.782 91.4062 124.064C91.6875 124.252 92.0625 124.439 92.3437 124.627C92.3437 124.627 92.4375 124.627 92.4375 124.721C92.9063 125.002 93.375 125.284 93.9375 125.472C94.3125 125.659 94.5938 125.847 94.9688 125.941C95.4375 126.129 96 126.316 96.4688 126.598C96.8438 126.692 97.125 126.879 97.5 126.973C97.9687 127.161 98.5313 127.255 99 127.442C99.375 127.536 99.6563 127.63 100.031 127.724C100.5 127.818 100.969 127.912 101.438 128.005C101.813 128.099 102.188 128.099 102.469 128.193C102.938 128.287 103.406 128.381 103.875 128.475C104.25 128.475 104.531 128.568 104.906 128.568C105.375 128.662 105.844 128.662 106.313 128.662C106.688 128.662 107.062 128.756 107.344 128.756C107.812 128.756 108.281 128.85 108.75 128.85C109.125 128.85 109.406 128.85 109.781 128.85C110.25 128.85 110.719 128.85 111.188 128.85C111.563 128.85 111.844 128.85 112.219 128.756C112.688 128.756 113.156 128.662 113.625 128.662C114 128.662 114.281 128.568 114.656 128.568C115.125 128.475 115.594 128.475 116.063 128.381C116.438 128.287 116.813 128.287 117.094 128.193C117.563 128.099 118.031 128.005 118.5 127.912C118.875 127.818 119.156 127.818 119.531 127.724C120 127.63 120.469 127.536 120.938 127.348L121.969 127.067C122.438 126.879 122.906 126.785 123.375 126.598C123.75 126.504 124.031 126.316 124.406 126.222C124.875 126.035 125.344 125.847 125.813 125.565C126.188 125.378 126.563 125.19 126.844 125.002C127.125 124.909 127.313 124.721 127.5 124.627C127.781 124.533 127.969 124.345 128.156 124.252C128.531 124.064 128.906 123.782 129.188 123.595C129.656 123.219 130.125 122.844 130.594 122.469C130.969 122.093 131.344 121.812 131.625 121.436C132.094 120.967 132.563 120.404 132.938 119.841L133.031 119.747C133.5 119.09 133.781 118.433 134.063 117.87C134.531 116.744 134.813 115.618 134.813 114.492V99.5704L130.594 103.793L129.188 105.201C128.813 105.013 128.531 104.732 128.156 104.544C127.969 104.45 127.781 104.263 127.594 104.169C127.313 103.981 127.031 103.887 126.75 103.7C126.375 103.512 126.094 103.324 125.719 103.137C125.25 102.949 124.781 102.761 124.313 102.48C123.938 102.386 123.656 102.198 123.281 102.104C122.813 101.917 122.344 101.729 121.875 101.635C121.5 101.541 121.219 101.447 120.844 101.353C120.375 101.26 119.906 101.072 119.438 100.978C119.063 100.884 118.781 100.79 118.406 100.79C117.938 100.697 117.469 100.603 117 100.509C116.625 100.415 116.344 100.415 115.969 100.321C115.5 100.227 115.031 100.227 114.563 100.133C114.188 100.133 113.906 100.04 113.531 100.04C113.063 100.04 112.594 99.9458 112.125 99.9458C111.75 99.9458 111.469 99.9458 111.094 99.9458C110.625 99.9458 110.156 99.9458 109.688 99.9458C109.312 99.9458 109.031 99.9458 108.656 99.9458C108.188 99.9458 107.719 99.9458 107.25 100.04C106.875 100.04 106.5 100.04 106.219 100.133C105.75 100.133 105.281 100.227 104.813 100.227C104.438 100.321 104.063 100.321 103.781 100.415C103.313 100.509 102.844 100.509 102.375 100.603C102 100.697 101.625 100.697 101.344 100.79C100.875 100.884 100.406 100.978 99.9375 101.072C99.5625 101.166 99.1875 101.26 98.9062 101.353C98.4375 101.447 97.875 101.635 97.4063 101.823C97.0313 101.917 96.75 102.104 96.375 102.198C95.9063 102.386 95.3438 102.573 94.875 102.855C94.5 102.949 94.2188 103.137 93.8438 103.324C93.375 103.606 92.8125 103.793 92.3437 104.075C91.9687 104.263 91.5938 104.544 91.3125 104.732C91.125 104.826 91.0313 104.92 90.8438 105.013L89.8125 103.981L88.7813 102.949L87.2813 101.541L86.25 100.509L85.125 99.4766Z"
        fill="#DCE4E4" />
    <path
        d="M133.312 101.259V119.652C133.781 118.996 134.062 118.339 134.344 117.776V100.227L133.312 101.259Z"
        fill="#CFDADA" />
    <path
        d="M130.875 103.698V122.28C131.25 121.904 131.625 121.623 131.906 121.247V102.572L130.875 103.698Z"
        fill="#CFDADA" />
    <path
        d="M128.438 104.449V124.063C128.812 123.875 129.188 123.594 129.469 123.406V105.106C129.188 104.918 128.812 104.637 128.438 104.449Z"
        fill="#CFDADA" />
    <path
        d="M126 103.137V125.472C126.375 125.284 126.75 125.096 127.031 124.909V103.606C126.75 103.512 126.375 103.324 126 103.137Z"
        fill="#CFDADA" />
    <path
        d="M123.562 102.104V126.503C123.937 126.409 124.219 126.222 124.594 126.128V102.573C124.313 102.385 123.937 102.291 123.562 102.104Z"
        fill="#CFDADA" />
    <path
        d="M121.125 101.354V127.255L122.156 126.973V101.635C121.781 101.541 121.5 101.447 121.125 101.354Z"
        fill="#CFDADA" />
    <path
        d="M118.688 100.695V127.817C119.062 127.723 119.344 127.723 119.719 127.629V100.977C119.344 100.883 119.062 100.789 118.688 100.695Z"
        fill="#CFDADA" />
    <path
        d="M116.25 100.32V128.38C116.625 128.286 117 128.286 117.281 128.192V100.508C116.906 100.414 116.625 100.32 116.25 100.32Z"
        fill="#CFDADA" />
    <path
        d="M113.812 100.039V128.662C114.188 128.662 114.469 128.568 114.844 128.568V100.133C114.469 100.133 114.094 100.039 113.812 100.039Z"
        fill="#CFDADA" />
    <path
        d="M111.375 99.9453V128.85C111.75 128.85 112.031 128.85 112.406 128.756V99.9453C112.031 99.9453 111.656 99.9453 111.375 99.9453Z"
        fill="#CFDADA" />
    <path
        d="M108.938 99.9453V128.85C109.312 128.85 109.594 128.85 109.969 128.85V99.9453C109.594 99.9453 109.219 99.9453 108.938 99.9453Z"
        fill="#CFDADA" />
    <path
        d="M106.406 100.039V128.662C106.781 128.662 107.156 128.756 107.438 128.756V100.039C107.156 100.039 106.781 100.039 106.406 100.039Z"
        fill="#CFDADA" />
    <path
        d="M103.969 100.414V128.474C104.344 128.474 104.625 128.568 105 128.568V100.227C104.719 100.227 104.344 100.32 103.969 100.414Z"
        fill="#CFDADA" />
    <path
        d="M101.531 100.789V127.911C101.906 128.004 102.281 128.004 102.562 128.098V100.508C102.281 100.696 101.906 100.696 101.531 100.789Z"
        fill="#CFDADA" />
    <path
        d="M99.0938 101.448V127.349C99.4687 127.443 99.75 127.537 100.125 127.63V101.072C99.8437 101.26 99.4687 101.354 99.0938 101.448Z"
        fill="#CFDADA" />
    <path
        d="M96.5625 102.291V126.597C96.9375 126.691 97.2188 126.879 97.5938 126.973V101.916C97.2188 102.01 96.9375 102.104 96.5625 102.291Z"
        fill="#CFDADA" />
    <path
        d="M94.0312 103.419V125.472C94.4062 125.66 94.6875 125.847 95.0625 125.941V102.855C94.6875 103.043 94.4062 103.231 94.0312 103.419Z"
        fill="#CFDADA" />
    <path
        d="M91.4062 104.825V123.969C91.6875 124.157 92.0625 124.345 92.3437 124.532C92.3437 124.532 92.4375 124.532 92.4375 124.626V104.168C92.1563 104.356 91.7812 104.637 91.4062 104.825Z"
        fill="#CFDADA" />
    <path
        d="M88.875 103.043V122C89.25 122.281 89.5313 122.657 89.9063 122.938V104.075L88.875 103.043Z"
        fill="#CFDADA" />
    <path
        d="M86.3438 100.602V118.901C86.625 119.464 87 119.934 87.375 120.497V101.728L86.3438 100.602Z"
        fill="#CFDADA" />
    <path
        d="M92.4385 109.705C102.189 115.335 118.032 115.335 127.782 109.611C137.532 103.98 137.626 94.7835 127.876 89.1528C118.126 83.5221 102.282 83.5221 92.5323 89.2466C82.6885 94.9712 82.6885 104.074 92.4385 109.705Z"
        fill="#EBEFEF" />
    <path
        d="M94.7813 90.5605C103.313 85.5867 117.188 85.5867 125.625 90.4667C134.156 95.3466 134.063 103.323 125.531 108.297C117 113.271 103.125 113.271 94.6875 108.391C86.1563 103.511 86.1563 95.5343 94.7813 90.5605Z"
        fill="#D9E2E2" />
    <path
        d="M94.7813 90.5605C103.313 85.5867 117.188 85.5867 125.625 90.4667C125.813 90.5605 126 90.7482 126.188 90.842C117.656 87.0882 105 87.3698 97.0313 91.6867C88.5 96.2851 88.4063 103.699 96.9376 108.297C102.281 111.113 109.594 112.239 116.531 111.488C109.031 112.802 100.594 111.769 94.6875 108.391C86.1563 103.511 86.1563 95.5343 94.7813 90.5605Z"
        fill="#9DB5B5" />
    <path
        d="M125.625 92.8128C117.094 87.9329 103.312 87.9328 94.7811 92.9066C91.0311 95.0651 88.8748 97.8804 88.4061 100.696C87.8436 97.0358 89.9061 93.282 94.7811 90.5605C103.312 85.5867 117.187 85.5867 125.625 90.4667C130.406 93.1882 132.469 96.942 131.906 100.508C131.437 97.6927 129.375 94.9712 125.625 92.8128Z"
        fill="#CAD7D7" />
    <path
        d="M132.469 157.471L132.187 165.166C132.187 165.823 132.094 166.48 132 167.043C131.156 169.014 129.094 170.891 126 172.392C117.469 176.521 103.875 176.709 95.1562 172.767V164.884C103.875 168.826 117.469 168.638 126 164.509C129.094 163.008 131.156 161.131 132 159.16C132.188 158.597 132.375 158.034 132.469 157.471Z"
        fill="#EF2C1F" />
    <path
        d="M132.469 137.67L132.187 157.19C132.187 157.847 132.094 158.503 132 159.067C131.344 161.6 129.281 164.134 125.906 166.105C125.344 166.48 124.688 166.762 124.125 167.043C120.188 168.92 115.5 169.859 110.719 169.859C105.094 169.953 99.5625 168.826 95.1562 166.574V145.084C103.875 149.025 117.469 148.837 126 144.708C129.469 143.019 131.531 140.954 132.281 138.702C132.281 138.421 132.375 138.045 132.469 137.67Z"
        fill="#EBEFEF" />
    <path
        d="M132.188 138.797V139.923C132.188 140.298 132.188 140.58 132.094 140.955C131.25 143.114 129.281 145.084 125.906 146.68C117.375 150.809 103.781 150.997 95.0625 147.055V145.084C103.781 149.026 117.375 148.838 125.906 144.709C129.375 143.114 131.438 141.049 132.188 138.797Z"
        fill="#EF2C1F" />
    <path
        d="M96.9375 158.504V166.105C96.9375 166.105 100.406 167.607 106.687 167.982C112.969 168.358 113.719 167.795 113.719 167.795V160.568C113.812 160.568 104.062 161.413 96.9375 158.504Z"
        fill="#93A9A9" />
    <path
        d="M106.781 158.223C100.5 157.847 97.0312 156.346 97.0312 156.346V157.472C97.0312 157.472 100.5 158.973 106.781 159.349C113.062 159.724 113.812 159.349 113.812 159.349V158.223C113.812 158.223 113.062 158.598 106.781 158.223Z"
        fill="#93A9A9" />
    <path
        d="M131.531 143.395C131.531 143.395 129.281 148.274 120.844 150.058C112.406 151.841 108 151.09 108 151.09V152.967C108 152.967 114.469 153.53 122.062 151.653C129.562 149.776 131.531 145.365 131.531 145.365V143.395Z"
        fill="#93A9A9" />
    <path
        d="M131.531 162.82C131.531 162.82 129.281 167.794 120.844 170.14C112.406 172.392 108 171.923 108 171.923V173.8C108 173.8 114.469 173.988 122.062 171.642C129.562 169.389 131.531 164.885 131.531 164.885V162.82Z"
        fill="#EBEFEF" />
    <path
        d="M117.937 206.551C116.718 207.208 115.218 207.584 113.812 207.584C112.875 207.584 112.031 207.49 111.281 207.208C111.187 207.208 111.187 207.208 111.093 207.114C110.906 207.021 110.812 206.927 110.625 206.927L105.281 203.83L104.156 203.173L97.3121 199.232L96.1871 198.575L89.3433 194.633L88.2183 193.976L84.7496 191.912C83.9058 191.442 83.1558 190.41 82.9683 189.847C82.4996 188.627 82.2183 186.093 82.9683 185.061C83.0621 184.967 83.1558 184.779 83.3433 184.686L86.6246 186.469C86.8121 186.375 86.9058 186.281 86.9996 186.281C88.2183 185.812 89.2496 186.469 90.2808 187.219C90.5621 187.407 90.8433 187.689 91.1246 187.876C91.4058 188.064 91.5933 188.252 91.8746 188.439L98.9996 191.255L100.125 191.724L103.312 192.944L108.468 194.915L109.687 195.384L116.531 198.012L118.593 198.762L119.437 199.044C120.468 201.39 120.843 204.768 117.937 206.551Z"
        fill="#C1CFCF" />
    <path
        d="M117.937 202.142C116.719 202.799 115.219 203.174 113.812 203.174C113.156 203.174 112.406 203.08 111.844 202.892C111.562 202.799 111.281 202.705 111 202.611C110.906 202.517 110.812 202.517 110.719 202.423L105.281 199.326L104.719 199.045L104.25 198.763L97.3123 194.728L96.7498 194.446L96.2811 194.165L89.3436 190.129L88.7811 189.848L88.3123 189.566L84.1873 187.126C83.2498 186.563 82.8748 185.813 82.9686 185.062C83.0623 184.311 83.7186 183.56 84.7498 182.903C85.5936 182.434 86.7186 182.059 87.7498 181.965C88.1248 181.871 88.4998 181.871 88.8748 181.871C90.0936 181.871 91.2186 182.153 92.0623 182.622L117.937 197.543L118.406 197.825C119.062 198.2 119.437 198.669 119.531 199.139C119.906 200.265 119.25 201.297 117.937 202.142Z"
        fill="#E3E8E8" />
    <path
        d="M110.812 204.675C110.812 205.708 111 206.458 111.281 207.115C111.187 207.115 111.187 207.115 111.093 207.022C110.906 206.928 110.812 206.834 110.625 206.834L105.281 203.737L104.156 203.08L97.3121 199.139L96.1871 198.482L89.3433 194.54L88.2183 193.883L84.7496 191.819C83.9058 191.349 83.1558 190.317 82.9683 189.754C82.4996 188.534 82.2183 186 82.9683 184.968C83.0621 184.217 83.7183 183.466 84.7496 182.81C85.5933 182.34 86.7183 181.965 87.7496 181.871C88.8746 182.622 97.0308 188.159 103.5 192.851C108 196.136 111.75 198.951 111.75 199.42C111.75 199.42 111.187 200.452 110.906 202.517C110.906 203.174 110.812 203.925 110.812 204.675Z"
        fill="#E9EFEF" />
    <path
        d="M118.781 198.669C118.781 198.763 118.781 198.857 118.687 198.951C118.593 199.326 118.218 199.701 117.468 200.171C116.531 200.734 115.218 201.015 113.906 201.015C112.875 201.015 111.937 200.827 111.281 200.452L106.5 197.731L105.562 197.168L98.6245 193.132L97.687 192.569L90.6558 188.534L89.7183 187.971L87.0933 186.469L85.0308 185.249C84.7495 185.062 84.2808 184.78 84.2808 184.405C84.2808 184.029 84.562 183.466 85.4995 182.997C86.437 182.434 87.7495 182.152 89.062 182.152C90.0933 182.152 91.0308 182.34 91.687 182.715L95.9058 185.155L96.937 185.718L103.875 189.754L104.906 190.317L111.843 194.352L112.875 194.915L118.125 198.012C118.406 197.918 118.781 198.294 118.781 198.669Z"
        fill="#F9F9F9" />
    <path
        d="M96.937 185.532L96.187 185.626C94.312 185.907 92.6245 186.752 91.2183 187.972C91.0308 188.159 90.8433 188.253 90.7495 188.441C90.4683 188.722 90.187 189.004 89.9058 189.379L89.3433 190.13L88.7808 189.849L88.312 189.567C88.4995 189.192 88.9683 188.722 88.9683 188.722C89.1558 188.441 89.437 188.159 89.6245 187.972C89.812 187.784 89.9995 187.596 90.187 187.409C91.5933 186.189 93.2808 185.438 95.1558 185.156L95.7183 185.062L96.0933 185.25L96.937 185.532Z"
        fill="#C6D3D3" />
    <path
        d="M104.906 190.129L104.156 190.223C102.75 190.411 101.437 190.974 100.312 191.725C99.7495 192.1 99.187 192.569 98.7183 193.039C98.437 193.32 98.1558 193.602 97.8745 193.977L97.312 194.728L96.7495 194.446L96.2808 194.165C96.4683 193.789 97.0308 193.32 97.0308 193.32C97.2183 193.039 97.4995 192.757 97.687 192.569C98.1558 192.1 98.6245 191.725 99.0933 191.349C100.312 190.505 101.718 189.942 103.218 189.66L103.781 189.566L104.156 189.754L104.906 190.129Z"
        fill="#C6D3D3" />
    <path
        d="M112.781 194.727L112.031 194.821C111.281 194.915 110.531 195.196 109.875 195.478C108.656 195.947 107.531 196.698 106.593 197.636C106.312 197.918 106.031 198.199 105.75 198.575L105.187 199.325L104.625 199.044L104.156 198.762C104.343 198.387 104.812 197.918 104.812 197.918C105 197.636 105.281 197.355 105.468 197.167C106.312 196.322 107.343 195.572 108.468 195.102C109.312 194.727 110.156 194.446 111.093 194.352L111.656 194.258L112.031 194.446L112.781 194.727Z"
        fill="#C6D3D3" />
    <path
        d="M96.937 185.532L96.187 185.625C94.312 185.907 92.6245 186.752 91.2183 187.972C91.0308 188.159 90.8433 188.253 90.7495 188.441C90.4683 188.722 90.187 189.004 89.9058 189.379L89.3433 190.13L88.7808 189.848C88.9683 189.473 89.5308 188.91 89.5308 188.91C89.7183 188.628 89.9995 188.347 90.187 188.159C90.3745 187.971 90.562 187.784 90.7495 187.596C92.1558 186.376 93.8433 185.625 95.7183 185.344L96.187 185.25L96.937 185.532Z"
        fill="#A0B6B6" />
    <path
        d="M104.906 190.129L104.156 190.223C102.75 190.411 101.437 190.974 100.312 191.725C99.7495 192.1 99.187 192.569 98.7183 193.038C98.437 193.32 98.1558 193.602 97.8745 193.977L97.312 194.728L96.7495 194.446C96.937 194.071 97.4995 193.508 97.4995 193.508C97.687 193.226 97.9683 192.945 98.1558 192.757C98.6245 192.288 99.0933 191.912 99.562 191.537C100.781 190.692 102.187 190.129 103.687 189.848L104.156 189.754L104.906 190.129Z"
        fill="#A0B6B6" />
    <path
        d="M112.781 194.727L112.031 194.821C111.281 194.915 110.531 195.196 109.875 195.478C108.656 195.947 107.531 196.698 106.593 197.636C106.312 197.918 106.031 198.199 105.75 198.574L105.187 199.325L104.625 199.044C104.812 198.668 105.375 198.105 105.375 198.105C105.562 197.824 105.843 197.542 106.031 197.355C106.875 196.51 107.906 195.759 109.031 195.29C109.875 194.915 110.718 194.633 111.656 194.539L112.125 194.445L112.781 194.727Z"
        fill="#A0B6B6" />
    <path
        d="M118.687 186.001C119.906 186.658 121.406 187.033 122.812 187.033C123.468 187.033 124.218 186.939 124.781 186.752C125.062 186.658 128.718 186.376 129 186.283C129.093 186.189 129.187 186.189 129.281 186.095L131.343 183.186L131.906 182.904L132.375 182.623L139.312 178.587L139.875 178.306L140.343 178.024L147.281 173.989L147.843 173.707L148.312 173.426L152.437 170.986C153.375 170.423 153.75 169.672 153.656 168.921C153.562 168.17 152.906 167.42 151.875 166.763C151.031 166.294 149.906 165.918 148.875 165.824C148.5 165.73 148.125 165.73 147.75 165.73C146.531 165.73 145.406 166.012 144.562 166.481L118.687 181.403L118.218 181.684C117.562 182.059 117.187 182.529 117.093 182.998C116.625 184.124 117.281 185.25 118.687 186.001Z"
        fill="#4986CC" />
    <path
        d="M123.469 185.53C124.687 186.187 126.187 186.562 127.594 186.562C128.531 186.562 129.375 186.468 130.125 186.187C130.219 186.187 130.219 186.187 130.312 186.093C130.5 185.999 130.594 185.905 130.781 185.905L136.125 182.808L137.25 182.151L144.094 178.21L145.219 177.553L152.062 173.612L153.187 172.955L156.656 170.89C157.5 170.421 158.25 169.389 158.437 168.826C158.906 167.606 159.187 165.072 158.437 164.039C158.344 163.946 158.25 163.758 158.062 163.664L154.781 165.447C154.594 165.353 154.5 165.259 154.406 165.259C153.187 164.79 152.156 165.447 151.125 166.198C150.844 166.386 150.562 166.667 150.281 166.855C150 167.042 149.812 167.23 149.531 167.418L142.406 170.233L141.281 170.702L138.094 171.922L132.937 173.893L131.719 174.362L124.875 176.99L122.812 177.741L121.969 178.022C120.844 180.368 120.469 183.653 123.469 185.53Z"
        fill="#A9BDBD" />
    <path
        d="M123.468 181.026C124.687 181.683 126.187 182.059 127.593 182.059C128.249 182.059 129 181.965 129.562 181.777C129.843 181.683 130.124 181.589 130.406 181.495C130.499 181.402 130.593 181.402 130.687 181.308L136.125 178.211L136.687 177.929L137.156 177.648L144.093 173.612L144.656 173.331L145.124 173.049L152.062 169.014L152.624 168.733L153.093 168.451L157.218 166.011C158.156 165.448 158.531 164.697 158.437 163.946C158.343 163.196 157.687 162.445 156.656 161.882C155.812 161.413 154.687 161.037 153.656 160.943C153.281 160.85 152.906 160.85 152.531 160.85C151.312 160.85 150.187 161.131 149.343 161.6L123.468 176.522L123 176.803C122.343 177.179 121.968 177.648 121.874 178.117C121.499 179.149 122.062 180.275 123.468 181.026Z"
        fill="#D7DEDE" />
    <path
        d="M130.5 183.654C130.5 184.686 130.312 185.437 130.031 186.094C130.125 186.094 130.125 186.094 130.218 186C130.406 185.906 130.5 185.812 130.687 185.812L136.031 182.715L137.156 182.058L144 178.117L145.125 177.46L151.968 173.519L153.093 172.862L156.562 170.797C157.406 170.328 158.156 169.296 158.343 168.732C158.812 167.512 159.093 164.979 158.343 163.946C158.25 163.196 157.593 162.445 156.562 161.882C155.718 161.413 154.593 161.037 153.562 160.943C152.437 161.694 144.281 167.231 137.812 171.923C133.312 175.208 129.562 178.023 129.562 178.492C129.562 178.492 130.125 179.525 130.406 181.589C130.5 182.152 130.5 182.809 130.5 183.654Z"
        fill="#A9BDBD" />
    <path
        d="M122.531 177.648C122.531 177.741 122.531 177.835 122.625 177.929C122.718 178.304 123.093 178.68 123.843 179.149C124.781 179.712 126.093 179.994 127.406 179.994C128.437 179.994 129.375 179.806 130.031 179.431L134.812 176.709L135.75 176.146L142.687 172.111L143.625 171.548L150.656 167.512L151.593 166.949L154.218 165.448L156.281 164.228C156.562 164.04 157.031 163.759 157.031 163.383C157.031 163.008 156.75 162.445 155.812 161.975C154.875 161.412 153.562 161.131 152.25 161.131C151.218 161.131 150.281 161.319 149.625 161.694L145.406 164.134L144.375 164.697L137.437 168.732L136.406 169.295L129.468 173.331L128.437 173.894L123.187 176.991C123 176.897 122.531 177.178 122.531 177.648Z"
        fill="#F9F9F9" />
    <path
        d="M144.375 164.51L145.125 164.604C147 164.886 148.687 165.73 150.093 166.95C150.281 167.138 150.468 167.232 150.562 167.419C150.843 167.701 151.125 167.982 151.406 168.358L151.968 169.109L152.531 168.827L153 168.546C152.812 168.17 152.343 167.701 152.343 167.701C152.156 167.419 151.875 167.138 151.687 166.95C151.5 166.763 151.312 166.575 151.125 166.387C149.718 165.167 148.031 164.416 146.156 164.135L145.593 164.041L145.218 164.229L144.375 164.51Z"
        fill="#C6D3D3" />
    <path
        d="M136.5 169.108L137.25 169.202C138.656 169.39 139.968 169.953 141.093 170.703C141.656 171.079 142.218 171.548 142.687 172.017C142.968 172.299 143.25 172.58 143.531 172.956L144.093 173.706L144.656 173.425L145.124 173.143C144.937 172.768 144.374 172.299 144.374 172.299C144.187 172.017 143.906 171.736 143.718 171.548C143.249 171.079 142.781 170.703 142.312 170.328C141.093 169.483 139.687 168.92 138.187 168.639L137.625 168.545L137.25 168.733L136.5 169.108Z"
        fill="#C6D3D3" />
    <path
        d="M128.531 173.706L129.281 173.799C130.031 173.893 130.781 174.175 131.437 174.456C132.656 174.926 133.781 175.676 134.718 176.615C135 176.896 135.281 177.178 135.562 177.553L136.125 178.304L136.687 178.022L137.156 177.741C136.968 177.365 136.5 176.896 136.5 176.896C136.312 176.615 136.031 176.333 135.843 176.146C135 175.301 133.968 174.55 132.843 174.081C132 173.706 131.156 173.424 130.218 173.33L129.656 173.236L129.281 173.424L128.531 173.706Z"
        fill="#C6D3D3" />
    <path
        d="M144.375 164.51L145.125 164.604C147 164.885 148.687 165.73 150.093 166.95C150.281 167.138 150.468 167.232 150.562 167.419C150.843 167.701 151.125 167.982 151.406 168.358L151.968 169.108L152.531 168.827C152.343 168.452 151.781 167.888 151.781 167.888C151.593 167.607 151.312 167.325 151.125 167.138C150.937 166.95 150.75 166.762 150.562 166.575C149.156 165.355 147.468 164.604 145.593 164.322L145.125 164.229L144.375 164.51Z"
        fill="#A0B6B6" />
    <path
        d="M136.5 169.108L137.25 169.202C138.656 169.389 139.968 169.952 141.093 170.703C141.656 171.079 142.218 171.548 142.687 172.017C142.968 172.299 143.25 172.58 143.531 172.955L144.093 173.706L144.656 173.425C144.468 173.049 143.906 172.486 143.906 172.486C143.718 172.205 143.437 171.923 143.25 171.735C142.781 171.266 142.312 170.891 141.843 170.515C140.625 169.671 139.218 169.108 137.718 168.826L137.25 168.732L136.5 169.108Z"
        fill="#A0B6B6" />
    <path
        d="M128.531 173.707L129.281 173.801C130.031 173.895 130.781 174.177 131.437 174.458C132.656 174.927 133.781 175.678 134.718 176.617C135 176.898 135.281 177.18 135.562 177.555L136.125 178.306L136.687 178.024C136.5 177.649 135.937 177.086 135.937 177.086C135.75 176.804 135.468 176.523 135.281 176.335C134.437 175.49 133.406 174.74 132.281 174.27C131.437 173.895 130.593 173.613 129.656 173.52L129.187 173.426L128.531 173.707Z"
        fill="#A0B6B6" />
    <defs>
        <linearGradient id="paint0_linear" x1="147.688" y1="77.4011" x2="198.858" y2="113.236"
            gradientUnits="userSpaceOnUse">
            <stop offset="0.024324" stop-color="#FF383D" />
            <stop offset="0.5811" stop-color="#FF2E33" />
            <stop offset="0.9595" stop-color="#BD2E33" />
        </linearGradient>
        <linearGradient id="paint1_linear" x1="220.277" y1="94.6429" x2="183.454" y2="68.9331"
            gradientUnits="userSpaceOnUse">
            <stop offset="0.024324" stop-color="#FF383D" />
            <stop offset="0.5811" stop-color="#FF2E33" />
            <stop offset="0.9595" stop-color="#BD2E33" />
        </linearGradient>
        <linearGradient id="paint2_linear" x1="25.7088" y1="55.7729" x2="89.8817" y2="55.7729"
            gradientUnits="userSpaceOnUse">
            <stop offset="0.1613" stop-color="#C6C7B9" />
            <stop offset="0.1633" stop-color="#E6E7D6" />
            <stop offset="0.5593" stop-color="#E6E7D6" />
            <stop offset="0.5622" stop-color="#F2F3E3" />
            <stop offset="0.8728" stop-color="#F2F3E3" />
            <stop offset="0.8739" stop-color="#E4E5D5" />
        </linearGradient>
        <linearGradient id="paint3_linear" x1="27.9351" y1="50.2694" x2="87.6553" y2="50.2694"
            gradientUnits="userSpaceOnUse">
            <stop offset="0.1613" stop-color="#C6C7B9" />
            <stop offset="0.1633" stop-color="#E6E7D6" />
            <stop offset="0.5593" stop-color="#E6E7D6" />
            <stop offset="0.5622" stop-color="#F2F3E3" />
            <stop offset="0.8728" stop-color="#F2F3E3" />
            <stop offset="0.8739" stop-color="#E4E5D5" />
        </linearGradient>
        <linearGradient id="paint4_linear" x1="35.0244" y1="39.2985" x2="80.6756" y2="39.2985"
            gradientUnits="userSpaceOnUse">
            <stop offset="0.1261" stop-color="#E4E5D5" />
            <stop offset="0.1272" stop-color="#F2F3E3" />
            <stop offset="0.4378" stop-color="#F2F3E3" />
            <stop offset="0.4407" stop-color="#E6E7D6" />
            <stop offset="0.8367" stop-color="#E6E7D6" />
            <stop offset="0.8387" stop-color="#C6C7B9" />
        </linearGradient>
        <linearGradient id="paint5_linear" x1="37.2431" y1="116.849" x2="78.3802" y2="116.849"
            gradientUnits="userSpaceOnUse">
            <stop offset="0.1613" stop-color="#C6C7B9" />
            <stop offset="0.1633" stop-color="#E6E7D6" />
            <stop offset="0.5593" stop-color="#E6E7D6" />
            <stop offset="0.5622" stop-color="#F2F3E3" />
            <stop offset="0.8728" stop-color="#F2F3E3" />
            <stop offset="0.8739" stop-color="#E4E5D5" />
        </linearGradient>
    </defs>
</svg>
