<svg width="312" height="226" viewBox="0 0 312 226" fill="none" xmlns="http://www.w3.org/2000/svg">
    <path
        d="M310.621 136.194C310.888 86.801 241.849 46.3841 156.418 45.9204C70.986 45.4568 1.51317 85.1219 1.24564 134.515C0.978107 183.908 70.0172 224.325 155.449 224.789C240.88 225.252 310.353 185.587 310.621 136.194Z"
        fill="#71AAEB" />
    <path
        d="M269.875 174.305C264.907 171.396 256.938 171.396 251.969 174.305C247 177.12 247.094 181.813 252.063 184.628C257.032 187.537 274.282 187.912 279.157 185.003C284.032 182.188 274.844 177.214 269.875 174.305Z"
        fill="#4986CC" />
    <path
        d="M248.969 171.3C248.969 171.3 242.5 175.336 238.094 176.087C233.781 176.743 229.75 177.776 224.969 176.087C220.188 174.397 221.313 171.77 223.75 170.08C226.094 168.297 243.25 158.068 243.25 158.068C243.25 158.068 266.219 160.227 248.969 171.3Z"
        fill="#4986CC" />
    <path
        d="M257.781 153.564C257.781 155.722 257.031 158.256 255.719 160.415C254.5 162.573 252.719 164.544 250.75 165.576L236.125 174.022C232.281 176.274 229.188 174.491 229.188 170.081C229.188 167.922 229.938 165.388 231.25 163.23C232.469 161.071 234.25 159.101 236.125 158.068L250.75 149.622C254.594 147.37 257.781 149.153 257.781 153.564Z"
        fill="#175AFF" />
    <path
        d="M257.781 153.564C257.781 155.723 257.031 158.256 255.719 160.415C254.5 162.573 252.719 164.544 250.75 165.576L243.438 169.799V153.752L250.75 149.529C254.594 147.37 257.781 149.153 257.781 153.564Z"
        fill="#175AFF" />
    <path
        d="M257.5 145.869C254.969 145.119 252.062 144.837 238.844 153.283L248.031 170.457C261.719 162.762 262 161.354 263.312 158.914C265.844 154.128 262.187 147.183 257.5 145.869Z"
        fill="#175AFF" />
    <path
        d="M263.594 154.69C263.5 151.218 260.875 146.62 257.5 146.526C255.625 146.432 254.594 146.714 253.656 148.215C252.531 149.998 253.469 151.5 254.5 153.001C255.438 154.503 256.281 156.192 256.563 157.881C256.656 158.35 256.75 158.914 257.125 159.289C257.313 159.477 257.594 159.57 257.781 159.664C260.406 160.415 262.656 159.101 263.313 156.849C263.5 156.192 263.594 155.441 263.594 154.69Z"
        fill="#3972FF" />
    <path
        d="M261.532 149.436C260.969 148.122 259.75 147.559 258.438 147.653C257.688 147.653 257.407 148.122 257.219 148.779C257.032 149.623 257.594 149.999 258.25 150.468C258.813 150.937 259.375 151.406 259.75 151.969C259.844 152.157 259.938 152.345 260.125 152.439C260.219 152.439 260.313 152.439 260.407 152.439C261.532 152.345 261.813 151.219 261.719 150.28C261.719 149.999 261.625 149.717 261.532 149.436Z"
        fill="#7FA4FF" />
    <path
        d="M243.437 153.941C239.594 151.688 236.5 153.472 236.5 157.882C236.5 162.293 239.594 167.642 243.437 169.801C247.281 172.053 250.375 170.27 250.375 165.859C250.375 161.448 247.281 156.099 243.437 153.941Z"
        fill="#F1F4F4" />
    <path
        d="M238.938 153.283C225.063 161.072 224.875 163.137 224.406 165.202C222.906 171.583 227.594 175.525 230.219 176.275C234.906 177.589 238.375 177.12 248.125 170.457C250.094 169.049 241 152.063 238.938 153.283Z"
        fill="#F1F4F4" />
    <path
        d="M281.875 173.741L278.875 175.805C278.594 175.618 278.406 175.524 278.125 175.336C273.156 172.427 265.187 172.427 260.219 175.336C259.937 175.524 259.656 175.712 259.375 175.805L256.469 173.741V180.498C256.469 182.375 257.687 184.251 260.219 185.659C265.187 188.568 273.156 188.568 278.125 185.659C280.562 184.251 281.781 182.375 281.781 180.498V173.741H281.875Z"
        fill="#DCE4E4" />
    <path
        d="M278.219 178.151C273.25 180.967 265.281 180.967 260.313 178.151C255.344 175.242 255.344 170.644 260.219 167.828C265.188 165.013 273.156 165.013 278.125 167.828C283.094 170.644 283.094 175.336 278.219 178.151Z"
        fill="#F1F4F4" />
    <path
        d="M130.562 96.6953C130.562 96.6953 100.281 118.373 106.938 130.573C113.687 142.679 142.094 153.284 166.469 159.102C190.844 164.921 201.156 163.137 213.531 163.701C225.906 164.357 239.687 152.251 250.75 137.049C261.812 121.94 266.219 116.309 266.219 116.309C266.219 116.309 270.25 109.646 248.031 107.581C225.906 105.517 130.562 96.6953 130.562 96.6953Z"
        fill="#4986CC" />
    <path
        d="M164.312 47.3333C164.312 47.3333 133.094 62.2547 117.437 79.7098C101.781 97.165 100.188 106.362 100.188 106.362C100.188 106.362 127.563 136.392 151.094 145.777C174.625 155.161 199.094 154.692 212.687 151.783C226.281 148.874 264.062 122.503 271.937 91.9097C258.344 68.9177 229.375 72.5776 209.594 65.5393C189.719 58.5947 182.031 44.0488 164.312 47.3333Z"
        fill="#F1F4F4" />
    <path
        d="M166.469 55.4045C170.404 55.4045 173.594 52.3373 173.594 48.5538C173.594 44.7703 170.404 41.7031 166.469 41.7031C162.534 41.7031 159.344 44.7703 159.344 48.5538C159.344 52.3373 162.534 55.4045 166.469 55.4045Z"
        fill="#F1F4F4" />
    <path
        d="M264.812 83.2773C266.031 84.9666 267.25 86.6558 268.281 88.5327C260.406 119.126 225.156 135.83 211.563 138.646C197.969 141.555 174.531 138.74 151.094 129.355C127.563 119.971 103.375 100.732 103.375 100.732C103.375 100.732 103.281 100.076 103.281 98.8556C100.563 103.829 100.094 106.363 100.094 106.363C100.094 106.363 127.469 136.394 151 145.778C174.531 155.163 199 154.693 212.594 151.784C226.188 148.875 263.969 122.504 271.844 91.9111C269.969 88.5327 267.531 85.7173 264.812 83.2773Z"
        fill="#CACACA" />
    <path
        d="M220 75.769C220 75.0183 220 74.2675 219.719 73.6106C219.438 72.9537 218.875 72.4844 218.313 72.1091C217.094 71.1706 215.5 70.0445 213.906 69.6691C211.563 69.1999 208.938 69.3876 206.5 68.9183C191.219 66.1968 176.5 60.7538 162.344 54.3724C161.688 54.0908 161.219 54.3724 160.938 55.0293C160.375 55.9677 160 57 159.625 58.1262C157.844 57.2816 155.969 56.6247 154.094 56.1554C155.313 56.8124 156.156 57.9385 156.438 59.2523C156.625 60.2846 156.531 61.7861 155.875 62.6307C155.687 62.9123 153.625 64.0384 154.281 64.6015C155.594 65.6338 157.563 65.4461 159.063 66.2907C160.75 67.2291 161.406 69.1999 162.437 70.7952C164.312 73.7983 167.687 75.769 171.062 76.8013C174.531 77.7398 178.094 77.9274 181.75 78.0213C183.813 78.1151 185.969 78.1151 188.031 77.7398C190.656 77.2705 193.281 75.9567 195.813 76.7075C195.906 79.8982 194.406 82.9951 191.875 84.872C189.344 86.7489 185.781 87.1242 182.875 85.9981C182.5 86.5612 182.406 88.0627 182.219 88.8134C181.844 90.315 181.75 92.098 180.625 93.2242C180.438 93.4119 180.25 93.5995 180.156 93.8811C180.156 94.0688 180.25 94.2565 180.25 94.3503C181.469 96.6964 183.906 98.1041 186.344 99.0425C188.781 99.981 191.5 100.544 194.125 100.169C195.719 99.8871 197.313 99.3241 198.813 98.6672C202 97.3533 205.188 96.0395 208.375 94.7257C211 93.6934 215.031 92.8488 217.188 91.0657C218.781 89.7519 218.594 86.1858 218.5 84.2151C218.5 83.1828 218.219 82.6197 218.781 81.6812C219.438 80.6489 220.563 79.8043 221.688 79.2413C223.281 78.4905 225.156 78.1151 226.938 78.0213C229.75 77.7397 232.656 77.7398 235.563 77.7398C230.5 76.4259 225.156 76.2382 220 77.0828C220 76.7075 220 76.2382 220 75.769Z"
        fill="#D6D6D6" />
    <path
        d="M189.063 59.7207C189.156 63.2868 186.719 66.759 177.25 68.1667C177.25 68.1667 165.438 76.0497 160.281 65.539C156.719 58.313 160.656 52.0254 166.188 49.3039C168.625 48.0839 171.438 47.5208 174.063 47.8962C180.906 49.0224 186.438 51.1808 188.406 56.1546C188.5 56.3423 188.5 56.4361 188.594 56.6238C188.781 57.5622 188.969 58.5945 189.063 59.7207Z"
        fill="#F1A725" />
    <path
        d="M188.5 56.6246C188.219 59.4399 171.531 67.886 164.031 66.5721C162.625 66.2906 161.313 65.9152 160.281 65.5399C156.719 58.3138 160.656 52.0262 166.188 49.3047C166.188 49.3047 164.125 51.4631 163.188 53.4339C162.344 55.4984 168.625 52.5893 172.563 52.4954C176.5 52.4016 186.25 53.9969 188.313 56.1554C188.5 56.2492 188.5 56.4369 188.5 56.6246Z"
        fill="#E37E25" />
    <path
        d="M159.906 64.9763C159.906 64.9763 158.031 60.5656 164.781 56.7179C171.531 52.8703 183.437 54.6534 186.906 55.6857C190.375 56.8118 164.594 68.824 163.094 68.0732C161.687 67.3224 161.312 68.0732 159.906 64.9763Z"
        fill="#B55600" />
    <path
        d="M218.5 96.0385L167.5 59.9082L153.25 80.2725C150.625 84.0263 150.531 89.5632 153.531 95.9446C159.531 108.801 175.656 120.157 189.625 121.377C196.656 122.034 201.813 119.969 204.438 116.121L218.5 96.0385Z"
        fill="url(#paint0_linear)" />
    <path
        d="M162.438 69.0117C162.438 69.0117 165.813 72.0147 166.375 82.5254C167.031 92.5668 164.5 96.696 162.906 97.7282C161.313 98.7605 154.938 101.951 152.594 94.1622C150.25 86.373 162.438 69.0117 162.438 69.0117Z"
        fill="#BD2E33" />
    <path
        d="M203.688 101.294C189.719 100.074 173.5 88.7191 167.594 75.8623C161.594 63.0056 168.156 53.6211 182.125 54.841C196.094 56.061 212.313 67.4163 218.219 80.273C224.219 93.1298 217.656 102.514 203.688 101.294Z"
        fill="#FF7369" />
    <path
        d="M218.261 95.5249C223.892 87.5768 217.296 73.2098 203.528 63.4353C189.759 53.6608 174.033 52.1802 168.402 60.1283C162.77 68.0763 169.367 82.4433 183.135 92.2178C196.904 101.992 212.63 103.473 218.261 95.5249Z"
        fill="#F72E33" />
    <path
        d="M202.844 97.6345C215.5 98.7607 220.844 91.91 215.406 80.2732C209.969 68.6365 195.344 58.5951 182.687 57.4689C170.031 56.3428 164.687 63.0058 170.125 74.5487C175.469 86.2793 190.187 96.5084 202.844 97.6345Z"
        fill="#FF7369" />
    <path
        d="M168.25 64.0377C171.063 62.067 175.094 61.8793 177.25 61.9732C190.656 62.3485 206.688 73.1407 212.406 85.7159C213.813 88.8128 214.469 91.8158 214.281 94.3496C214.281 94.9127 214.188 95.3819 214 95.7573C215.688 94.6312 217 92.7543 217.281 90.0328C217.469 87.499 216.813 84.5898 215.406 81.399C209.781 68.9177 193.656 58.0317 180.25 57.6563C176.969 57.5624 169.75 58.0317 168.25 64.0377Z"
        fill="url(#paint1_linear)" />
    <path
        d="M186.062 61.3172L186.906 61.5987C196.187 64.5079 205.469 71.2648 210.906 79.2416C211.656 80.3677 212.406 81.5877 212.969 82.7138C213.156 83.0892 213.344 83.4646 213.531 83.7461C214.281 85.3415 214.75 86.843 215.031 88.2507C215.312 89.6584 215.406 91.0661 215.312 92.286C215.219 93.4122 214.937 94.3506 214.562 95.1952C213.906 95.7583 213.25 96.1337 212.5 96.5091C209.875 97.729 206.781 97.8229 205 97.8229C196.469 97.6352 186.812 93.1306 179.5 86.5615C175.375 82.9015 171.906 78.5847 169.937 74.0801C169.187 72.3909 168.625 70.7017 168.344 69.2002C168.156 68.1679 168.062 67.1356 168.062 66.291C168.062 66.0095 168.062 65.8218 168.062 65.5402C168.156 64.4141 168.438 63.4757 168.813 62.631C171.625 60.2849 176.125 60.0034 178.375 60.0972C180.812 60.0972 183.437 60.5665 186.062 61.3172Z"
        fill="#E9E5CB" />
    <path
        d="M176.125 62.2549C174.25 62.1611 171.063 62.3488 168.344 63.6626C168.156 64.2257 168.063 64.7887 167.969 65.5395C167.781 68.0733 168.344 70.9825 169.844 74.1732C175.469 86.6546 191.594 97.5406 205 97.916C206.875 98.0098 210.063 97.8221 212.781 96.5083C212.969 95.9452 213.063 95.3822 213.156 94.6314C213.344 92.0976 212.688 89.1884 211.281 85.9977C205.563 73.4225 189.531 62.6303 176.125 62.2549Z"
        fill="#F6F4E9" />
    <path
        d="M206.031 96.0401C192.625 95.6647 176.594 84.8725 170.875 72.2973C169.469 69.2004 169.75 65.3528 169.938 62.819C169.938 62.3497 170.313 60.6605 170.406 60.2852C169.938 60.5667 169.281 61.599 168.719 62.5374C168.344 63.382 168.063 64.3205 167.969 65.4466C167.781 67.9804 168.344 70.8896 169.844 74.0804C175.469 86.5617 191.594 97.4477 205 97.8231C207.344 97.917 211.75 97.6354 214.563 95.2893C215.406 94.6324 215.781 94.0693 216.063 93.6001C213.344 95.0078 208 96.1339 206.031 96.0401Z"
        fill="#C0BFAE" />
    <path
        d="M173.594 80.8359L173.781 81.399L190.75 83.5574L195.156 83.2759L194.969 82.7128L189.812 81.4929L173.594 80.8359Z"
        fill="#D2D1D4" />
    <path
        d="M171.906 79.4282L172.094 79.9913L190.844 82.2436L194.781 81.962L195.25 81.4928L189.906 80.2728L171.906 78.959V79.4282Z"
        fill="#131313" />
    <path
        d="M202.75 91.6289L203.125 91.3474L203.312 90.972L189.812 80.086L185.969 78.1152L185.781 78.4906L189.437 82.2444L202.75 91.6289Z"
        fill="#131313" />
    <path
        d="M202.937 91.2538L203.312 90.9723L189.906 79.7109L186.625 77.834L185.969 78.1155L189.625 81.8693L202.937 91.2538Z"
        fill="#404040" />
    <path d="M189.156 83.4631L194.312 67.791L194.781 67.9787L189.625 83.4631H189.156Z"
        fill="#EF2C2C" />
    <path
        d="M192.25 81.2109C192.25 81.1172 192.156 81.0234 192.062 80.9297L194.688 81.3984H192.25C192.25 81.3047 192.25 81.2109 192.25 81.2109Z"
        fill="#595959" />
    <path
        d="M188.125 80.6481C188.219 80.7419 188.219 80.9296 188.312 81.0235L172.375 79.3343L172.188 79.0527L187.937 80.1789C188.031 80.3666 188.031 80.4604 188.125 80.6481Z"
        fill="#595959" />
    <path
        d="M189.531 79.1465C190.469 79.2403 191.594 79.9911 192.063 80.9295C192.438 81.868 192.063 82.5249 191.031 82.4311C190.094 82.3372 188.969 81.5864 188.5 80.648C188.125 79.8034 188.5 79.1465 189.531 79.1465Z"
        fill="#A2A2A2" />
    <path
        d="M189.906 80.0859C190.375 80.0859 190.844 80.4613 191.031 80.9305C191.219 81.3059 191.031 81.5874 190.563 81.5874C190.094 81.5874 189.625 81.2121 189.438 80.7428C189.25 80.3675 189.531 80.0859 189.906 80.0859Z"
        fill="#C9C9C9" />
    <path
        d="M170.313 77.5513C170.594 77.5513 170.969 77.8328 171.156 78.1143C171.344 78.3959 171.156 78.5836 170.781 78.5836C170.5 78.5836 170.125 78.302 169.938 78.0205C169.844 77.6451 169.938 77.4574 170.313 77.5513Z"
        fill="black" />
    <path
        d="M210.156 82.0555C210.531 82.0555 210.906 82.3371 211 82.6186C211.187 82.9001 211 83.1817 210.625 83.0878C210.25 83.0878 209.875 82.8063 209.781 82.5247C209.687 82.2432 209.875 81.9617 210.156 82.0555Z"
        fill="black" />
    <path
        d="M169.187 74.5478C169.562 74.6417 169.844 74.9232 169.937 75.2047C170.031 75.4863 169.844 75.5801 169.469 75.5801C169.094 75.4863 168.812 75.2048 168.719 74.9232C168.625 74.6417 168.812 74.454 169.187 74.5478Z"
        fill="#9A715A" />
    <path
        d="M211.469 85.2471C211.844 85.3409 212.125 85.6224 212.219 85.904C212.312 86.1855 212.125 86.3732 211.75 86.2793C211.375 86.1855 211.094 85.904 211 85.6224C210.906 85.3409 211.187 85.1532 211.469 85.2471Z"
        fill="#9A715A" />
    <path
        d="M168.719 71.8262C169.094 71.92 169.375 72.2954 169.375 72.4831C169.375 72.7646 169.094 72.8585 168.813 72.6708C168.437 72.5769 168.156 72.2015 168.156 72.0139C168.156 71.7323 168.437 71.6385 168.719 71.8262Z"
        fill="#9A715A" />
    <path
        d="M212.125 88.25C212.5 88.3439 212.781 88.7193 212.781 89.0008C212.781 89.2823 212.5 89.3762 212.125 89.2823C211.75 89.1885 211.469 88.8131 211.469 88.5316C211.563 88.25 211.844 88.1562 212.125 88.25Z"
        fill="#9A715A" />
    <path
        d="M169 69.2929C169.375 69.4806 169.563 69.7621 169.563 70.0437C169.563 70.2313 169.188 70.3252 168.813 70.1375C168.438 69.9498 168.25 69.6683 168.25 69.3868C168.344 69.1052 168.625 69.1052 169 69.2929Z"
        fill="#9A715A" />
    <path
        d="M212.125 91.1581C212.5 91.3458 212.687 91.7212 212.687 91.9089C212.687 92.1904 212.312 92.1904 211.938 92.0028C211.563 91.8151 211.375 91.4397 211.375 91.252C211.469 90.9705 211.75 90.9705 212.125 91.1581Z"
        fill="#9A715A" />
    <path
        d="M169.375 67.1349C169.75 67.3226 169.937 67.698 169.844 67.8857C169.75 68.0734 169.375 68.0734 169 67.8857C168.625 67.698 168.437 67.3226 168.531 67.1349C168.719 66.9472 169.094 66.9472 169.375 67.1349Z"
        fill="black" />
    <path
        d="M211.469 93.6936C211.844 93.8813 212.031 94.2566 211.937 94.4443C211.844 94.632 211.469 94.632 211.094 94.4443C210.719 94.2566 210.531 93.8813 210.625 93.6936C210.812 93.412 211.094 93.412 211.469 93.6936Z"
        fill="black" />
    <path
        d="M170.969 65.1649C171.25 65.4464 171.437 65.728 171.25 65.9157C171.062 66.1033 170.687 66.0095 170.406 65.8218C170.125 65.5403 169.937 65.2587 170.125 65.0711C170.219 64.8834 170.594 64.9772 170.969 65.1649Z"
        fill="#9A715A" />
    <path
        d="M210.156 95.7567C210.437 96.0382 210.625 96.3198 210.437 96.5075C210.25 96.6951 209.875 96.6013 209.594 96.4136C209.312 96.1321 209.125 95.8505 209.312 95.6629C209.406 95.4752 209.875 95.569 210.156 95.7567Z"
        fill="#9A715A" />
    <path
        d="M173.031 63.6624C173.312 63.944 173.406 64.2255 173.125 64.4132C172.937 64.507 172.469 64.4132 172.187 64.1317C171.906 63.8501 171.812 63.5686 172.094 63.3809C172.375 63.287 172.75 63.3809 173.031 63.6624Z"
        fill="#9A715A" />
    <path
        d="M208.187 97.4476C208.469 97.7291 208.562 98.0107 208.281 98.1984C208.094 98.2922 207.625 98.1984 207.344 97.9168C207.062 97.6353 206.969 97.3537 207.25 97.1661C207.531 97.0722 207.906 97.1661 208.187 97.4476Z"
        fill="#9A715A" />
    <path
        d="M175.656 62.6303C175.937 62.9118 175.844 63.1933 175.656 63.2872C175.375 63.381 175 63.1933 174.719 62.9118C174.437 62.6303 174.531 62.3487 174.719 62.2549C175 62.161 175.469 62.3487 175.656 62.6303Z"
        fill="#9A715A" />
    <path
        d="M205.844 97.2592C206.125 97.5407 206.031 97.8222 205.844 97.9161C205.562 98.0099 205.187 97.8222 204.906 97.5407C204.625 97.2592 204.719 96.9776 204.906 96.8838C205.187 96.7899 205.656 96.9776 205.844 97.2592Z"
        fill="#9A715A" />
    <path
        d="M178.75 62.2549C178.937 62.5364 178.844 62.8179 178.562 62.8179C178.281 62.8179 177.906 62.6302 177.625 62.3487C177.437 62.0672 177.531 61.7856 177.812 61.7856C178.187 61.6918 178.562 61.8795 178.75 62.2549Z"
        fill="#9A715A" />
    <path
        d="M203.031 97.729C203.219 98.0105 203.125 98.2921 202.844 98.2921C202.562 98.2921 202.187 98.1044 202 97.8228C201.812 97.5413 201.906 97.2598 202.187 97.2598C202.375 97.2598 202.75 97.4475 203.031 97.729Z"
        fill="#9A715A" />
    <path
        d="M182.219 62.349C182.313 62.6306 182.219 62.9121 181.844 62.8183C181.469 62.8183 181.094 62.5367 181 62.2552C180.906 61.9737 181 61.6921 181.375 61.786C181.656 61.786 182.125 62.0675 182.219 62.349Z"
        fill="black" />
    <path
        d="M199.75 97.7291C199.937 98.0106 199.75 98.1983 199.375 98.1983C199.094 98.1983 198.719 97.9168 198.531 97.6352C198.344 97.3537 198.531 97.166 198.906 97.166C199.187 97.166 199.562 97.4475 199.75 97.7291Z"
        fill="black" />
    <path
        d="M185.875 63.0055C185.969 63.2871 185.781 63.4748 185.406 63.3809C185.031 63.2871 184.75 63.0056 184.656 62.724C184.562 62.4425 184.75 62.2548 185.125 62.3486C185.5 62.4425 185.781 62.724 185.875 63.0055Z"
        fill="#9A715A" />
    <path
        d="M196 97.446C196.094 97.7275 195.906 97.8214 195.531 97.8214C195.156 97.7275 194.875 97.446 194.781 97.1645C194.687 96.8829 194.875 96.7891 195.25 96.7891C195.531 96.8829 195.906 97.1645 196 97.446Z"
        fill="#9A715A" />
    <path
        d="M189.719 64.2254C189.719 64.507 189.438 64.6008 189.063 64.507C188.688 64.4131 188.406 64.0377 188.406 63.7562C188.406 63.4746 188.688 63.3808 189.063 63.4746C189.344 63.6623 189.719 63.9439 189.719 64.2254Z"
        fill="#9A715A" />
    <path
        d="M192.062 96.0397C192.062 96.3213 191.781 96.4151 191.5 96.2274C191.125 96.1336 190.844 95.7582 190.844 95.5705C190.844 95.289 191.125 95.1951 191.406 95.3828C191.781 95.4766 192.062 95.7582 192.062 96.0397Z"
        fill="#9A715A" />
    <path
        d="M193.563 66.0085C193.563 66.2901 193.188 66.29 192.813 66.1024C192.438 65.9147 192.25 65.5393 192.25 65.3516C192.25 65.0701 192.625 65.0701 193 65.2578C193.281 65.3516 193.563 65.727 193.563 66.0085Z"
        fill="#9A715A" />
    <path
        d="M188.688 94.4429C188.688 94.6306 188.312 94.7244 187.937 94.5367C187.562 94.3491 187.375 94.0675 187.375 93.786C187.375 93.5983 187.75 93.5045 188.125 93.6922C188.406 93.8798 188.688 94.2552 188.688 94.4429Z"
        fill="#9A715A" />
    <path
        d="M197.312 68.1669C197.219 68.3546 196.844 68.3546 196.469 68.1669C196.094 67.9792 195.906 67.6039 196 67.4162C196.094 67.2285 196.469 67.2285 196.844 67.4162C197.219 67.6039 197.406 67.8854 197.312 68.1669Z"
        fill="#9A715A" />
    <path
        d="M184.937 92.4736C184.844 92.6612 184.469 92.6612 184.094 92.4736C183.719 92.2859 183.531 91.9105 183.625 91.7228C183.719 91.5351 184.094 91.5351 184.469 91.7228C184.844 91.9105 185.031 92.2859 184.937 92.4736Z"
        fill="#9A715A" />
    <path
        d="M200.781 70.7008C200.594 70.8885 200.219 70.7947 199.937 70.607C199.656 70.3254 199.469 70.0439 199.656 69.8562C199.844 69.6685 200.219 69.7624 200.5 69.9501C200.781 70.2316 200.969 70.5131 200.781 70.7008Z"
        fill="black" />
    <path
        d="M181.375 90.1259C181.187 90.3136 180.812 90.2198 180.531 89.9382C180.25 89.6567 180.062 89.3752 180.25 89.1875C180.437 88.9998 180.812 89.0936 181.094 89.3752C181.375 89.6567 181.562 89.9382 181.375 90.1259Z"
        fill="black" />
    <path
        d="M203.969 73.6105C203.781 73.7043 203.312 73.6105 203.031 73.3289C202.75 73.0474 202.656 72.7659 202.937 72.5782C203.125 72.4843 203.594 72.5782 203.875 72.8597C204.156 73.1412 204.156 73.4228 203.969 73.6105Z"
        fill="#9A715A" />
    <path
        d="M178.094 87.4053C177.906 87.4991 177.437 87.4053 177.156 87.1237C176.875 86.8422 176.781 86.5607 177.062 86.4668C177.25 86.373 177.719 86.4668 178 86.7484C178.187 87.0299 178.281 87.3114 178.094 87.4053Z"
        fill="#9A715A" />
    <path
        d="M206.781 76.6134C206.5 76.7072 206.125 76.5195 205.844 76.238C205.562 75.9564 205.656 75.6749 205.844 75.5811C206.125 75.4872 206.5 75.6749 206.781 75.9564C207.062 76.238 207.062 76.6134 206.781 76.6134Z"
        fill="#9A715A" />
    <path
        d="M175.187 84.5899C174.906 84.6837 174.531 84.4961 174.25 84.2145C173.969 83.933 174.062 83.6515 174.25 83.5576C174.531 83.4638 174.906 83.6515 175.187 83.933C175.469 84.2145 175.469 84.496 175.187 84.5899Z"
        fill="#9A715A" />
    <path
        d="M209.031 79.8975C208.75 79.8975 208.375 79.7098 208.094 79.4283C207.906 79.1468 208 78.8652 208.281 78.8652C208.562 78.8652 208.937 79.0529 209.219 79.3345C209.406 79.616 209.312 79.8037 209.031 79.8975Z"
        fill="#9A715A" />
    <path
        d="M172.75 81.587C172.469 81.587 172.094 81.3993 171.906 81.1177C171.719 80.8362 171.812 80.5547 172.094 80.5547C172.375 80.5547 172.75 80.7424 172.937 81.0239C173.125 81.3054 173.031 81.587 172.75 81.587Z"
        fill="#9A715A" />
    <path
        d="M181.187 115.934L178.094 126.351C178.094 126.539 177.812 126.632 177.437 126.726C176.969 126.82 176.406 126.82 175.937 126.82C175.562 126.82 175.281 126.726 175 126.539C174.625 126.351 174.531 126.257 174.531 126.069L176.406 112.556C176.969 112.462 177.906 112.368 178.844 112.556C179.125 112.649 179.406 112.743 179.781 112.931C180.344 113.213 180.719 113.682 180.906 114.057C181.281 114.996 181.187 115.934 181.187 115.934Z"
        fill="#82806F" />
    <path
        d="M180.906 114.15L177.437 126.819C176.969 126.913 176.406 126.913 175.938 126.913L178.844 112.648C179.125 112.742 179.406 112.836 179.781 113.024C180.25 113.212 180.625 113.681 180.906 114.15Z"
        fill="#CDCCC5" />
    <path
        d="M229.281 85.4357C225.156 85.0604 220.75 88.3449 219.156 92.0049C218.781 92.8495 218.5 93.7879 218.125 94.7264C217.094 97.1663 215.219 99.1371 213.25 100.92C211 102.985 208.375 103.36 206.219 105.143C203.687 107.302 201.812 110.023 198.906 111.712C195.531 113.777 191.875 113.12 188.219 113.026C184.187 112.932 182.219 115.654 179.406 118.281C178.937 118.751 178.375 119.22 178.094 119.783C177.906 120.065 177.719 120.44 177.531 120.628C177.25 120.909 176.875 121.097 176.5 121.284C176.219 121.472 175.75 121.566 175.562 121.284C175.469 121.191 175.469 121.003 175.469 120.815C175.469 118.938 175.844 116.686 174.625 115.091C170.875 110.023 164.875 107.208 160.469 102.703C158.875 101.108 155.781 101.296 153.625 101.108C150.719 100.826 147.906 100.732 145 100.639C145.656 105.143 146.312 109.742 146.969 114.246C147.062 115.278 147.25 116.217 147.625 117.155C149.031 120.252 151.844 119.595 154.187 121.097C157.375 123.068 160.844 124.851 163.75 127.103C166.094 128.98 168.719 129.731 171.625 130.669C197.687 138.646 229.562 122.692 232.094 111.149C233.406 105.143 240.062 97.354 238.281 91.0664C237.344 87.7819 233.125 85.8111 230.125 85.248C229.656 85.4357 229.469 85.4357 229.281 85.4357Z"
        fill="#F1F4F4" />
    <path
        d="M148.562 98.8544C148.937 98.5729 149.219 98.3852 149.406 98.0098C149.781 97.4467 149.5 94.9129 148.844 95.0068C148.75 95.0068 148.656 95.1006 148.562 95.1944C147.531 95.9452 146.688 97.7283 145.563 96.2267C145.094 95.5698 144.812 94.7252 144.344 94.0683C143.594 92.7545 142.281 91.816 140.969 91.0653C139.75 90.3145 138.344 89.3761 137.031 88.813C134.031 87.593 130.562 88.4376 127.469 89.3761C128.125 87.6869 129.719 86.5607 131.406 85.9038C132.813 85.3407 134.219 85.1531 135.719 84.9654C137.125 84.8715 137.875 84.3084 139.094 83.5577C139.563 83.2762 140.125 82.9008 140.313 82.3377C140.406 81.9623 140.313 81.4931 140.219 81.1177C139.75 79.9916 139 78.9593 137.875 78.3024C137.594 78.1147 137.219 77.927 137.125 77.6455C137.031 77.4578 137.031 77.2701 137.031 77.0824C137.031 75.487 137.219 73.9855 137.781 72.484C138.344 71.0763 139.375 69.6686 140.781 69.1056C141.344 68.824 141.906 68.7302 142.469 68.6363C144.25 68.261 146.125 67.8856 147.906 67.9794C148.844 68.0733 149.594 68.4487 150.437 68.5425C151.094 68.6363 151.844 68.4487 152.5 68.4487C155.969 68.4487 159.531 69.1056 162.906 70.2317C163.375 70.4194 163.844 70.6071 164.125 70.8886C164.5 71.3579 164.594 72.0148 164.594 72.5778C164.5 78.4901 160.938 83.5577 159.625 89.0945C158.406 93.9745 164.219 99.1359 167.875 101.388C169 102.139 170.219 102.702 171.156 103.734C171.719 104.391 172.094 105.142 172.75 105.611C173.219 105.987 173.781 106.268 174.344 106.456C178.937 108.145 183.906 109.083 188.875 108.99C193.937 108.896 199 107.864 203.594 105.893C204.813 105.33 206.031 104.954 207.25 104.485C208.188 104.11 208.844 103.359 209.688 102.796C210.438 102.233 211.281 101.764 212.031 101.201C212.781 100.637 213.813 100.356 214.469 99.699C215.688 98.2913 217 96.6021 217.656 94.8191C217.844 94.256 218.031 93.6929 218.312 93.1299C218.594 92.5668 218.969 92.0037 219.344 91.5345C219.906 90.7837 220.562 90.1268 221.312 89.5638C221.406 89.4699 221.031 92.1914 221.031 92.3791C221.125 93.4114 222.156 93.8806 223 94.1622C224.594 94.7252 226.187 95.2883 227.687 95.9452C225.812 96.0391 223.844 96.1329 222.062 96.696C221.031 96.9775 219.813 97.7283 220 98.7606C222.063 99.2298 224.125 99.7929 226 100.731C227.875 101.764 229.469 103.359 230.031 105.424C225.906 102.233 219.344 100.356 214.187 102.045C213.625 102.233 213.063 102.514 212.594 102.796C211.469 103.359 210.344 103.64 209.219 104.204C208.563 104.579 207.906 104.954 207.344 105.517C207.063 105.799 206.875 106.174 206.687 106.456C206.406 106.737 206.031 106.831 205.75 106.925C204.437 107.676 203.031 109.083 202.563 110.491C202.281 111.336 202.187 112.18 201.812 112.931C201.062 114.339 199.375 114.808 197.781 114.902C193.469 115.183 189.25 113.682 184.937 113.494C184.562 113.494 184.188 113.494 183.813 113.588C183.344 113.682 183.063 113.963 182.688 114.245C181.188 115.371 179.688 116.591 179.125 118.374C178.75 119.313 178.656 120.157 177.906 120.814C177.25 121.377 176.5 121.846 175.656 122.034C175 122.222 174.25 122.222 173.594 122.409C172.656 122.785 171.906 123.629 171.25 124.38C171.719 121.659 172 118.937 171.906 116.122C171.906 115.653 171.906 115.277 171.625 114.902C171.25 114.245 170.594 114.151 170.125 113.776C169.469 113.213 168.906 112.65 168.25 112.087C167.875 111.805 167.406 111.523 166.938 111.617C166.563 111.711 166.281 111.993 166 112.274C164.875 113.494 163.75 114.714 162.719 115.934C163 114.527 163.563 113.213 164.219 111.899C164.688 110.96 165.813 109.834 164.875 108.802C164.125 107.957 163.187 107.3 162.156 106.737C160.469 105.893 158.406 105.424 156.906 104.297C156.344 103.828 155.875 103.265 155.219 102.89C154.375 102.421 153.438 102.514 152.5 102.514C150.344 102.608 148.094 102.702 146.031 103.265C143.688 103.922 141.531 105.236 139.844 107.019C141.531 104.391 143.875 102.139 146.406 100.356C146.5 99.9805 147.625 99.5113 148.562 98.8544Z"
        fill="#D6D6D6" />
    <path
        d="M154.938 93.5988C143.875 97.3526 138.906 83.5574 141.344 75.4867C141.719 74.2667 142.188 73.1406 142.656 72.0145C142.75 71.8268 142.75 71.7329 142.75 71.7329C145.563 66.1022 150.438 63.3807 156.625 64.0376C157.375 64.1315 158.125 64.3192 158.875 64.6946C161.406 66.0084 163.281 69.3868 163.469 76.8006C163.563 76.8006 166 89.845 154.938 93.5988Z"
        fill="#F1A725" />
    <path
        d="M154.938 93.5996C143.875 97.3534 138.906 83.5582 141.344 75.4876C141.719 74.2676 142.188 73.1414 142.656 72.0153C142.188 73.1414 140.781 76.9891 141.531 81.3059C142.375 86.4674 146.5 89.5643 152.594 89.4705C158.688 89.3766 160.469 80.7429 160.844 76.6137C161.219 72.5784 161.313 68.6369 158.969 64.6016C161.5 65.9154 163.375 69.2938 163.563 76.7075C163.563 76.8014 166 89.8458 154.938 93.5996Z"
        fill="#E37E25" />
    <path
        d="M156.344 66.1029C156.344 66.1029 152.031 66.0091 150.062 70.3259C149.594 71.3582 149.406 72.7659 149.781 73.7982C150.062 74.549 151.281 75.0182 151.937 75.2997C152.125 75.3936 152.312 75.4874 152.406 75.4874C153.437 75.7689 155.312 75.8628 155.875 74.8305C156.719 73.5167 156.812 71.8275 157.375 70.3259C158.594 66.7598 159.812 66.3844 159.812 66.3844C159.812 66.3844 157.75 65.9152 156.344 66.1029Z"
        fill="#FFD534" />
    <path
        d="M176.313 52.5882C176.313 52.5882 175.188 52.3066 172.75 52.3066C170.313 52.3066 177.344 53.8082 179.969 54.9343C182.5 56.0604 184.375 57.2804 184.375 57.2804C184.375 57.2804 183.25 53.7143 176.313 52.5882Z"
        fill="#FFD534" />
    <path
        d="M110.031 101.765C110.031 102.891 109.75 104.017 109.187 104.955C107.969 107.114 105.625 108.615 102.906 108.615C98.9687 108.615 95.7812 105.519 95.7812 101.765C95.7812 100.826 95.9687 99.8878 96.3437 99.0432C97.4687 96.6033 100 94.9141 102.906 94.9141C106.844 94.9141 110.031 98.0109 110.031 101.765Z"
        fill="#F1F4F4" />
    <path
        d="M277 88.8136C277 92.5673 273.812 95.6642 269.875 95.6642C268.656 95.6642 267.437 95.3827 266.406 94.8196C264.25 93.6935 262.75 91.4412 262.75 88.8136C262.75 85.0598 265.937 81.9629 269.875 81.9629C271.562 81.9629 273.156 82.526 274.375 83.5583C275.969 84.7782 277 86.749 277 88.8136Z"
        fill="#F1F4F4" />
    <path
        d="M224.781 138.458C224.781 142.212 221.594 145.309 217.656 145.309C213.719 145.309 210.531 142.212 210.531 138.458C210.531 134.704 213.719 131.607 217.656 131.607C221.594 131.607 224.781 134.61 224.781 138.458Z"
        fill="#F1F4F4" />
    <path
        d="M109.187 104.955C109.187 104.955 109.187 105.049 109.187 104.955C107.969 107.114 105.625 108.615 102.906 108.615C98.9687 108.615 95.7812 105.518 95.7812 101.764C95.7812 100.826 95.9687 99.8876 96.3437 99.043C96.3437 99.043 97.4687 103.454 101.031 104.486C104.594 105.518 107.219 103.735 108.344 104.111C109.187 104.486 109.187 104.861 109.187 104.955Z"
        fill="#D6D6D6" />
    <path
        d="M224.594 137.049C224.594 137.049 224.969 140.615 221.406 141.741C217.844 142.773 211.844 142.116 210.531 138.926C212.5 148.404 224.594 152.721 224.594 137.049Z"
        fill="#D6D6D6" />
    <path
        d="M277 88.8139C277 92.5677 273.812 95.6646 269.875 95.6646C268.656 95.6646 267.438 95.383 266.406 94.82L266.312 94.7261C266.312 94.7261 277.375 92.9431 275.125 86.0924C274.75 85.0601 274.563 84.2155 274.375 83.5586C275.969 84.7786 277 86.7493 277 88.8139Z"
        fill="#D6D6D6" />
    <path
        d="M139.562 10.2637L140.969 11.3898L133.187 25.7481L139.75 21.9943L141.156 23.1204L128.594 34.3818L127.188 33.2557V29.9711L133.562 17.7713L128.781 22.4635L127.375 21.3374V17.302L139.562 10.2637Z"
        fill="#9C9C9C" />
    <path
        d="M153.531 12.7031L154.937 13.8293L149.125 23.7768L153.812 21.0553L155.219 22.1815L145 31.8475L143.594 30.7213V27.8122L148.094 19.6476L145.187 23.2138L143.781 22.0876V18.3338L153.531 12.7031Z"
        fill="#9C9C9C" />
    <path
        d="M165.531 0.128906L166.938 1.25504L161.125 11.2026L165.813 8.4811L167.219 9.60724L157 19.2733L155.594 18.1471V15.2379L160.094 7.07343L157.188 10.7334L155.781 9.60724V5.85344L165.531 0.128906Z"
        fill="#9C9C9C" />
    <path
        d="M170.5 12.1415C170.5 13.5491 169.656 14.9568 168.531 15.6137C167.312 16.2707 166.562 15.8014 166.562 14.4876C166.562 13.1738 167.406 11.7661 168.531 11.0153C169.656 10.2646 170.5 10.7338 170.5 12.1415Z"
        fill="#9C9C9C" />
    <path
        d="M175.937 8.57507C175.937 9.98275 175.094 11.3904 173.969 12.0473C172.75 12.7042 172 12.235 172 10.9212C172 9.60737 172.844 8.19969 173.969 7.44893C175.094 6.69817 175.937 7.16739 175.937 8.57507Z"
        fill="#9C9C9C" />
    <path
        d="M180.906 6.88578C180.906 8.29345 180.063 9.70113 178.938 10.358C177.719 11.015 176.969 10.5457 176.969 9.2319C176.969 7.91807 177.813 6.5104 178.938 5.75964C180.063 5.10273 180.906 5.57195 180.906 6.88578Z"
        fill="#9C9C9C" />
    <path
        d="M127.094 39.8244C127.094 42.2644 125.125 45.3612 122.781 46.7689C120.437 48.1766 118.469 47.2381 118.469 44.7982C118.469 42.3582 120.437 39.2613 122.781 37.8536C125.219 36.446 127.094 37.3844 127.094 39.8244Z"
        fill="#9C9C9C" />
    <path
        d="M129.156 52.0249C129.156 53.5264 128.031 55.3095 126.625 56.1541C125.219 56.9987 124.094 56.4356 124.094 55.028C124.094 53.5264 125.219 51.7434 126.625 50.8988C128.031 50.0542 129.156 50.6173 129.156 52.0249Z"
        fill="#9C9C9C" />
    <path
        d="M135.625 56.4354C135.625 57.5616 134.687 59.0631 133.562 59.72C132.437 60.3769 131.5 60.0015 131.5 58.7815C131.5 57.6554 132.437 56.1539 133.562 55.497C134.687 54.9339 135.625 55.3093 135.625 56.4354Z"
        fill="#9C9C9C" />
    <path
        d="M140.969 11.3906V14.6752L134.594 26.875L141.156 23.1212V27.1566L128.594 34.3826V31.098L134.969 18.8982L128.781 22.4643V18.5228L140.969 11.3906Z"
        fill="#FCFCFC" />
    <path
        d="M154.938 13.832V16.7412L150.437 24.9057L155.125 22.1842V25.938L144.906 31.8502V28.9411L149.406 20.7766L145.188 23.2165V19.4627L154.938 13.832Z"
        fill="#FCFCFC" />
    <path
        d="M166.938 1.25586V4.16505L162.437 12.3296L167.125 9.60805V13.3618L156.906 19.2741V16.3649L161.406 8.20038L157.188 10.6403V6.88655L166.938 1.25586Z"
        fill="#FCFCFC" />
    <path
        d="M171.906 13.2686C171.906 14.6763 171.062 16.0839 169.937 16.7409C168.812 17.3978 167.969 16.9285 167.969 15.6147C167.969 14.3009 168.812 12.8932 169.937 12.1425C171.062 11.4855 171.906 11.9548 171.906 13.2686Z"
        fill="#FCFCFC" />
    <path
        d="M177.25 9.70219C177.25 11.1099 176.406 12.5175 175.281 13.1745C174.062 13.8314 173.312 13.3621 173.312 12.0483C173.312 10.7345 174.156 9.32681 175.281 8.57605C176.5 7.91913 177.25 8.38836 177.25 9.70219Z"
        fill="#FCFCFC" />
    <path
        d="M182.312 8.01274C182.312 9.42041 181.469 10.8281 180.344 11.485C179.125 12.1419 178.375 11.6727 178.375 10.3589C178.375 9.04503 179.219 7.63735 180.344 6.88659C181.469 6.22968 182.312 6.69891 182.312 8.01274Z"
        fill="#FCFCFC" />
    <path
        d="M128.5 40.9527C128.5 43.3926 126.531 46.4895 124.187 47.8972C121.844 49.3049 119.875 48.3664 119.875 45.9264C119.875 43.4865 121.844 40.3896 124.187 38.9819C126.531 37.6681 128.5 38.5127 128.5 40.9527Z"
        fill="#FCFCFC" />
    <path
        d="M130.562 53.2451C130.562 54.7466 129.437 56.5297 128.031 57.3743C126.625 58.2189 125.5 57.6558 125.5 56.2481C125.5 54.7466 126.625 52.9636 128.031 52.119C129.437 51.1805 130.562 51.7436 130.562 53.2451Z"
        fill="#FCFCFC" />
    <path
        d="M137.031 57.5624C137.031 58.6885 136.094 60.19 134.969 60.8469C133.844 61.5039 132.906 61.1285 132.906 59.9085C132.906 58.6885 133.844 57.2808 134.969 56.6239C136.094 56.0609 137.031 56.4362 137.031 57.5624Z"
        fill="#FCFCFC" />
    <path
        d="M81.9063 118.28C81.9063 128.697 53.875 130.855 37.375 130.855C20.875 130.855 7.46875 122.409 7.46875 111.899C7.46875 101.482 20.875 92.9418 37.375 92.9418C53.875 92.848 81.9063 107.769 81.9063 118.28Z"
        fill="#4986CC" />
    <path
        d="M93.25 51.8379L92.2188 60.3778L91.6562 64.6008L90.4375 74.6422L86.875 104.297C86.3125 107.3 84.3437 110.022 81.25 112.086C79.375 113.4 77.0312 114.526 74.4062 115.277C71.5938 116.122 68.5 116.591 65.2187 116.591C64.75 116.591 64.375 116.591 64 116.591C61.1875 116.497 58.5625 116.028 56.125 115.371C55.75 115.277 55.375 115.183 55 114.995C52.8437 114.245 50.875 113.306 49.1875 112.18C46.1875 110.116 44.2187 107.488 43.6562 104.579L38.875 64.7885L38.4062 60.5655L37.375 52.3071H37.6562L50.0312 52.2133H58.1875L72.4375 52.1194L80.5937 52.0256L92.9688 51.9317H93.25V51.8379Z"
        fill="#864B2B" />
    <path
        d="M85.9375 58.0312V58.5005L85.2813 66.1019L84.9063 69.9495L84.3438 76.4248L81.3437 111.992C79.4687 113.306 77.125 114.432 74.5 115.183C71.6875 116.027 68.5938 116.497 65.3125 116.497C64.8438 116.497 64.4688 116.497 64.0938 116.497C61.2813 116.403 58.6563 115.934 56.2188 115.277C55.8438 115.183 55.4687 115.089 55.0937 114.901C52.9375 114.15 50.9688 113.212 49.2813 112.086L47.5 91.44L47.125 86.7478L45.7187 70.0434L45.3438 66.1958L44.6875 58.5005V58.2189L67.9375 58.1251L77.0312 58.0312H85.9375Z"
        fill="#8F512F" />
    <path
        d="M76.9375 58.0312L76.75 62.3481L76.4688 69.668L76.2813 73.328V73.5157L74.5 115.183C71.6875 116.027 68.5938 116.497 65.3125 116.497C64.8438 116.497 64.4688 116.497 64.0938 116.497C61.2813 116.403 58.6563 115.934 56.2188 115.277L55.375 96.6015V95.7569L55.0938 88.5308L54.4375 73.4218L54.25 69.7619L53.875 62.3481L53.6875 58.3128L67.9375 58.1251L76.9375 58.0312Z"
        fill="#A05B35" />
    <path
        d="M89.2188 51.8379H80.6875L72.5313 51.9317L58.1875 52.0256H50.0313L40.8438 52.1194C39.7188 52.964 38.5938 53.9025 37.6562 54.9348L38.3125 60.4716L38.7813 64.6946L39.9063 73.7037C45.8125 78.4898 54.9063 81.5867 65.2188 81.5867C75.5313 81.5867 84.625 78.4898 90.5313 73.7037L91.5625 64.6946L92.125 60.4716L92.7812 55.0286C91.75 53.8086 90.5313 52.7763 89.2188 51.8379Z"
        fill="#CFCDCC" />
    <path
        d="M38.875 61.6908C43.9375 67.6969 53.7812 71.7322 65.2187 71.7322C76.6562 71.7322 86.5937 67.6031 91.6562 61.597L93.1562 48.7402L37.375 49.1156L38.875 61.6908Z"
        fill="#7A4528" />
    <path
        d="M94.8438 50.1475C89.9688 42.8276 78.5312 37.5723 65.2187 37.5723C51.9062 37.5723 40.4687 42.7337 35.5937 50.1475H33.1562V53.8074C33.1562 65.0688 47.5 74.1718 65.2187 74.1718C82.9375 74.1718 97.2812 65.0688 97.2812 53.8074V50.1475H94.8438Z"
        fill="url(#paint2_linear)" />
    <path
        d="M97.375 50.1475C97.375 61.4089 83.0312 70.5119 65.3125 70.5119C47.5937 70.5119 33.25 61.4089 33.25 50.1475C33.25 38.8862 47.5937 29.7832 65.3125 29.7832C83.0312 29.7832 97.375 38.8862 97.375 50.1475Z"
        fill="#FFFEF3" />
    <path
        d="M92.875 44.3301C88.375 37.4794 77.6875 32.6934 65.3125 32.6934C52.9375 32.6934 42.25 37.4794 37.75 44.3301H35.5V49.2101C35.5 59.6268 48.9062 68.1667 65.4062 68.1667C81.9062 68.1667 95.3125 59.7207 95.3125 49.2101V44.3301H92.875Z"
        fill="url(#paint3_linear)" />
    <path
        d="M95.125 44.3297C95.125 54.7465 81.7188 63.2864 65.2188 63.2864C48.7188 63.2864 35.3125 54.8403 35.3125 44.3297C35.3125 33.9129 48.7188 25.373 65.2188 25.373C81.7188 25.373 95.125 33.8191 95.125 44.3297Z"
        fill="#FFFEF3" />
    <path
        d="M65.2187 58.1252C77.875 58.1252 88.0937 51.6499 88.0937 43.5792C88.0937 43.11 88.0938 42.6408 88 42.1716C87.625 39.45 85.9375 36.8224 83.4062 34.7578L49.75 54.2775C53.875 56.6237 59.3125 58.1252 65.2187 58.1252Z"
        fill="#F6F5E8" />
    <path
        d="M88.1875 43.5791C88.1875 43.1098 88.1875 42.6406 88.0938 42.1714C88.0938 41.9837 88 41.796 88 41.5145C88 41.4206 88 41.4206 88 41.3268C88 41.1391 87.9062 41.0453 87.9062 40.8576C87.9062 40.7637 87.9062 40.7637 87.8125 40.6699C87.7187 40.4822 87.7188 40.2945 87.625 40.1068C87.5313 39.9191 87.4375 39.7314 87.3437 39.5437C87.3437 39.4499 87.25 39.4499 87.25 39.356C87.1562 39.2622 87.1563 39.0745 87.0625 38.9807C87.0625 38.8868 86.9687 38.8868 86.9687 38.793C86.875 38.6053 86.7813 38.5114 86.6875 38.3238C86.6875 38.3238 86.6875 38.2299 86.5938 38.2299C86.5 38.0422 86.4063 37.8545 86.2188 37.6668C86.2188 37.573 86.125 37.573 86.0312 37.4791C85.9375 37.3853 85.8438 37.2915 85.75 37.1038C85.6563 37.0099 85.6562 37.0099 85.5625 36.9161C85.4687 36.8222 85.375 36.6345 85.2813 36.5407C85.2813 36.4469 85.1875 36.4469 85.1875 36.353C85.0938 36.1653 84.9063 36.0715 84.7188 35.8838C84.625 35.7899 84.625 35.7899 84.5312 35.6961C84.4375 35.6023 84.3438 35.5084 84.25 35.4146C84.1563 35.3207 84.0625 35.3207 84.0625 35.2269C83.9687 35.133 83.7812 35.0392 83.6875 34.9453C79.5625 31.3792 72.8125 29.127 65.3125 29.127C53.4062 29.127 43.6563 34.8515 42.5312 42.2652C42.5312 42.4529 42.5312 42.5468 42.625 42.7345C44.0312 35.5084 53.5937 29.9716 65.3125 29.9716C72.3437 29.9716 78.7188 32.0361 82.8438 35.2269H82.75C85 37.6668 85.75 41.3268 86.2188 43.9544C86.3125 44.4237 86.3125 46.8636 86.3125 47.3329C86.3125 48.1775 86.2187 49.0221 85.9375 49.7728C87.3437 47.8959 88.1875 45.8313 88.1875 43.5791Z"
        fill="url(#paint4_linear)" />
    <path
        d="M65.2188 115.84C54.625 115.84 45.9062 112.368 44.6875 105.799L45.9063 115.84C45.9063 119.031 47.7813 121.94 50.9688 124.099C52.6563 125.319 54.7188 126.257 57.0625 126.914C59.5938 127.665 62.3125 128.134 65.3125 128.134C68.125 128.134 70.75 127.759 73.1875 127.008C73.2812 127.008 73.375 127.008 73.4688 126.914H73.5625C75.9063 126.257 77.875 125.225 79.5625 124.099C82.75 121.94 84.625 119.031 84.625 115.84L85.8437 105.705C84.7187 112.274 75.9062 115.84 65.2188 115.84Z"
        fill="url(#paint5_linear)" />
    <path
        d="M62.0314 101.481C58.2814 97.9145 56.6877 91.0639 58.5627 86.3716C60.4377 81.6794 64.9377 80.7409 68.7814 84.307C72.5314 87.8731 74.1252 94.7238 72.2502 99.416C70.3752 104.202 65.8752 105.141 62.0314 101.481Z"
        fill="#DADADA" />
    <path
        d="M67.7499 87.3116C66.9061 86.3732 65.9686 85.904 65.0311 85.7163C63.5311 85.4347 62.1249 86.1855 61.1874 87.7809C60.9999 88.1562 60.8124 88.5316 60.7186 88.907C60.6249 89.0947 60.5311 89.3762 60.5311 89.6578C59.8749 92.3793 60.4374 95.8515 62.2186 98.3853C63.4374 100.075 64.9374 101.013 66.4374 100.919C67.8436 100.825 69.0624 99.8868 69.8124 98.1976C69.9061 97.9161 69.9999 97.6346 70.0936 97.353C68.9686 97.6346 67.8436 97.4469 66.9061 96.8838C65.9686 96.3207 65.2186 95.4761 64.6561 94.1623C64.2811 93.3177 63.9999 92.4731 63.7186 91.6285C63.2499 90.5962 62.4999 89.9393 61.5624 89.6578C61.6561 89.1885 61.8436 88.8132 61.9374 88.4378C62.2186 88.4378 62.4999 88.4378 62.6874 88.4378C63.4374 88.6255 64.1874 89.0947 64.8436 89.8454C65.4999 90.5962 65.7811 91.8162 66.3436 92.8485C66.9061 93.8808 67.7499 94.35 68.5936 95.0069C68.6874 95.1008 69.6249 95.6638 70.3749 96.0392C70.7499 92.9423 69.7186 89.3762 67.7499 87.3116Z"
        fill="#9C6429" />
    <path
        d="M64.375 90.4083C64.75 91.159 65.0312 92.0036 65.3125 92.8482C65.875 94.0682 66.625 94.9128 67.5625 95.4759C68.3125 95.9451 69.25 96.039 70.0937 96.039C70.0937 96.039 70.1875 96.039 70.1875 96.1328C70.0937 96.602 70 96.9774 69.9062 97.3528C68.7812 97.6343 67.6562 97.4466 66.7187 96.8836C65.7812 96.3205 65.0312 95.4759 64.4687 94.1621C64.0937 93.3175 63.8125 92.4728 63.5312 91.6282C62.9687 90.2206 61.6562 89.4698 60.3438 89.6575C60.4375 89.376 60.4375 89.1883 60.5312 88.9067C60.9062 88.719 61.1875 88.5313 61.5625 88.4375C62.7812 88.5313 63.8125 89.2821 64.375 90.4083Z"
        fill="#7D460B" />
    <path
        d="M49.9375 46.3942C49.9375 46.6757 49.8438 46.9573 49.5625 47.2388C49.0938 47.708 48.25 48.0834 47.3125 48.0834C46.8438 48.0834 46.4688 47.9896 46.1875 47.8957C45.3438 47.6142 44.7812 47.0511 44.7812 46.3942C44.7812 46.0188 44.9687 45.7373 45.25 45.4557C45.7188 45.0804 46.4688 44.7988 47.3125 44.7988C47.7813 44.7988 48.25 44.8927 48.7188 45.0804C49.375 45.3619 49.9375 45.8311 49.9375 46.3942Z"
        fill="#E4E6C8" />
    <path
        d="M48.4375 45.2679C48.1563 45.0802 47.6875 44.9863 47.3125 44.9863C46.5625 44.9863 45.9063 45.2679 45.5313 45.6432C45.25 45.9248 45.1562 46.2063 45.1562 46.5817C45.1562 47.0509 45.4375 47.4263 45.9063 47.8017C46 47.8017 46.0937 47.8955 46.1875 47.8955C46.5625 47.9894 46.9375 48.0832 47.3125 48.0832C47.875 48.0832 48.3438 47.9894 48.7188 47.8017C48.9063 47.7078 49 47.614 49.1875 47.4263C49.375 47.1448 49.4687 46.9571 49.4687 46.5817C49.4687 46.0186 49.0938 45.5494 48.4375 45.2679Z"
        fill="#F6F5E8" />
    <path
        d="M48.5312 46.0184C48.5312 46.2061 48.4375 46.3 48.3438 46.3938C48.1563 46.5815 47.6875 46.7692 47.3125 46.7692C47.125 46.7692 46.9375 46.7692 46.75 46.6753C46.375 46.5815 46.0938 46.3 46.0938 45.9246C46.0938 45.7369 46.1875 45.5492 46.375 45.4554C46.5625 45.2677 46.9375 45.1738 47.4063 45.1738C47.6875 45.1738 47.875 45.1738 48.0625 45.2677C48.3437 45.4554 48.5312 45.7369 48.5312 46.0184Z"
        fill="#FFFEF3" />
    <path
        d="M51.625 38.6989C51.625 38.9804 51.5312 39.262 51.25 39.5435C50.7812 40.0127 49.9375 40.3881 49 40.3881C48.5312 40.3881 48.1563 40.2942 47.875 40.2004C47.0313 39.9189 46.4688 39.3558 46.4688 38.6989C46.4688 38.3235 46.6562 38.042 46.9375 37.7604C47.4062 37.385 48.1562 37.1035 49 37.1035C49.4687 37.1035 49.9375 37.1974 50.4062 37.385C51.1562 37.5727 51.625 38.1358 51.625 38.6989Z"
        fill="#E4E6C8" />
    <path
        d="M50.2188 37.5726C49.9375 37.3849 49.4688 37.291 49.0938 37.291C48.3438 37.291 47.6875 37.5725 47.3125 37.9479C47.0313 38.2295 46.9375 38.511 46.9375 38.8864C46.9375 39.3556 47.2188 39.731 47.6875 40.1064C47.7813 40.1064 47.875 40.2002 47.9687 40.2002C48.3437 40.2941 48.7188 40.3879 49.0938 40.3879C49.6563 40.3879 50.125 40.2941 50.5 40.1064C50.6875 40.0125 50.7813 39.9187 50.9688 39.731C51.1563 39.4494 51.25 39.2618 51.25 38.8864C51.25 38.3233 50.875 37.8541 50.2188 37.5726Z"
        fill="#F6F5E8" />
    <path
        d="M50.3125 38.2294C50.3125 38.4171 50.2188 38.5109 50.125 38.6047C49.9375 38.7924 49.4688 38.9801 49.0938 38.9801C48.9063 38.9801 48.7187 38.9801 48.5312 38.8863C48.1562 38.7924 47.875 38.5109 47.875 38.1355C47.875 37.9478 47.9688 37.7601 48.1563 37.6663C48.3438 37.4786 48.7188 37.3848 49.1875 37.3848C49.4688 37.3848 49.6562 37.3848 49.8437 37.4786C50.0312 37.7601 50.3125 37.9478 50.3125 38.2294Z"
        fill="#FFFEF3" />
    <path
        d="M60.1562 33.7243C60.1562 34.0058 60.0625 34.2873 59.7812 34.5689C59.3125 35.0381 58.4688 35.4135 57.5313 35.4135C57.0625 35.4135 56.6875 35.3196 56.4062 35.2258C55.5625 34.9442 55 34.3812 55 33.7243C55 33.3489 55.1875 33.0673 55.4688 32.7858C55.9375 32.4104 56.6875 32.1289 57.5313 32.1289C58 32.1289 58.4688 32.2228 58.9375 32.4104C59.6875 32.5981 60.1562 33.0673 60.1562 33.7243Z"
        fill="#E4E6C8" />
    <path
        d="M58.75 32.5042C58.4688 32.3165 58 32.2227 57.625 32.2227C56.875 32.2227 56.2188 32.5042 55.8438 32.8796C55.5625 33.1611 55.4688 33.4426 55.4688 33.818C55.4688 34.2873 55.75 34.6626 56.2188 35.038C56.3125 35.038 56.4062 35.1319 56.5 35.1319C56.875 35.2257 57.25 35.3195 57.625 35.3195C58.1875 35.3195 58.6563 35.2257 59.0313 35.038C59.2188 34.9442 59.3125 34.8503 59.5 34.6626C59.6875 34.3811 59.7812 34.1934 59.7812 33.818C59.7812 33.255 59.3125 32.7857 58.75 32.5042Z"
        fill="#F6F5E8" />
    <path
        d="M58.8437 33.2548C58.8437 33.4424 58.75 33.5363 58.6563 33.6301C58.4688 33.8178 58 34.0055 57.625 34.0055C57.4375 34.0055 57.25 34.0055 57.0625 33.9117C56.6875 33.8178 56.4062 33.5363 56.4062 33.1609C56.4062 32.9732 56.5 32.7855 56.6875 32.6917C56.875 32.504 57.25 32.4102 57.7188 32.4102C58 32.4102 58.1875 32.4102 58.375 32.504C58.5625 32.6917 58.8437 32.9732 58.8437 33.2548Z"
        fill="#FFFEF3" />
    <path
        d="M71.2188 32.0368C71.2188 32.3183 71.125 32.5998 70.8437 32.8814C70.375 33.3506 69.5312 33.726 68.5937 33.726C68.125 33.726 67.75 33.6321 67.4688 33.5383C66.625 33.2568 66.0625 32.6937 66.0625 32.0368C66.0625 31.6614 66.25 31.3799 66.5312 31.0983C67 30.7229 67.75 30.4414 68.5937 30.4414C69.0625 30.4414 69.5312 30.5353 70 30.7229C70.75 30.9106 71.2188 31.4737 71.2188 32.0368Z"
        fill="#E4E6C8" />
    <path
        d="M69.8125 30.9104C69.5313 30.7227 69.0625 30.6289 68.6875 30.6289C67.9375 30.6289 67.2813 30.9104 66.9063 31.2858C66.625 31.5673 66.5312 31.8489 66.5312 32.2243C66.5312 32.6935 66.8125 33.0689 67.2812 33.4442C67.375 33.4442 67.4687 33.5381 67.5625 33.5381C67.9375 33.6319 68.3125 33.7258 68.6875 33.7258C69.25 33.7258 69.7187 33.6319 70.0937 33.4442C70.2812 33.3504 70.375 33.2565 70.5625 33.0689C70.75 32.7873 70.8437 32.5996 70.8437 32.2243C70.8437 31.6612 70.375 31.192 69.8125 30.9104Z"
        fill="#F6F5E8" />
    <path
        d="M69.9062 31.5673C69.9062 31.755 69.8125 31.8488 69.7188 31.9426C69.5313 32.1303 69.0625 32.318 68.6875 32.318C68.5 32.318 68.3125 32.318 68.125 32.2242C67.75 32.1303 67.4688 31.8488 67.4688 31.4734C67.4688 31.2857 67.5625 31.098 67.75 31.0042C67.9375 30.8165 68.3125 30.7227 68.7813 30.7227C69.0625 30.7227 69.25 30.7227 69.4375 30.8165C69.625 31.0042 69.9062 31.2857 69.9062 31.5673Z"
        fill="#FFFEF3" />
    <path
        d="M79.5625 56.9044L80.875 57.6552L81.4375 57.9367C81.7188 58.1244 82 58.1244 82.2812 57.9367L82.8438 57.5613L86.6875 55.3091L88 54.5583C88.1875 54.4645 88.1875 54.2768 88 54.1829L86.125 53.0568C85.8438 52.8691 85.5625 52.8691 85.2813 53.0568L79.5625 56.4352C79.375 56.6229 79.375 56.8106 79.5625 56.9044Z"
        fill="#E3E4D4" />
    <path
        d="M79.5625 56.9043L79.9375 57.092L85.2813 53.9951C85.5625 53.8074 85.8438 53.8074 86.125 53.9951L87.625 54.8397L88 54.6521C88.1875 54.5582 88.1875 54.3705 88 54.2767L86.125 53.1505C85.8438 52.9628 85.5625 52.9628 85.2813 53.1505L79.5625 56.529C79.375 56.6228 79.375 56.8105 79.5625 56.9043Z"
        fill="#C5C6B8" />
    <path
        d="M122.875 207.525C121.656 208.182 119.031 207.525 117.625 207.525C116.969 207.525 116.219 207.432 115.656 207.244C115.375 207.15 115.094 207.056 114.812 206.962C114.719 206.869 114.625 206.869 114.531 206.775L109.094 203.678L108.531 203.396L108.062 203.115L101.125 199.079L100.562 198.798L100.094 198.516L93.1561 194.481L92.5936 194.199L92.1248 193.918L87.9998 191.478C87.0623 190.915 86.6873 190.164 86.7811 189.413C86.8748 188.663 87.5311 187.912 88.5623 187.255C89.4061 186.786 90.5311 186.41 91.5623 186.316C91.9373 186.223 92.3123 186.223 92.6873 186.223C93.9061 186.223 95.0311 186.504 95.8748 186.973L121.75 201.895L122.219 202.176C122.875 202.552 123.25 203.021 123.344 203.49C123.719 204.616 124.281 206.775 122.875 207.525Z"
        fill="#4986CC" />
    <path
        d="M120.062 159.195H95.031C90.4373 159.383 86.4998 159.571 82.5623 160.321C74.3123 162.011 58.656 174.398 66.531 178.903C69.9998 180.873 74.4998 182 78.9998 182.281H79.1873C80.3123 182.375 81.3435 182.375 82.4685 182.281H117.156L120.062 159.195Z"
        fill="#4986CC" />
    <path d="M139.937 119.031L139.656 169.707H95.5937L95.3125 119.031H139.937Z" fill="#FFDB31" />
    <path
        d="M101.875 178.715C106.281 181.249 112.188 182.563 118.094 182.469C122.875 182.375 127.563 181.436 131.5 179.653C132.156 179.372 132.719 179.09 133.281 178.715C141.813 173.741 141.719 165.764 133.094 160.978C132.625 160.697 132.063 160.415 131.5 160.134C127.563 158.351 122.781 157.412 118 157.318C112.281 157.318 106.563 158.445 102.156 160.978C93.5315 165.764 93.344 173.741 101.875 178.715Z"
        fill="#FFCF31" />
    <path
        d="M102.906 161.355C111.156 156.757 124.281 156.757 132.437 161.261C140.687 165.86 140.781 173.461 132.625 178.247C124.375 183.033 110.781 183.127 102.625 178.341C94.3748 173.555 94.5623 165.954 102.906 161.355Z"
        fill="#FFA420" />
    <path
        d="M131.125 160.884C130.938 159.758 130.469 158.632 129.625 157.6C128.875 156.567 127.844 155.723 126.813 155.347L118.938 152.157C116.875 151.312 115.469 152.438 115.75 154.596C115.938 155.723 116.406 156.849 117.25 157.881C118 158.913 119.031 159.758 120.063 160.133L127.938 163.324C130 164.169 131.5 163.043 131.125 160.884Z"
        fill="#5700EB" />
    <path
        d="M131.125 160.884C130.938 159.758 130.469 158.632 129.625 157.6C128.875 156.567 127.844 155.723 126.812 155.347L122.875 153.752L123.906 161.729L127.844 163.324C130 164.169 131.5 163.043 131.125 160.884Z"
        fill="#5700EB" />
    <path
        d="M131.594 164.732C130.375 165.296 128.969 165.577 121.844 162.293L125.313 153.096C132.625 156.005 132.906 156.662 133.656 157.882C135.156 160.04 133.75 163.794 131.594 164.732Z"
        fill="#F05907" />
    <path
        d="M124.094 161.637C122.312 162.95 120.719 162.293 120.344 160.135C120.062 157.977 121.281 155.067 122.969 153.754C124.75 152.44 126.344 153.097 126.625 155.255C127 157.413 125.781 160.323 124.094 161.637Z"
        fill="#EB6A00" />
    <path
        d="M121.844 162.293C114.438 159.384 114.25 158.351 113.875 157.319C112.75 154.222 114.813 151.97 116.031 151.407C118.281 150.468 120.063 150.468 125.313 153.096C126.344 153.659 122.969 162.762 121.844 162.293Z"
        fill="#EB6A00" />
    <path
        d="M118.469 164.922C118.937 165.86 119.875 166.799 120.906 167.455C121.937 168.112 123.156 168.582 124.281 168.675L132.719 169.051C134.969 169.145 135.906 167.643 134.875 165.672C134.406 164.734 133.469 163.796 132.344 163.139C131.312 162.482 130.094 162.012 128.969 161.919L120.531 161.543C118.375 161.449 117.437 162.951 118.469 164.922Z"
        fill="#5700EB" />
    <path
        d="M118.469 164.922C118.937 165.86 119.875 166.799 120.906 167.455C121.937 168.112 123.156 168.582 124.281 168.675L128.5 168.863L124.844 161.731L120.625 161.543C118.375 161.449 117.437 162.951 118.469 164.922Z"
        fill="#5700EB" />
    <path
        d="M116.781 161.449C117.719 160.51 118.937 159.759 126.812 160.416L126.625 170.176C118.75 169.895 118.281 169.332 117.156 168.487C114.906 166.986 115 163.138 116.781 161.449Z"
        fill="#F05907" />
    <path
        d="M124.843 161.824C126.062 159.947 127.843 160.041 128.875 162.011C129.906 163.982 129.718 167.079 128.5 168.956C127.281 170.833 125.5 170.739 124.468 168.768C123.531 166.704 123.718 163.607 124.843 161.824Z"
        fill="#EB6A00" />
    <path
        d="M126.719 160.416C134.687 160.698 135.25 161.542 135.906 162.387C138.062 164.921 136.844 167.736 135.812 168.674C134.031 170.364 132.344 170.927 126.531 170.176C125.406 170.082 125.594 160.416 126.719 160.416Z"
        fill="#EB6A00" />
    <path
        d="M114.156 158.914C113.219 158.351 111.906 158.164 110.688 158.257C109.469 158.257 108.156 158.633 107.219 159.196L100 163.7C98.1252 164.92 98.1252 166.703 100.094 167.736C101.031 168.299 102.344 168.487 103.563 168.393C104.781 168.393 106.094 168.017 107.031 167.454L114.25 162.95C116.125 161.824 116.125 159.947 114.156 158.914Z"
        fill="#5700EB" />
    <path
        d="M114.156 158.914C113.219 158.351 111.906 158.164 110.687 158.257C109.469 158.257 108.156 158.633 107.219 159.196L103.656 161.448L110.781 165.202L114.344 162.95C116.125 161.824 116.125 159.947 114.156 158.914Z"
        fill="#5700EB" />
    <path
        d="M117.531 160.886C117.25 162.2 116.688 163.514 109.844 167.361L104.406 159.197C111.063 154.974 111.719 155.161 113.125 155.161C115.844 155.255 118 158.446 117.531 160.886Z"
        fill="#F05907" />
    <path
        d="M110.688 165.203C110.782 167.456 109.282 168.394 107.313 167.362C105.344 166.33 103.75 163.702 103.657 161.45C103.563 159.197 105.063 158.259 107.032 159.291C108.907 160.324 110.594 162.951 110.688 165.203Z"
        fill="#EB6A00" />
    <path
        d="M109.844 167.361C103.188 171.678 102.156 171.302 101.125 171.021C97.9376 170.176 97.2814 167.173 97.5626 165.859C98.1251 163.513 99.0626 162.012 104.313 159.29C105.531 158.727 110.875 166.704 109.844 167.361Z"
        fill="#EB6A00" />
    <path
        d="M121.469 171.96C121.094 170.928 120.344 169.896 119.406 169.051C118.469 168.206 117.344 167.549 116.219 167.362L107.969 165.673C105.812 165.203 104.594 166.611 105.25 168.676C105.625 169.708 106.375 170.74 107.312 171.585C108.25 172.429 109.375 173.086 110.5 173.274L118.75 174.963C121 175.339 122.219 174.025 121.469 171.96Z"
        fill="#5700EB" />
    <path
        d="M121.469 171.959C121.094 170.926 120.344 169.894 119.406 169.049C118.469 168.205 117.344 167.548 116.219 167.36L112.094 166.516L114.625 174.117L118.75 174.962C121 175.337 122.219 174.023 121.469 171.959Z"
        fill="#5700EB" />
    <path
        d="M122.594 175.62C121.469 176.37 120.156 176.934 112.562 175.057L114.25 165.391C121.938 166.892 122.313 167.549 123.344 168.488C125.313 170.458 124.656 174.306 122.594 175.62Z"
        fill="#F05907" />
    <path
        d="M114.625 174.025C113.125 175.714 111.437 175.338 110.687 173.274C110.031 171.209 110.594 168.112 112.094 166.517C113.594 164.828 115.281 165.203 116.031 167.268C116.781 169.332 116.125 172.429 114.625 174.025Z"
        fill="#EB6A00" />
    <path
        d="M112.562 175.056C104.687 173.555 104.312 172.522 103.75 171.678C102.062 168.862 103.656 166.235 104.781 165.484C106.844 164.076 108.531 163.795 114.25 165.39C115.375 165.766 113.781 175.338 112.562 175.056Z"
        fill="#EB6A00" />
    <path
        d="M132.719 170.177C131.875 169.52 130.563 169.144 129.344 168.957C128.125 168.769 126.813 168.957 125.781 169.426L118 172.804C115.938 173.649 115.75 175.526 117.531 176.84C118.375 177.497 119.688 177.872 120.906 178.06C122.125 178.153 123.438 178.06 124.469 177.59L132.25 174.212C134.313 173.274 134.5 171.491 132.719 170.177Z"
        fill="#5700EB" />
    <path
        d="M132.719 170.177C131.875 169.52 130.562 169.144 129.344 168.957C128.125 168.769 126.813 168.957 125.781 169.426L121.938 171.115L128.406 175.901L132.25 174.212C134.313 173.274 134.5 171.491 132.719 170.177Z"
        fill="#5700EB" />
    <path
        d="M135.813 172.616C135.344 173.836 134.594 175.15 127.281 177.965L123.062 169.144C130.188 165.859 130.938 166.234 132.25 166.422C134.969 166.797 136.656 170.27 135.813 172.616Z"
        fill="#EB6A00" />
    <path
        d="M128.312 175.901C128.031 178.059 126.437 178.81 124.656 177.496C122.875 176.182 121.656 173.367 121.937 171.115C122.219 168.956 123.812 168.205 125.594 169.519C127.375 170.833 128.594 173.648 128.312 175.901Z"
        fill="#F05907" />
    <path
        d="M127.281 177.87C120.063 181.155 119.125 180.592 118.188 180.216C115.188 178.903 115 175.806 115.469 174.586C116.313 172.333 117.531 171.02 123.156 169.049C124.188 168.673 128.313 177.401 127.281 177.87Z"
        fill="#F05907" />
    <path
        d="M101.969 118.281C110.688 114.058 124.656 114.058 133.281 118.187C141.906 122.41 141.813 129.261 133.188 133.484C124.469 137.707 110.5 137.707 101.875 133.577C93.2502 129.354 93.3439 122.504 101.969 118.281Z"
        fill="#FFA422" />
    <path
        d="M118 119.781V181.625C122.781 181.531 127.469 180.593 131.406 178.81L131.5 159.384L131.594 119.875H118V119.781Z"
        fill="#FFBE45" />
    <path
        d="M101.781 128.134C110.5 133.202 124.656 133.108 133.375 128.04C142.094 122.973 142.188 114.808 133.469 109.74C124.75 104.673 110.594 104.767 101.875 109.834C93.1564 114.996 93.0627 123.16 101.781 128.134Z"
        fill="#FF7C00" />
    <path
        d="M93.1562 114.057L98.875 111.148C99.3437 110.866 99.8125 110.491 100.375 110.209C109.937 104.673 125.406 104.673 134.969 110.116C135.531 110.397 136 110.772 136.562 111.148L142.094 114.057V120.157C142.094 123.723 139.656 127.383 134.875 130.104C125.312 135.641 109.844 135.641 100.281 130.198C95.5 127.477 93.1562 123.817 93.1562 120.157V114.057Z"
        fill="#CAD7D7" />
    <path
        d="M93.1562 110.303L98.875 107.394C99.3437 107.112 99.8125 106.737 100.375 106.455C109.937 100.919 125.406 100.919 134.969 106.362C135.531 106.643 136 107.019 136.562 107.394L142.094 110.303V116.403C142.094 119.969 139.656 123.629 134.875 126.351C125.312 131.887 109.844 131.887 100.281 126.444C95.5 123.723 93.1562 120.063 93.1562 116.403V110.303Z"
        fill="#9DB5B5" />
    <path
        d="M117.703 128.136C131.217 128.063 142.138 121.701 142.096 113.926C142.054 106.152 131.064 99.9091 117.551 99.9825C104.037 100.056 93.1162 106.418 93.1583 114.192C93.2004 121.966 104.19 128.209 117.703 128.136Z"
        fill="#F1F4F4" />
    <path
        d="M92.5938 99.6055V114.527C92.5938 116.028 92.9688 117.624 93.8125 119.031C94.0938 119.594 94.4688 120.064 94.8438 120.627C95.3125 121.19 95.7813 121.753 96.3438 122.222C96.7188 122.504 97 122.879 97.375 123.161C97.8438 123.536 98.3125 123.911 98.875 124.193C99.1562 124.381 99.5312 124.568 99.8125 124.756C99.8125 124.756 99.9063 124.756 99.9063 124.85C100.375 125.131 100.844 125.413 101.406 125.601C101.781 125.788 102.063 125.976 102.438 126.07C102.906 126.257 103.469 126.445 103.938 126.727C104.313 126.82 104.594 127.008 104.969 127.102C105.437 127.29 106 127.384 106.469 127.571C106.844 127.665 107.125 127.759 107.5 127.853C107.969 127.947 108.438 128.04 108.906 128.134C109.281 128.228 109.656 128.228 109.938 128.322C110.406 128.416 110.875 128.51 111.344 128.604C111.719 128.604 112 128.697 112.375 128.697C112.844 128.791 113.313 128.791 113.781 128.791C114.156 128.791 114.531 128.885 114.812 128.885C115.281 128.885 115.75 128.979 116.219 128.979C116.594 128.979 116.875 128.979 117.25 128.979C117.719 128.979 118.188 128.979 118.656 128.979C119.031 128.979 119.313 128.979 119.688 128.885C120.156 128.885 120.625 128.791 121.094 128.791C121.469 128.791 121.75 128.697 122.125 128.697C122.594 128.604 123.063 128.604 123.531 128.51C123.906 128.416 124.281 128.416 124.563 128.322C125.031 128.228 125.5 128.134 125.969 128.04C126.344 127.947 126.625 127.947 127 127.853C127.469 127.759 127.938 127.665 128.406 127.477L129.438 127.196C129.906 127.008 130.375 126.914 130.844 126.727C131.219 126.633 131.5 126.445 131.875 126.351C132.344 126.164 132.813 125.976 133.281 125.694C133.656 125.507 134.031 125.319 134.313 125.131C134.594 125.037 134.781 124.85 134.969 124.756C135.25 124.662 135.438 124.474 135.625 124.381C136 124.193 136.375 123.911 136.656 123.724C137.125 123.348 137.594 122.973 138.063 122.597C138.438 122.222 138.813 121.941 139.094 121.565C139.563 121.096 140.031 120.533 140.406 119.97L140.5 119.876C140.969 119.219 141.25 118.562 141.531 117.999C142 116.873 142.281 115.747 142.281 114.621V99.6993L138.063 103.922L136.656 105.33C136.281 105.142 136 104.861 135.625 104.673C135.438 104.579 135.25 104.392 135.063 104.298C134.781 104.11 134.5 104.016 134.219 103.828C133.844 103.641 133.563 103.453 133.188 103.265C132.719 103.078 132.25 102.89 131.781 102.609C131.406 102.515 131.125 102.327 130.75 102.233C130.281 102.045 129.813 101.858 129.344 101.764C128.969 101.67 128.688 101.576 128.313 101.482C127.844 101.389 127.375 101.201 126.906 101.107C126.531 101.013 126.25 100.919 125.875 100.919C125.406 100.825 124.938 100.732 124.469 100.638C124.094 100.544 123.813 100.544 123.438 100.45C122.969 100.356 122.5 100.356 122.031 100.262C121.656 100.262 121.375 100.169 121 100.169C120.531 100.169 120.063 100.075 119.594 100.075C119.219 100.075 118.938 100.075 118.563 100.075C118.094 100.075 117.625 100.075 117.156 100.075C116.781 100.075 116.5 100.075 116.125 100.075C115.656 100.075 115.188 100.075 114.719 100.169C114.344 100.169 113.969 100.169 113.688 100.262C113.219 100.262 112.75 100.356 112.281 100.356C111.906 100.45 111.531 100.45 111.25 100.544C110.781 100.638 110.313 100.638 109.844 100.732C109.469 100.825 109.094 100.825 108.813 100.919C108.344 101.013 107.875 101.107 107.406 101.201C107.031 101.295 106.656 101.389 106.375 101.482C105.906 101.576 105.344 101.764 104.875 101.952C104.5 102.045 104.219 102.233 103.844 102.327C103.375 102.515 102.813 102.702 102.344 102.984C101.969 103.078 101.688 103.265 101.313 103.453C100.844 103.735 100.281 103.922 99.8125 104.204C99.4375 104.392 99.0625 104.673 98.7813 104.861C98.5938 104.955 98.5 105.048 98.3125 105.142L97.2813 104.11L96.25 103.078L94.75 101.67L93.7187 100.638L92.5938 99.6055Z"
        fill="#DCE4E4" />
    <path
        d="M140.781 101.388V119.781C141.25 119.124 141.531 118.468 141.812 117.904V100.355L140.781 101.388Z"
        fill="#CFDADA" />
    <path
        d="M138.344 103.827V122.409C138.719 122.033 139.094 121.752 139.375 121.376V102.701L138.344 103.827Z"
        fill="#CFDADA" />
    <path
        d="M135.906 104.578V124.192C136.281 124.004 136.656 123.722 136.938 123.535V105.235C136.656 105.047 136.281 104.766 135.906 104.578Z"
        fill="#CFDADA" />
    <path
        d="M133.469 103.266V125.601C133.844 125.413 134.219 125.225 134.5 125.038V103.735C134.219 103.641 133.844 103.453 133.469 103.266Z"
        fill="#CFDADA" />
    <path
        d="M131.031 102.232V126.632C131.406 126.538 131.688 126.351 132.063 126.257V102.702C131.781 102.514 131.406 102.42 131.031 102.232Z"
        fill="#CFDADA" />
    <path
        d="M128.594 101.482V127.384L129.625 127.102V101.764C129.25 101.67 128.969 101.576 128.594 101.482Z"
        fill="#CFDADA" />
    <path
        d="M126.156 100.824V127.945C126.531 127.852 126.813 127.852 127.188 127.758V101.106C126.813 101.012 126.531 100.918 126.156 100.824Z"
        fill="#CFDADA" />
    <path
        d="M123.719 100.449V128.509C124.094 128.415 124.469 128.415 124.75 128.321V100.637C124.375 100.543 124.094 100.449 123.719 100.449Z"
        fill="#CFDADA" />
    <path
        d="M121.281 100.168V128.791C121.656 128.791 121.937 128.697 122.313 128.697V100.262C121.937 100.262 121.563 100.168 121.281 100.168Z"
        fill="#CFDADA" />
    <path
        d="M118.844 100.074V128.978C119.219 128.978 119.5 128.978 119.875 128.885V100.074C119.5 100.074 119.125 100.074 118.844 100.074Z"
        fill="#CFDADA" />
    <path
        d="M116.406 100.074V128.978C116.781 128.978 117.062 128.978 117.437 128.978V100.074C117.062 100.074 116.687 100.074 116.406 100.074Z"
        fill="#CFDADA" />
    <path
        d="M113.875 100.168V128.791C114.25 128.791 114.625 128.885 114.906 128.885V100.168C114.625 100.168 114.25 100.168 113.875 100.168Z"
        fill="#CFDADA" />
    <path
        d="M111.438 100.543V128.603C111.813 128.603 112.094 128.697 112.469 128.697V100.355C112.187 100.355 111.813 100.449 111.438 100.543Z"
        fill="#CFDADA" />
    <path
        d="M109 100.918V128.039C109.375 128.133 109.75 128.133 110.031 128.227V100.637C109.75 100.824 109.375 100.824 109 100.918Z"
        fill="#CFDADA" />
    <path
        d="M106.562 101.577V127.478C106.937 127.572 107.219 127.665 107.594 127.759V101.201C107.312 101.389 106.937 101.483 106.562 101.577Z"
        fill="#CFDADA" />
    <path
        d="M104.031 102.42V126.726C104.406 126.82 104.688 127.008 105.063 127.102V102.045C104.688 102.139 104.406 102.233 104.031 102.42Z"
        fill="#CFDADA" />
    <path
        d="M101.5 103.547V125.601C101.875 125.789 102.156 125.976 102.531 126.07V102.984C102.156 103.172 101.875 103.36 101.5 103.547Z"
        fill="#CFDADA" />
    <path
        d="M98.875 104.954V124.098C99.1562 124.286 99.5312 124.474 99.8125 124.661C99.8125 124.661 99.9063 124.661 99.9063 124.755V104.297C99.625 104.485 99.25 104.766 98.875 104.954Z"
        fill="#CFDADA" />
    <path
        d="M96.3438 103.172V122.129C96.7188 122.41 97 122.785 97.375 123.067V104.204L96.3438 103.172Z"
        fill="#CFDADA" />
    <path
        d="M93.8125 100.73V119.03C94.0938 119.593 94.4688 120.063 94.8438 120.626V101.857L93.8125 100.73Z"
        fill="#CFDADA" />
    <path
        d="M99.9073 109.834C109.657 115.464 125.501 115.464 135.251 109.74C145.001 104.109 145.095 94.9124 135.345 89.2817C125.595 83.651 109.751 83.651 100.001 89.3755C90.1573 95.1001 90.1573 104.203 99.9073 109.834Z"
        fill="#EBEFEF" />
    <path
        d="M102.25 90.6894C110.781 85.7156 124.656 85.7156 133.094 90.5956C141.625 95.4755 141.531 103.452 133 108.426C124.469 113.4 110.594 113.4 102.156 108.52C93.625 103.64 93.625 95.6632 102.25 90.6894Z"
        fill="#D9E2E2" />
    <path
        d="M102.25 90.6894C110.781 85.7156 124.656 85.7156 133.094 90.5956C133.281 90.6894 133.469 90.8771 133.656 90.9709C125.125 87.2172 112.469 87.4987 104.5 91.8156C95.9688 96.414 95.8751 103.828 104.406 108.426C109.75 111.241 117.063 112.368 124 111.617C116.5 112.931 108.063 111.898 102.156 108.52C93.625 103.64 93.6251 95.6632 102.25 90.6894Z"
        fill="#9DB5B5" />
    <path
        d="M133.094 92.9417C124.562 88.0618 110.781 88.0618 102.25 93.0355C98.4998 95.194 96.3436 98.0093 95.8748 100.825C95.3123 97.1647 97.3748 93.4109 102.25 90.6894C110.781 85.7156 124.656 85.7156 133.094 90.5956C137.875 93.3171 139.937 97.0709 139.375 100.637C138.906 97.8216 136.844 95.1001 133.094 92.9417Z"
        fill="#CAD7D7" />
    <path
        d="M139.938 157.6L139.656 165.295C139.656 165.952 139.563 166.609 139.469 167.172C138.625 169.143 136.563 171.019 133.469 172.521C124.938 176.65 111.344 176.838 102.625 172.896V165.013C111.344 168.955 124.938 168.767 133.469 164.638C136.563 163.136 138.625 161.26 139.469 159.289C139.656 158.726 139.844 158.163 139.938 157.6Z"
        fill="#EF2C1F" />
    <path
        d="M139.938 137.799L139.656 157.319C139.656 157.975 139.563 158.632 139.469 159.195C138.813 161.729 136.75 164.263 133.375 166.234C132.813 166.609 132.156 166.891 131.594 167.172C127.656 169.049 122.969 169.988 118.188 169.988C112.563 170.081 107.031 168.955 102.625 166.703V145.213C111.344 149.154 124.938 148.966 133.469 144.837C136.938 143.148 139 141.083 139.75 138.831C139.75 138.55 139.844 138.174 139.938 137.799Z"
        fill="#EBEFEF" />
    <path
        d="M139.656 138.926V140.052C139.656 140.427 139.656 140.709 139.563 141.084C138.719 143.243 136.75 145.213 133.375 146.809C124.844 150.938 111.25 151.126 102.531 147.184V145.213C111.25 149.155 124.844 148.967 133.375 144.838C136.844 143.243 138.906 141.178 139.656 138.926Z"
        fill="#EF2C1F" />
    <path
        d="M104.406 158.633V166.234C104.406 166.234 107.875 167.736 114.156 168.111C120.437 168.487 121.187 167.923 121.187 167.923V160.697C121.281 160.697 111.531 161.542 104.406 158.633Z"
        fill="#93A9A9" />
    <path
        d="M114.25 158.352C107.969 157.976 104.5 156.475 104.5 156.475V157.601C104.5 157.601 107.969 159.102 114.25 159.478C120.531 159.853 121.281 159.478 121.281 159.478V158.352C121.281 158.352 120.531 158.727 114.25 158.352Z"
        fill="#93A9A9" />
    <path
        d="M139 143.523C139 143.523 136.75 148.403 128.312 150.186C119.875 151.969 115.469 151.219 115.469 151.219V153.096C115.469 153.096 121.937 153.659 129.531 151.782C137.031 149.905 139 145.494 139 145.494V143.523Z"
        fill="#93A9A9" />
    <path
        d="M139 162.949C139 162.949 136.75 167.923 128.312 170.269C119.875 172.521 115.469 172.052 115.469 172.052V173.929C115.469 173.929 121.937 174.117 129.531 171.771C137.031 169.518 139 165.014 139 165.014V162.949Z"
        fill="#EBEFEF" />
    <path
        d="M125.406 206.68C124.187 207.337 122.687 207.713 121.281 207.713C120.343 207.713 119.5 207.619 118.75 207.337C118.656 207.337 118.656 207.337 118.562 207.243C118.375 207.15 118.281 207.056 118.093 207.056L112.75 203.959L111.625 203.302L104.781 199.36L103.656 198.703L96.8121 194.762L95.6871 194.105L92.2183 192.04C91.3746 191.571 90.6246 190.539 90.4371 189.976C89.9683 188.756 89.6871 186.222 90.4371 185.19C90.5308 185.096 90.6246 184.908 90.8121 184.814L94.0933 186.598C94.2808 186.504 94.3746 186.41 94.4683 186.41C95.6871 185.941 96.7183 186.597 97.7496 187.348C98.0308 187.536 98.3121 187.817 98.5933 188.005C98.8746 188.193 99.0621 188.381 99.3433 188.568L106.468 191.384L107.593 191.853L110.781 193.073L115.937 195.044L117.156 195.513L124 198.14L126.062 198.891L126.906 199.173C127.937 201.519 128.312 204.897 125.406 206.68Z"
        fill="#C1CFCF" />
    <path
        d="M125.406 202.27C124.187 202.927 122.687 203.303 121.281 203.303C120.625 203.303 119.875 203.209 119.312 203.021C119.031 202.927 118.75 202.834 118.469 202.74C118.375 202.646 118.281 202.646 118.187 202.552L112.75 199.455L112.187 199.174L111.719 198.892L104.781 194.857L104.219 194.575L103.75 194.294L96.8123 190.258L96.2498 189.977L95.7811 189.695L91.6561 187.255C90.7186 186.692 90.3436 185.941 90.4373 185.191C90.5311 184.44 91.1873 183.689 92.2186 183.032C93.0623 182.563 94.1873 182.188 95.2186 182.094C95.5936 182 95.9686 182 96.3436 182C97.5623 182 98.6873 182.282 99.5311 182.751L125.406 197.672L125.875 197.954C126.531 198.329 126.906 198.798 127 199.267C127.375 200.394 126.719 201.426 125.406 202.27Z"
        fill="#E3E8E8" />
    <path
        d="M118.281 204.804C118.281 205.837 118.468 206.587 118.75 207.244C118.656 207.244 118.656 207.244 118.562 207.15C118.375 207.057 118.281 206.963 118.093 206.963L112.75 203.866L111.625 203.209L104.781 199.267L103.656 198.611L96.8121 194.669L95.6871 194.012L92.2183 191.948C91.3746 191.478 90.6246 190.446 90.4371 189.883C89.9683 188.663 89.6871 186.129 90.4371 185.097C90.5308 184.346 91.1871 183.595 92.2183 182.938C93.0621 182.469 94.1871 182.094 95.2183 182C96.3433 182.751 104.5 188.288 110.968 192.98C115.468 196.264 119.218 199.08 119.218 199.549C119.218 199.549 118.656 200.581 118.375 202.646C118.375 203.303 118.281 204.054 118.281 204.804Z"
        fill="#E9EFEF" />
    <path
        d="M126.25 198.798C126.25 198.892 126.25 198.986 126.156 199.079C126.062 199.455 125.687 199.83 124.937 200.299C124 200.863 122.687 201.144 121.375 201.144C120.343 201.144 119.406 200.956 118.75 200.581L113.968 197.86L113.031 197.296L106.093 193.261L105.156 192.698L98.1245 188.663L97.187 188.1L94.562 186.598L92.4995 185.378C92.2183 185.19 91.7495 184.909 91.7495 184.534C91.7495 184.158 92.0308 183.595 92.9683 183.126C93.9058 182.563 95.2183 182.281 96.5308 182.281C97.562 182.281 98.4995 182.469 99.1558 182.844L103.375 185.284L104.406 185.847L111.343 189.883L112.375 190.446L119.312 194.481L120.343 195.044L125.593 198.141C125.875 198.047 126.25 198.423 126.25 198.798Z"
        fill="#F9F9F9" />
    <path
        d="M104.406 185.661L103.656 185.754C101.781 186.036 100.093 186.881 98.687 188.101C98.4995 188.288 98.312 188.382 98.2183 188.57C97.937 188.851 97.6558 189.133 97.3745 189.508L96.812 190.259L96.2495 189.978L95.7808 189.696C95.9683 189.321 96.437 188.851 96.437 188.851C96.6245 188.57 96.9058 188.288 97.0933 188.101C97.2808 187.913 97.4683 187.725 97.6558 187.538C99.062 186.318 100.75 185.567 102.625 185.285L103.187 185.191L103.562 185.379L104.406 185.661Z"
        fill="#C6D3D3" />
    <path
        d="M112.375 190.258L111.625 190.352C110.218 190.54 108.906 191.103 107.781 191.854C107.218 192.229 106.656 192.698 106.187 193.168C105.906 193.449 105.625 193.731 105.343 194.106L104.781 194.857L104.218 194.575L103.75 194.294C103.937 193.918 104.5 193.449 104.5 193.449C104.687 193.168 104.968 192.886 105.156 192.698C105.625 192.229 106.093 191.854 106.562 191.478C107.781 190.634 109.187 190.071 110.687 189.789L111.25 189.695L111.625 189.883L112.375 190.258Z"
        fill="#C6D3D3" />
    <path
        d="M120.25 194.856L119.5 194.95C118.75 195.044 118 195.325 117.343 195.607C116.125 196.076 115 196.827 114.062 197.765C113.781 198.047 113.5 198.328 113.218 198.704L112.656 199.454L112.093 199.173L111.625 198.891C111.812 198.516 112.281 198.047 112.281 198.047C112.468 197.765 112.75 197.484 112.937 197.296C113.781 196.451 114.812 195.701 115.937 195.231C116.781 194.856 117.625 194.574 118.562 194.481L119.125 194.387L119.5 194.574L120.25 194.856Z"
        fill="#C6D3D3" />
    <path
        d="M104.406 185.66L103.656 185.754C101.781 186.036 100.093 186.88 98.687 188.1C98.4995 188.288 98.312 188.382 98.2183 188.57C97.937 188.851 97.6558 189.133 97.3745 189.508L96.812 190.259L96.2495 189.977C96.437 189.602 96.9995 189.039 96.9995 189.039C97.187 188.757 97.4683 188.476 97.6558 188.288C97.8433 188.1 98.0308 187.913 98.2183 187.725C99.6245 186.505 101.312 185.754 103.187 185.473L103.656 185.379L104.406 185.66Z"
        fill="#A0B6B6" />
    <path
        d="M112.375 190.258L111.625 190.352C110.218 190.54 108.906 191.103 107.781 191.854C107.218 192.229 106.656 192.698 106.187 193.167C105.906 193.449 105.625 193.73 105.343 194.106L104.781 194.857L104.218 194.575C104.406 194.2 104.968 193.637 104.968 193.637C105.156 193.355 105.437 193.074 105.625 192.886C106.093 192.417 106.562 192.041 107.031 191.666C108.25 190.821 109.656 190.258 111.156 189.977L111.625 189.883L112.375 190.258Z"
        fill="#A0B6B6" />
    <path
        d="M120.25 194.856L119.5 194.95C118.75 195.043 118 195.325 117.343 195.607C116.125 196.076 115 196.826 114.062 197.765C113.781 198.046 113.5 198.328 113.218 198.703L112.656 199.454L112.093 199.173C112.281 198.797 112.843 198.234 112.843 198.234C113.031 197.953 113.312 197.671 113.5 197.483C114.343 196.639 115.375 195.888 116.5 195.419C117.343 195.043 118.187 194.762 119.125 194.668L119.593 194.574L120.25 194.856Z"
        fill="#A0B6B6" />
    <path
        d="M126.156 186.13C127.375 186.787 128.875 187.162 130.281 187.162C130.937 187.162 131.687 187.068 132.25 186.881C132.531 186.787 136.187 186.505 136.468 186.411C136.562 186.318 136.656 186.318 136.75 186.224L138.812 183.315L139.375 183.033L139.843 182.751L146.781 178.716L147.343 178.435L147.812 178.153L154.75 174.118L155.312 173.836L155.781 173.555L159.906 171.115C160.843 170.552 161.218 169.801 161.125 169.05C161.031 168.299 160.375 167.549 159.343 166.892C158.5 166.422 157.375 166.047 156.343 165.953C155.968 165.859 155.593 165.859 155.218 165.859C154 165.859 152.875 166.141 152.031 166.61L126.156 181.532L125.687 181.813C125.031 182.188 124.656 182.658 124.562 183.127C124.093 184.253 124.75 185.379 126.156 186.13Z"
        fill="#4986CC" />
    <path
        d="M130.937 185.659C132.156 186.316 133.656 186.691 135.062 186.691C136 186.691 136.844 186.597 137.594 186.316C137.687 186.316 137.687 186.316 137.781 186.222C137.969 186.128 138.062 186.034 138.25 186.034L143.594 182.937L144.719 182.28L151.562 178.339L152.687 177.682L159.531 173.741L160.656 173.084L164.125 171.019C164.969 170.55 165.719 169.517 165.906 168.954C166.375 167.734 166.656 165.201 165.906 164.168C165.812 164.074 165.719 163.887 165.531 163.793L162.25 165.576C162.062 165.482 161.969 165.388 161.875 165.388C160.656 164.919 159.625 165.576 158.594 166.327C158.312 166.514 158.031 166.796 157.75 166.984C157.469 167.171 157.281 167.359 157 167.547L149.875 170.362L148.75 170.831L145.562 172.051L140.406 174.022L139.187 174.491L132.344 177.119L130.281 177.87L129.437 178.151C128.312 180.497 127.937 183.782 130.937 185.659Z"
        fill="#A9BDBD" />
    <path
        d="M130.937 181.155C132.156 181.812 133.656 182.187 135.062 182.187C135.718 182.187 136.468 182.094 137.031 181.906C137.312 181.812 137.593 181.718 137.874 181.624C137.968 181.531 138.062 181.531 138.156 181.437L143.593 178.34L144.156 178.058L144.624 177.777L151.562 173.741L152.124 173.46L152.593 173.178L159.531 169.143L160.093 168.861L160.562 168.58L164.687 166.14C165.625 165.577 165.999 164.826 165.906 164.075C165.812 163.325 165.156 162.574 164.124 162.011C163.281 161.542 162.156 161.166 161.124 161.072C160.749 160.979 160.375 160.979 160 160.979C158.781 160.979 157.656 161.26 156.812 161.729L130.937 176.651L130.468 176.932C129.812 177.308 129.437 177.777 129.343 178.246C128.968 179.278 129.531 180.404 130.937 181.155Z"
        fill="#D7DEDE" />
    <path
        d="M137.968 183.783C137.968 184.815 137.781 185.566 137.5 186.223C137.593 186.223 137.593 186.223 137.687 186.129C137.875 186.035 137.968 185.941 138.156 185.941L143.5 182.844L144.625 182.187L151.468 178.246L152.593 177.589L159.437 173.647L160.562 172.991L164.031 170.926C164.875 170.457 165.625 169.424 165.812 168.861C166.281 167.641 166.562 165.108 165.812 164.075C165.718 163.325 165.062 162.574 164.031 162.011C163.187 161.541 162.062 161.166 161.031 161.072C159.906 161.823 151.75 167.36 145.281 172.052C140.781 175.337 137.031 178.152 137.031 178.621C137.031 178.621 137.593 179.654 137.875 181.718C137.968 182.281 137.968 182.938 137.968 183.783Z"
        fill="#A9BDBD" />
    <path
        d="M130 177.776C130 177.87 130 177.964 130.093 178.058C130.187 178.433 130.562 178.809 131.312 179.278C132.25 179.841 133.562 180.123 134.875 180.123C135.906 180.123 136.843 179.935 137.5 179.559L142.281 176.838L143.218 176.275L150.156 172.24L151.093 171.677L158.125 167.641L159.062 167.078L161.687 165.577L163.75 164.357C164.031 164.169 164.5 163.887 164.5 163.512C164.5 163.137 164.218 162.574 163.281 162.104C162.343 161.541 161.031 161.26 159.718 161.26C158.687 161.26 157.75 161.447 157.093 161.823L152.875 164.263L151.843 164.826L144.906 168.861L143.875 169.424L136.937 173.46L135.906 174.023L130.656 177.12C130.468 177.026 130 177.307 130 177.776Z"
        fill="#F9F9F9" />
    <path
        d="M151.843 164.639L152.593 164.733C154.468 165.015 156.156 165.859 157.562 167.079C157.75 167.267 157.937 167.361 158.031 167.548C158.312 167.83 158.593 168.111 158.875 168.487L159.437 169.238L160 168.956L160.468 168.674C160.281 168.299 159.812 167.83 159.812 167.83C159.625 167.548 159.343 167.267 159.156 167.079C158.968 166.891 158.781 166.704 158.593 166.516C157.187 165.296 155.5 164.545 153.625 164.264L153.062 164.17L152.687 164.358L151.843 164.639Z"
        fill="#C6D3D3" />
    <path
        d="M143.968 169.237L144.718 169.331C146.125 169.518 147.437 170.082 148.562 170.832C149.124 171.208 149.687 171.677 150.156 172.146C150.437 172.428 150.718 172.709 151 173.085L151.562 173.835L152.124 173.554L152.593 173.272C152.406 172.897 151.843 172.428 151.843 172.428C151.656 172.146 151.374 171.865 151.187 171.677C150.718 171.208 150.249 170.832 149.781 170.457C148.562 169.612 147.156 169.049 145.656 168.768L145.093 168.674L144.718 168.862L143.968 169.237Z"
        fill="#C6D3D3" />
    <path
        d="M136 173.834L136.75 173.928C137.5 174.022 138.25 174.304 138.906 174.585C140.125 175.054 141.25 175.805 142.187 176.744C142.468 177.025 142.75 177.307 143.031 177.682L143.593 178.433L144.156 178.151L144.625 177.87C144.437 177.494 143.968 177.025 143.968 177.025C143.781 176.744 143.5 176.462 143.312 176.274C142.468 175.43 141.437 174.679 140.312 174.21C139.468 173.834 138.625 173.553 137.687 173.459L137.125 173.365L136.75 173.553L136 173.834Z"
        fill="#C6D3D3" />
    <path
        d="M151.843 164.639L152.593 164.733C154.468 165.014 156.156 165.859 157.562 167.079C157.75 167.267 157.937 167.36 158.031 167.548C158.312 167.83 158.593 168.111 158.875 168.487L159.437 169.237L160 168.956C159.812 168.58 159.25 168.017 159.25 168.017C159.062 167.736 158.781 167.454 158.593 167.267C158.406 167.079 158.218 166.891 158.031 166.704C156.625 165.484 154.937 164.733 153.062 164.451L152.593 164.357L151.843 164.639Z"
        fill="#A0B6B6" />
    <path
        d="M143.968 169.237L144.718 169.331C146.125 169.518 147.437 170.081 148.562 170.832C149.125 171.207 149.687 171.677 150.156 172.146C150.437 172.427 150.718 172.709 151 173.084L151.562 173.835L152.125 173.554C151.937 173.178 151.375 172.615 151.375 172.615C151.187 172.334 150.906 172.052 150.718 171.864C150.25 171.395 149.781 171.02 149.312 170.644C148.093 169.8 146.687 169.237 145.187 168.955L144.718 168.861L143.968 169.237Z"
        fill="#A0B6B6" />
    <path
        d="M136 173.836L136.75 173.93C137.5 174.024 138.25 174.305 138.906 174.587C140.125 175.056 141.25 175.807 142.187 176.745C142.468 177.027 142.75 177.308 143.031 177.684L143.593 178.435L144.156 178.153C143.968 177.778 143.406 177.215 143.406 177.215C143.218 176.933 142.937 176.652 142.75 176.464C141.906 175.619 140.875 174.869 139.75 174.399C138.906 174.024 138.062 173.742 137.125 173.649L136.656 173.555L136 173.836Z"
        fill="#A0B6B6" />
    <defs>
        <linearGradient id="paint0_linear" x1="155.157" y1="77.53" x2="206.327" y2="113.365"
            gradientUnits="userSpaceOnUse">
            <stop offset="0.024324" stop-color="#FF383D" />
            <stop offset="0.5811" stop-color="#FF2E33" />
            <stop offset="0.9595" stop-color="#BD2E33" />
        </linearGradient>
        <linearGradient id="paint1_linear" x1="227.745" y1="94.7718" x2="190.923" y2="69.062"
            gradientUnits="userSpaceOnUse">
            <stop offset="0.024324" stop-color="#FF383D" />
            <stop offset="0.5811" stop-color="#FF2E33" />
            <stop offset="0.9595" stop-color="#BD2E33" />
        </linearGradient>
        <linearGradient id="paint2_linear" x1="33.1775" y1="55.9018" x2="97.3504" y2="55.9018"
            gradientUnits="userSpaceOnUse">
            <stop offset="0.1613" stop-color="#C6C7B9" />
            <stop offset="0.1633" stop-color="#E6E7D6" />
            <stop offset="0.5593" stop-color="#E6E7D6" />
            <stop offset="0.5622" stop-color="#F2F3E3" />
            <stop offset="0.8728" stop-color="#F2F3E3" />
            <stop offset="0.8739" stop-color="#E4E5D5" />
        </linearGradient>
        <linearGradient id="paint3_linear" x1="35.4038" y1="50.3983" x2="95.1241" y2="50.3983"
            gradientUnits="userSpaceOnUse">
            <stop offset="0.1613" stop-color="#C6C7B9" />
            <stop offset="0.1633" stop-color="#E6E7D6" />
            <stop offset="0.5593" stop-color="#E6E7D6" />
            <stop offset="0.5622" stop-color="#F2F3E3" />
            <stop offset="0.8728" stop-color="#F2F3E3" />
            <stop offset="0.8739" stop-color="#E4E5D5" />
        </linearGradient>
        <linearGradient id="paint4_linear" x1="42.4932" y1="39.4274" x2="88.1444" y2="39.4274"
            gradientUnits="userSpaceOnUse">
            <stop offset="0.1261" stop-color="#E4E5D5" />
            <stop offset="0.1272" stop-color="#F2F3E3" />
            <stop offset="0.4378" stop-color="#F2F3E3" />
            <stop offset="0.4407" stop-color="#E6E7D6" />
            <stop offset="0.8367" stop-color="#E6E7D6" />
            <stop offset="0.8387" stop-color="#C6C7B9" />
        </linearGradient>
        <linearGradient id="paint5_linear" x1="44.7119" y1="116.978" x2="85.849" y2="116.978"
            gradientUnits="userSpaceOnUse">
            <stop offset="0.1613" stop-color="#C6C7B9" />
            <stop offset="0.1633" stop-color="#E6E7D6" />
            <stop offset="0.5593" stop-color="#E6E7D6" />
            <stop offset="0.5622" stop-color="#F2F3E3" />
            <stop offset="0.8728" stop-color="#F2F3E3" />
            <stop offset="0.8739" stop-color="#E4E5D5" />
        </linearGradient>
    </defs>
</svg>
