<svg width="153" height="154" viewBox="0 0 153 154" fill="none" xmlns="http://www.w3.org/2000/svg">
    <path opacity="0.5" fill-rule="evenodd" clip-rule="evenodd"
        d="M80.6167 22.6295C89.8325 21.5569 97.6111 28.6719 105.892 32.8475C115.195 37.5385 130.354 38.3646 132.142 48.6106C134.116 59.9228 116.986 65.8518 113.566 76.8155C110.988 85.0795 117.874 93.8825 115.43 102.187C112.232 113.049 108.1 125.71 97.7838 130.424C87.5086 135.119 75.4224 129.54 64.9751 125.24C55.3191 121.265 47.7902 114.229 40.4428 106.822C32.601 98.9154 19.6153 91.7369 20.7726 80.6737C22.0089 68.856 37.7849 65.0392 45.7387 56.1961C50.7858 50.5848 53.4279 43.5551 58.8667 38.3208C65.4391 31.9955 71.5466 23.6852 80.6167 22.6295Z"
        stroke="#3F8AE0" />
    <path opacity="0.18" fill-rule="evenodd" clip-rule="evenodd"
        d="M32.7712 44.1885C36.8742 35.867 47.0726 33.198 55.0753 28.5111C64.0657 23.2458 72.9898 10.9648 82.565 15.0262C93.1365 19.5102 88.8145 37.1148 96.1645 45.9395C101.705 52.5913 112.836 51.5881 118.482 58.1499C125.868 66.7332 134.257 77.0768 132.614 88.2996C130.977 99.4775 119.73 106.598 110.447 113.036C101.866 118.987 91.8701 121.49 81.66 123.638C70.7628 125.93 57.684 132.937 49.0219 125.959C39.7691 118.504 45.1295 103.184 42.022 91.7029C40.0502 84.4178 35.5815 78.3823 34.1389 70.973C32.3957 62.0194 28.7331 52.3785 32.7712 44.1885Z"
        fill="#3F8AE0" />
    <path fill-rule="evenodd" clip-rule="evenodd"
        d="M76.0001 55.0015C76.7613 55.0015 77.4565 55.4336 77.7935 56.1162L83.5086 67.6944L96.2893 69.5625C97.0424 69.6726 97.6678 70.2006 97.9025 70.9246C98.1373 71.6486 97.9408 72.4431 97.3955 72.9742L88.1491 81.9802L90.3313 94.7034C90.46 95.4538 90.1515 96.2121 89.5355 96.6596C88.9196 97.107 88.103 97.166 87.4292 96.8116L76.0001 90.8012L64.571 96.8116C63.8971 97.166 63.0805 97.107 62.4646 96.6596C61.8486 96.2121 61.5401 95.4538 61.6688 94.7034L63.851 81.9802L54.6046 72.9742C54.0594 72.4431 53.8628 71.6486 54.0976 70.9246C54.3323 70.2006 54.9577 69.6726 55.7108 69.5625L68.4915 67.6944L74.2066 56.1162C74.5436 55.4336 75.2388 55.0015 76.0001 55.0015ZM76.0001 61.52L71.6135 70.4067C71.3224 70.9964 70.76 71.4053 70.1093 71.5004L60.2969 72.9347L67.3955 79.8487C67.8673 80.3082 68.0826 80.9705 67.9713 81.6196L66.2964 91.3848L75.0692 86.7713C75.6519 86.4648 76.3482 86.4648 76.931 86.7713L85.7037 91.3848L84.0288 81.6196C83.9175 80.9705 84.1328 80.3082 84.6046 79.8487L91.7032 72.9347L81.8908 71.5004C81.2401 71.4053 80.6777 70.9964 80.3866 70.4067L76.0001 61.52Z"
        fill="#3F8AE0" />
</svg>
