<svg width="16" height="21" viewBox="0 0 16 21" fill="none" xmlns="http://www.w3.org/2000/svg">
<path d="M15.7143 8.29854C15.7143 4.03139 12.2609 0.571533 8.00005 0.571533C3.73921 0.571533 0.285767 4.03139 0.285767 8.29854C0.285767 11.3394 2.15363 15.0099 5.84036 19.3689C6.84916 20.5617 8.6339 20.7108 9.82668 19.702C9.94677 19.6004 10.0582 19.489 10.1597 19.3689C13.8465 15.0099 15.7143 11.3394 15.7143 8.29854ZM8.71963 18.3931C8.24975 18.7905 7.54667 18.7317 7.14926 18.2618C3.70012 14.1838 2.00005 10.843 2.00005 8.29854C2.00005 4.97745 4.6867 2.28582 8.00005 2.28582C11.3134 2.28582 14.0001 4.97745 14.0001 8.29854C14.0001 10.843 12.3 14.1838 8.85084 18.2618C8.81083 18.3092 8.76694 18.353 8.71963 18.3931ZM4.57148 8.28582C4.57148 6.39276 6.10699 4.85725 8.00005 4.85725C9.89311 4.85725 11.4286 6.39276 11.4286 8.28582C11.4286 10.1789 9.89311 11.7144 8.00005 11.7144C6.10699 11.7144 4.57148 10.1789 4.57148 8.28582ZM6.28577 8.28582C6.28577 9.2321 7.05377 10.0001 8.00005 10.0001C8.94634 10.0001 9.71434 9.2321 9.71434 8.28582C9.71434 7.33953 8.94634 6.57153 8.00005 6.57153C7.05377 6.57153 6.28577 7.33953 6.28577 8.28582Z" fill="#3F8AE0"/>
</svg>
