<svg width="22" height="22" viewBox="0 0 22 22" fill="none" xmlns="http://www.w3.org/2000/svg">
<path d="M10.9999 0.714355C11.4733 0.714355 11.8571 1.09811 11.8571 1.5715L11.858 2.47106C15.9071 2.87352 19.127 6.09369 19.529 10.1428L20.4285 10.1429C20.9019 10.1429 21.2857 10.5267 21.2857 11.0001C21.2857 11.4735 20.9019 11.8572 20.4285 11.8572L19.529 11.8582C19.1265 15.9069 15.9068 19.1266 11.858 19.5291L11.8571 20.4286C11.8571 20.902 11.4733 21.2858 10.9999 21.2858C10.5266 21.2858 10.1428 20.902 10.1428 20.4286L10.1427 19.5292C6.09357 19.1271 2.8734 15.9072 2.47093 11.8582L1.57138 11.8572C1.09799 11.8572 0.714233 11.4735 0.714233 11.0001C0.714233 10.5267 1.09799 10.1429 1.57138 10.1429L2.47085 10.1428C2.87294 6.09341 6.09329 2.87306 10.1427 2.47097L10.1428 1.5715C10.1428 1.09811 10.5266 0.714355 10.9999 0.714355ZM11.8579 4.19608L11.8571 5.00007C11.8571 5.47346 11.4733 5.85721 10.9999 5.85721C10.5266 5.85721 10.1428 5.47346 10.1428 5.00007L10.1428 4.19597C7.04105 4.58274 4.58262 7.04118 4.19585 10.143L4.99995 10.1429C5.47333 10.1429 5.85709 10.5267 5.85709 11.0001C5.85709 11.4735 5.47333 11.8572 4.99995 11.8572L4.19596 11.858C4.58307 14.9594 7.04134 17.4174 10.1428 17.8042L10.1428 17.0001C10.1428 16.5267 10.5266 16.1429 10.9999 16.1429C11.4733 16.1429 11.8571 16.5267 11.8571 17.0001L11.8579 17.8041C14.959 17.417 17.4169 14.9591 17.8039 11.858L16.9999 11.8572C16.5266 11.8572 16.1428 11.4735 16.1428 11.0001C16.1428 10.5267 16.5266 10.1429 16.9999 10.1429L17.804 10.143C17.4173 7.04146 14.9593 4.5832 11.8579 4.19608ZM10.9999 9.28578C11.9467 9.28578 12.7142 10.0533 12.7142 11.0001C12.7142 11.9468 11.9467 12.7144 10.9999 12.7144C10.0532 12.7144 9.28566 11.9468 9.28566 11.0001C9.28566 10.0533 10.0532 9.28578 10.9999 9.28578Z" fill="#3F8AE0"/>
</svg>
