<svg width="153" height="154" viewBox="0 0 153 154" fill="none" xmlns="http://www.w3.org/2000/svg">
    <path opacity="0.2" fill-rule="evenodd" clip-rule="evenodd"
        d="M80.6167 22.6295C89.8325 21.5569 97.6111 28.6719 105.892 32.8475C115.195 37.5385 130.354 38.3646 132.142 48.6106C134.116 59.9228 116.986 65.8518 113.566 76.8155C110.988 85.0795 117.874 93.8825 115.43 102.187C112.232 113.049 108.1 125.71 97.7838 130.424C87.5086 135.119 75.4224 129.54 64.9751 125.24C55.3191 121.265 47.7902 114.229 40.4428 106.822C32.601 98.9154 19.6153 91.7369 20.7726 80.6737C22.0089 68.856 37.7849 65.0392 45.7387 56.1961C50.7858 50.5848 53.4279 43.5551 58.8667 38.3208C65.4391 31.9955 71.5466 23.6852 80.6167 22.6295Z"
        stroke="#3F8AE0" />
    <path opacity="0.08" fill-rule="evenodd" clip-rule="evenodd"
        d="M32.7712 44.1885C36.8742 35.867 47.0726 33.198 55.0753 28.5112C64.0657 23.2458 72.9898 10.9648 82.565 15.0262C93.1365 19.5102 88.8145 37.1148 96.1645 45.9395C101.705 52.5913 112.836 51.5881 118.482 58.1499C125.868 66.7332 134.257 77.0768 132.614 88.2996C130.977 99.4775 119.73 106.598 110.447 113.036C101.866 118.987 91.8701 121.49 81.66 123.638C70.7628 125.93 57.684 132.937 49.0219 125.959C39.7691 118.504 45.1295 103.184 42.022 91.7029C40.0502 84.4178 35.5815 78.3823 34.1389 70.973C32.3957 62.0194 28.7331 52.3785 32.7712 44.1885Z"
        fill="#3F8AE0" />
    <path
        d="M76 56.4285C87.3613 56.4285 96.5714 65.6386 96.5714 76.9999C96.5714 88.3612 87.3613 97.5713 76 97.5713C64.6387 97.5713 55.4286 88.3612 55.4286 76.9999C55.4286 65.6386 64.6387 56.4285 76 56.4285ZM76 59.857C66.5323 59.857 58.8572 67.5322 58.8572 76.9999C58.8572 86.4676 66.5323 94.1427 76 94.1427C85.4678 94.1427 93.1429 86.4676 93.1429 76.9999C93.1429 67.5322 85.4678 59.857 76 59.857ZM83.3543 70.6399C84.0238 69.9704 85.1191 69.9704 85.7886 70.6399C86.4581 71.3094 86.4581 72.4047 85.7886 73.0742L73.7836 85.0692C73.1142 85.7387 72.0287 85.7387 71.3593 85.0692L65.3593 79.0692C64.6898 78.3997 64.6898 77.3143 65.3593 76.6449C66.0287 75.9754 67.1142 75.9754 67.7836 76.6449L72.5714 81.4327L83.3543 70.6399Z"
        fill="#3F8AE0" />
</svg>
