<svg width="22" height="22" viewBox="0 0 22 22" fill="none" xmlns="http://www.w3.org/2000/svg">
    <path
        d="M16.4959 2.30392L16.6007 2.37127C16.6304 2.39062 16.6601 2.41012 16.6896 2.42977L16.601 2.37136C16.6713 2.41707 16.7409 2.46361 16.81 2.51098L16.6896 2.42977C16.7647 2.4797 16.839 2.53058 16.9126 2.5824L16.81 2.51098C16.8817 2.56012 16.9527 2.61014 17.023 2.66103L17.0229 2.66108C17.1295 2.73811 17.2345 2.81718 17.3379 2.89818C17.4645 2.99741 17.5888 3.09962 17.7107 3.20463C17.9114 3.37747 18.1054 3.55815 18.2923 3.74601L18.2154 3.66952C18.2709 3.72417 18.3258 3.77945 18.3801 3.83534L18.2923 3.74601C18.3599 3.81395 18.4265 3.88282 18.4922 3.95262L18.3801 3.83534C18.4428 3.89991 18.5046 3.96531 18.5656 4.03151L18.4922 3.95262C18.548 4.0119 18.6031 4.07184 18.6574 4.13244L18.5656 4.03151C18.6254 4.09638 18.6844 4.16202 18.7425 4.22842L18.6574 4.13244C18.7156 4.19722 18.7729 4.26274 18.8294 4.32898L18.7425 4.22842C18.8008 4.29506 18.8583 4.36246 18.9149 4.4306L18.8294 4.32898C18.887 4.39652 18.9438 4.46482 18.9996 4.53385L18.9994 4.53365C19.2392 4.82994 19.4628 5.13959 19.6688 5.46148L19.5941 5.3464C19.6522 5.43457 19.709 5.52368 19.7644 5.61372L19.6688 5.46148C19.7134 5.53115 19.7572 5.60139 19.8002 5.67219L19.7644 5.61372C19.8013 5.67361 19.8376 5.73391 19.8733 5.79461L19.8002 5.67219C19.8494 5.75335 19.8976 5.83524 19.9446 5.91785L19.9447 5.91803C20.0169 6.04478 20.0865 6.17341 20.1535 6.30364C20.1782 6.35172 20.2024 6.39969 20.2262 6.44788C20.2907 6.5784 20.3526 6.71057 20.4117 6.84423C20.6083 7.28863 20.7744 7.75009 20.9072 8.22544L20.9615 8.42772L21.0357 8.73547C21.0443 8.77368 21.0527 8.81197 21.0608 8.85035L21.1184 9.14182L21.1708 9.45712C21.1893 9.57997 21.2056 9.70353 21.2197 9.82776L21.1887 9.58073C21.2037 9.68945 21.217 9.79871 21.2286 9.90849L21.2285 9.90839C21.2549 10.1585 21.2723 10.4111 21.2805 10.6661L21.2805 10.6657L21.2858 10.9999L21.2813 11.3059C21.2798 11.3573 21.2779 11.4086 21.2757 11.4598C21.2653 11.6969 21.2468 11.932 21.2206 12.1648L21.2282 12.0949C21.2164 12.2065 21.2028 12.3175 21.1875 12.4279L21.2206 12.1648C21.2074 12.2816 21.1922 12.3979 21.1752 12.5136L21.1752 12.5137C21.1383 12.764 21.0923 13.0114 21.0377 13.2556L21.0376 13.2559L20.9618 13.5713L20.9072 13.7744C20.751 14.3334 20.5488 14.873 20.3049 15.3892C20.1793 15.655 20.0424 15.915 19.895 16.1682L19.9432 16.0844C19.9028 16.1555 19.8615 16.226 19.8193 16.296L19.895 16.1682C19.8483 16.2484 19.8005 16.328 19.7517 16.4068L19.8193 16.296C19.7735 16.3721 19.7268 16.4476 19.6791 16.5224L19.7517 16.4068C19.7008 16.489 19.6488 16.5704 19.5957 16.651L19.6791 16.5224C19.6463 16.5738 19.6131 16.6249 19.5794 16.6756L19.5957 16.651C19.5572 16.7094 19.5182 16.7674 19.4785 16.825L19.5794 16.6756C19.5095 16.7811 19.4377 16.8852 19.3641 16.9879L19.4785 16.825C19.4272 16.8995 19.375 16.9734 19.3218 17.0464L19.3217 17.0466C19.0971 17.3551 18.8557 17.6508 18.5989 17.9321L18.6529 17.8725C18.5926 17.9396 18.5315 18.0058 18.4695 18.0713L18.5989 17.9321C18.5343 18.0029 18.4687 18.0727 18.4022 18.1417L18.4695 18.0713C18.4144 18.1294 18.3587 18.1869 18.3023 18.2438L18.4022 18.1417C18.3399 18.2063 18.2767 18.27 18.2127 18.333L18.3023 18.2438C18.2596 18.2868 18.2166 18.3294 18.1732 18.3717L18.1735 18.3714C18.0718 18.4703 17.9685 18.5669 17.8632 18.6613C17.6355 18.8654 17.3986 19.0595 17.1533 19.2429L17.2182 19.194C17.1442 19.2502 17.0695 19.3054 16.994 19.3597L17.1533 19.2429C17.0878 19.2918 17.0218 19.34 16.9552 19.3874L16.994 19.3597C16.9284 19.4068 16.8622 19.4532 16.7954 19.4988L16.9552 19.3874C16.8693 19.4485 16.7825 19.5083 16.6947 19.5667L16.7954 19.4988C16.74 19.5366 16.6842 19.574 16.628 19.6108L16.6947 19.5667C16.6249 19.6132 16.5545 19.6589 16.4836 19.7037L16.4837 19.7036C16.1583 19.909 15.8208 20.0966 15.4722 20.2652L15.5811 20.2117C15.4971 20.2536 15.4124 20.2944 15.327 20.334L15.4722 20.2652C15.3987 20.3007 15.3247 20.3354 15.2501 20.3693L15.327 20.334C15.2487 20.3704 15.1698 20.4058 15.0904 20.4402L15.2501 20.3693C15.1607 20.4099 15.0705 20.4494 14.9797 20.4875L15.0904 20.4402C15.0004 20.4793 14.9097 20.5171 14.8184 20.5536L14.9797 20.4875C14.909 20.5172 14.8379 20.5461 14.7664 20.5742L14.8184 20.5536C14.7375 20.586 14.6561 20.6174 14.5741 20.6477L14.7664 20.5742C14.6737 20.6107 14.5804 20.6459 14.4865 20.6797L14.5741 20.6477C14.4653 20.688 14.3557 20.7266 14.2452 20.7633L14.2449 20.7634C14.0788 20.8186 13.9105 20.8697 13.7404 20.9166L13.8483 20.8862C13.7719 20.9082 13.695 20.9293 13.6179 20.9496L13.7404 20.9166C13.6517 20.941 13.5625 20.9643 13.4729 20.9865L13.6179 20.9496C13.5262 20.9736 13.434 20.9964 13.3413 21.018L13.4729 20.9865C13.393 21.0062 13.3127 21.025 13.232 21.0428L13.3413 21.018C13.256 21.0379 13.1703 21.0567 13.0841 21.0744L13.232 21.0428C13.1328 21.0648 13.0329 21.0853 12.9326 21.1044L13.0841 21.0744C12.9997 21.0918 12.915 21.1081 12.8298 21.1234L12.9326 21.1044C12.8539 21.1194 12.7748 21.1334 12.6954 21.1466L12.6956 21.1466C12.5924 21.1637 12.489 21.1792 12.385 21.1932L12.2826 21.2065L12.0358 21.2342C11.6952 21.2682 11.3496 21.2857 11.0001 21.2857C10.376 21.2857 9.76482 21.2301 9.17135 21.1236L9.29456 21.1455C9.20038 21.1298 9.10664 21.1128 9.01334 21.0945L9.17135 21.1236C9.09623 21.1101 9.02139 21.0958 8.94685 21.0807L8.94665 21.0812C8.77162 21.0452 8.598 21.0053 8.42612 20.961L8.48811 20.9772C8.40808 20.9571 8.32843 20.9361 8.24916 20.9141L8.42612 20.961C8.33878 20.9385 8.25189 20.9148 8.16546 20.8901L8.16584 20.8907C7.94506 20.8271 7.72768 20.7568 7.51359 20.6797L7.75512 20.7637C7.62539 20.7206 7.4968 20.675 7.36941 20.6269L7.51359 20.6797C7.43206 20.6503 7.351 20.62 7.27044 20.5886L7.36941 20.6269C7.27323 20.5906 7.17773 20.5529 7.08295 20.5138L7.27044 20.5886C7.19008 20.5573 7.11022 20.5251 7.03086 20.4919L7.08295 20.5138C7.01514 20.4858 6.9477 20.4572 6.88063 20.4278L7.03086 20.4919C6.9488 20.4575 6.86728 20.4221 6.78632 20.3857L6.88063 20.4278C6.79789 20.3916 6.71571 20.3543 6.63411 20.316L6.78632 20.3857C6.70667 20.3499 6.62755 20.3131 6.54899 20.2753L6.63411 20.316C6.56194 20.2821 6.49024 20.2474 6.419 20.2119L6.41902 20.2117C6.29422 20.1497 6.17088 20.0851 6.04904 20.018C5.9958 19.9886 5.94264 19.9587 5.88977 19.9284C5.71378 19.8276 5.54124 19.7217 5.37217 19.6109L5.5164 19.7036C5.44546 19.6588 5.37511 19.6131 5.30535 19.5667L5.37217 19.6109C5.3117 19.5713 5.25168 19.5311 5.19212 19.4903L5.30535 19.5667C5.22885 19.5157 5.15308 19.4638 5.07804 19.4108L5.19212 19.4903C5.11652 19.4385 5.04164 19.3857 4.96752 19.3319L5.07804 19.4108C5.00228 19.3574 4.92726 19.303 4.85302 19.2475L4.96752 19.3319C4.90509 19.2866 4.84318 19.2406 4.78182 19.194L4.78193 19.194C4.55992 19.0253 4.34507 18.8478 4.1378 18.6621C4.01846 18.555 3.9016 18.4453 3.78735 18.3329L3.82662 18.3714C3.7834 18.3293 3.74056 18.2869 3.69808 18.2441L3.78735 18.3329C3.72334 18.27 3.66016 18.2062 3.59781 18.1416L3.69808 18.2441C3.6416 18.1871 3.58577 18.1295 3.53062 18.0713L3.59781 18.1416C3.53146 18.0728 3.46607 18.0031 3.40164 17.9326L3.53062 18.0713C3.46855 18.0058 3.40732 17.9394 3.34697 17.8722L3.34726 17.8725C3.09429 17.591 2.85687 17.2958 2.63604 16.9879L2.67847 17.0466C2.62529 16.9735 2.57305 16.8997 2.52177 16.8252L2.63604 16.9879C2.56249 16.8853 2.49078 16.7814 2.42096 16.676L2.52177 16.8252C2.48207 16.7676 2.44293 16.7095 2.40438 16.6509L2.42096 16.676C2.38723 16.6251 2.35393 16.5739 2.32108 16.5224L2.40438 16.6509C2.35127 16.5703 2.29926 16.4889 2.24837 16.4067L2.32108 16.5224C2.27341 16.4477 2.22668 16.3722 2.1809 16.2962L2.24837 16.4067C2.19966 16.328 2.15198 16.2486 2.10534 16.1685L2.1809 16.2962C2.13866 16.226 2.09723 16.1552 2.05663 16.084L2.0569 16.0844C1.907 15.8213 1.76861 15.5515 1.64211 15.275L1.69522 15.3892C1.65716 15.3087 1.62013 15.2276 1.58412 15.1459L1.58387 15.1453C1.38934 14.7042 1.22473 14.2462 1.0929 13.7744L1.03838 13.5713L0.962518 13.2559C0.955241 13.2233 0.948118 13.1908 0.94115 13.1581C0.889796 12.9176 0.846893 12.6742 0.812702 12.4281L0.824958 12.5137C0.807879 12.3979 0.79273 12.2814 0.779544 12.1644L0.812702 12.4281C0.797367 12.3177 0.783784 12.2067 0.771983 12.0952L0.771953 12.0949C0.745147 11.8417 0.727522 11.5854 0.719448 11.3267L0.719466 11.3273L0.714355 10.9999L0.719683 10.6657C0.721021 10.6238 0.722611 10.5819 0.72445 10.5401C0.734997 10.3004 0.753739 10.0629 0.780405 9.82785L0.77159 9.90839C0.783171 9.7986 0.796479 9.68933 0.811486 9.5806L0.811468 9.58073L0.829295 9.45712L0.881756 9.14182C0.906624 9.00553 0.934178 8.87017 0.964361 8.7358L0.964436 8.73547L1.03861 8.42772L1.0929 8.22544C1.22575 7.75009 1.39189 7.28863 1.58864 6.84374L1.57061 6.88475C1.63507 6.73727 1.70289 6.59158 1.77396 6.4478C1.79774 6.39969 1.82193 6.35172 1.84648 6.30396C1.93542 6.13096 2.02894 5.96111 2.12703 5.79427L2.05543 5.91803C2.10253 5.83531 2.15074 5.75331 2.20004 5.67204L2.12703 5.79427C2.16261 5.73377 2.19879 5.67365 2.23556 5.61394L2.20004 5.67204C2.24305 5.60117 2.28688 5.53086 2.33153 5.46112L2.23556 5.61394C2.29103 5.52386 2.34786 5.4347 2.40601 5.34649L2.40607 5.3464C2.61565 5.02845 2.84246 4.72274 3.08514 4.43068L3.00279 4.53106C3.05793 4.46298 3.11392 4.39562 3.17074 4.32899L3.08514 4.43068C3.1418 4.36249 3.19932 4.29504 3.25769 4.22836L3.17074 4.32899C3.22721 4.26278 3.28451 4.19729 3.34262 4.13254L3.25769 4.22836C3.31586 4.16191 3.37487 4.09621 3.4347 4.03128L3.34262 4.13254C3.39699 4.07195 3.45208 4.01201 3.50786 3.95273L3.4347 4.03128C3.49565 3.96515 3.55746 3.89982 3.6201 3.8353L3.50786 3.95273C3.57364 3.88281 3.6404 3.81382 3.7081 3.74577L3.6201 3.8353C3.67425 3.77954 3.72902 3.72439 3.78441 3.66986L3.78476 3.66952C3.94784 3.50896 4.11663 3.35349 4.29048 3.20373C4.4119 3.09914 4.53598 2.99718 4.66244 2.89812C4.79852 2.79152 4.93753 2.68814 5.07918 2.58826L4.97722 2.66108C5.06489 2.59765 5.1536 2.53557 5.24332 2.47487L5.07918 2.58826C5.1445 2.54219 5.21038 2.49687 5.27681 2.4523L5.24332 2.47487C5.31053 2.4294 5.3783 2.3847 5.44663 2.34079L5.27681 2.4523C5.35136 2.40229 5.4266 2.35322 5.50251 2.30512L5.50259 2.30508C5.62978 2.22449 5.75894 2.14656 5.88992 2.07144C5.94264 2.0412 5.9958 2.01133 6.04926 1.98192C6.20043 1.89876 6.3538 1.81934 6.50937 1.74372L6.43691 1.77929C6.50947 1.74332 6.58251 1.70817 6.65603 1.67387L6.50937 1.74372C6.59614 1.70154 6.6836 1.66055 6.77172 1.62076L6.65603 1.67387C6.73716 1.63601 6.81887 1.59919 6.90113 1.5634L6.77172 1.62076C6.85296 1.58408 6.93476 1.54842 7.01711 1.5138L7.01707 1.51382C7.15537 1.45569 7.29516 1.4005 7.43641 1.34833C7.54171 1.30943 7.64795 1.27217 7.75497 1.23662L7.62313 1.28142C7.69499 1.25645 7.76721 1.23226 7.83979 1.20885L7.75497 1.23662C7.83637 1.20957 7.91823 1.18352 8.00052 1.15847L7.83979 1.20885C7.93706 1.17748 8.03497 1.14751 8.13349 1.11898L8.00052 1.15847C8.08702 1.13214 8.174 1.10692 8.26144 1.08283L8.13349 1.11898C8.21971 1.09401 8.30639 1.07014 8.39353 1.04738L8.26144 1.08283C8.34957 1.05854 8.43817 1.03541 8.52722 1.01343L8.39353 1.04738C8.48004 1.02479 8.567 1.00329 8.65438 0.982908L8.52722 1.01343C8.6114 0.992653 8.69599 0.972914 8.78097 0.954227L8.65438 0.982908C8.73843 0.963303 8.82287 0.944729 8.9077 0.9272L8.78097 0.954227C8.87798 0.932896 8.97549 0.912933 9.0735 0.894362L8.9077 0.9272C8.99485 0.90919 9.08241 0.892282 9.17035 0.876493L9.0735 0.894362C9.15028 0.879813 9.22737 0.866118 9.30474 0.853286L9.30454 0.853319C9.40769 0.836213 9.51115 0.820669 9.61511 0.806677L9.71754 0.793415L9.96438 0.765729C10.305 0.731673 10.6505 0.714233 11.0001 0.714233C11.6242 0.714233 12.2353 0.76982 12.8288 0.876314L12.7055 0.854373C12.7997 0.870103 12.8934 0.887112 12.9867 0.905381L12.8288 0.876314C12.9039 0.889793 12.9787 0.904088 13.0533 0.919189L13.0534 0.918672C13.2338 0.955755 13.4126 0.997046 13.5895 1.04293L13.5088 1.02187C13.5863 1.04132 13.6635 1.06165 13.7404 1.08285L13.5895 1.04293C13.6762 1.06543 13.7626 1.08902 13.8484 1.11371L13.8483 1.11324C14.0267 1.165 14.2031 1.22098 14.3773 1.28152L14.3771 1.28108C14.4996 1.324 14.6208 1.36873 14.7409 1.41565L14.6008 1.36178C14.6944 1.39678 14.7874 1.4331 14.8797 1.47072L14.7409 1.41565C14.8189 1.44613 14.8965 1.47753 14.9736 1.50984L14.8797 1.47072C14.9532 1.50069 15.0263 1.53148 15.0989 1.56309L14.9736 1.50984C15.0591 1.5457 15.1441 1.58268 15.2284 1.62077L15.0989 1.56309C15.1813 1.59892 15.2631 1.63579 15.3443 1.6737L15.2284 1.62077C15.3165 1.66053 15.4039 1.70149 15.4906 1.74363L15.3443 1.6737C15.4178 1.70803 15.4909 1.7432 15.5635 1.77921L15.5632 1.77929C15.6942 1.84403 15.8233 1.91155 15.9508 1.98169C16.1361 2.08381 16.3178 2.19124 16.4958 2.30398L16.4959 2.30392ZM13.0701 15.1136L8.93026 15.1143C9.37294 16.8665 10.0891 18.4302 10.9997 19.7117C11.911 18.4304 12.6273 16.8663 13.0701 15.1136ZM3.28383 15.1142C4.46063 17.3167 6.55284 18.9563 9.05227 19.525C8.29949 18.2208 7.71575 16.7308 7.34482 15.1144L3.28383 15.1142ZM18.7163 15.1142L14.6555 15.1135C14.2847 16.7299 13.701 18.22 12.9487 19.5242C15.4473 18.9564 17.5395 17.3167 18.7163 15.1142ZM7.06187 8.42803L2.6416 8.42813C2.39171 9.24125 2.25721 10.1049 2.25721 10.9999C2.25721 11.8947 2.39162 12.758 2.64134 13.5709L7.06183 13.5716C6.94624 12.7382 6.88578 11.8786 6.88578 10.9999C6.88578 10.1212 6.94625 9.26149 7.06187 8.42803ZM13.3799 8.42751H8.62021C8.49485 9.25547 8.42864 10.1157 8.42864 10.9999C8.42864 11.8838 8.49479 12.7437 8.62005 13.5714L13.3801 13.5715C13.5053 12.7438 13.5715 11.8838 13.5715 10.9999C13.5715 10.1157 13.5053 9.25547 13.3799 8.42751ZM19.3585 8.42813L14.9383 8.42803C15.0539 9.26149 15.1144 10.1212 15.1144 10.9999C15.1144 11.8784 15.0539 12.7378 14.9384 13.571L19.3588 13.5709C19.6085 12.758 19.7429 11.8947 19.7429 10.9999C19.7429 10.1049 19.6084 9.24125 19.3585 8.42813ZM9.05139 2.47574L8.89906 2.51118C6.46776 3.11093 4.43705 4.72793 3.28429 6.8848L7.3448 6.88557C7.71566 5.26948 8.29925 3.77965 9.05139 2.47574ZM11.0001 2.28773L10.9623 2.34116C10.0695 3.61261 9.36691 5.15737 8.9303 6.88541H13.0698C12.6271 5.13309 11.9108 3.56924 11.0001 2.28773ZM12.9479 2.47486L13.0033 2.57123C13.7292 3.85222 14.2935 5.30879 14.6553 6.88557L18.7158 6.8848C17.539 4.68277 15.447 3.04347 12.9479 2.47486Z"
        fill="#3F8AE0" />
</svg>
