<svg width="55" height="53" viewBox="0 0 55 53" fill="none" xmlns="http://www.w3.org/2000/svg">
    <path
        d="M14.4249 51.5984C9.32485 48.6984 8.92485 41.6984 11.9249 36.5984L12.1249 35.3984H35.0249L28.7249 46.2984C25.7249 51.3984 19.5249 54.4984 14.4249 51.5984Z"
        fill="#5065A7" />
    <path
        d="M43.5248 1.20183C48.6248 4.10183 49.0248 11.1018 46.0248 16.2018L45.4248 17.4018H22.9248L29.2248 6.50183C32.2248 1.40183 38.5248 -1.69817 43.5248 1.20183Z"
        fill="#5576AA" />
    <path
        d="M45.3252 17.3984L28.7252 46.2984C26.6252 49.9984 22.7252 52.6984 18.8252 52.6984L39.2252 52.7984C42.3252 52.7984 45.2252 51.1984 46.7252 48.4984L54.8252 34.4984L45.3252 17.3984Z"
        fill="#9FD0DB" />
    <path
        d="M1.125 30.7C-0.375 28 -0.375 24.7 1.125 22L11.325 4.3C12.925 1.6 15.725 0 18.825 0L39.225 0.1C35.325 0.2 31.425 2.8 29.325 6.5L11.925 36.6C9.825 40.3 9.425 45 11.325 48.4L1.125 30.7Z"
        fill="#6EABE1" />
</svg>
