<svg width="72" height="68" viewBox="0 0 72 68" fill="none" xmlns="http://www.w3.org/2000/svg">
    <path fill-rule="evenodd" clip-rule="evenodd"
        d="M19.0263 66.4624C12.3606 62.6687 11.8344 53.716 15.7227 47.1201L16.0443 45.5537H46.0397L37.7222 59.6509C33.8486 66.2469 25.6919 70.2562 19.0263 66.4624Z"
        fill="#1853A2" />
    <path fill-rule="evenodd" clip-rule="evenodd"
        d="M57.031 1.55154C63.6966 5.34529 64.2228 14.298 60.3345 20.8939L59.5452 22.4603H30.0176L38.335 8.36304C42.2087 1.7671 50.3653 -2.2422 57.031 1.55154Z"
        fill="#1853A2" />
    <path fill-rule="evenodd" clip-rule="evenodd"
        d="M59.5468 22.4463L37.7373 59.6509C34.9161 64.4362 29.8584 67.8563 24.7422 67.9281L51.4925 68C55.5562 68 59.3129 65.8732 61.3594 62.4243L72.001 44.3753L59.5468 22.4463Z"
        fill="#3F8AE0" />
    <path fill-rule="evenodd" clip-rule="evenodd"
        d="M1.5166 39.5469C-0.515252 36.0837 -0.500634 31.8157 1.53122 28.3525L14.9502 5.57566C16.9821 2.1268 20.7534 0 24.8171 0L51.5674 0.0718513C46.4512 0.143703 41.3935 3.56382 38.5723 8.34912L15.7249 47.1201C12.9037 51.9053 12.4067 57.9265 14.8917 62.3238L1.5166 39.5469Z"
        fill="#3F8AE0" />
</svg>
