<svg width="186" height="37" viewBox="0 0 186 37" fill="none" xmlns="http://www.w3.org/2000/svg">
    <path
        d="M9.95877 35.6221C6.43783 33.62 6.16168 28.7874 8.23282 25.2664L8.37089 24.438H24.1806L19.8312 31.9631C17.76 35.4841 13.4797 37.6242 9.95877 35.6221Z"
        fill="#5065A7" />
    <path
        d="M30.0487 0.827027C33.5696 2.82913 33.8458 7.66178 31.7747 11.1827L31.3604 12.0112H15.8269L20.1763 4.48604C22.2474 0.965103 26.5968 -1.17507 30.0487 0.827027Z"
        fill="#5576AA" />
    <path
        d="M31.2915 12.0098L19.8312 31.9617C18.3814 34.5161 15.6889 36.3801 12.9965 36.3801L27.0802 36.4492C29.2204 36.4492 31.2225 35.3446 32.258 33.4806L37.8501 23.8152L31.2915 12.0098Z"
        fill="#9FD0DB" />
    <path
        d="M0.776676 21.1946C-0.258892 19.3306 -0.258892 17.0524 0.776676 15.1883L7.81854 2.96863C8.92315 1.10461 10.8562 0 12.9964 0L27.0801 0.0690379C24.3876 0.138076 21.6952 1.93306 20.2454 4.48746L8.23277 25.2679C6.78297 27.8223 6.50682 31.0671 7.81854 33.4143L0.776676 21.1946Z"
        fill="#6EABE1" />
    <path
        d="M76.0971 17.4008V19.0577C76.0971 22.0954 75.1305 24.5807 73.1284 26.5138C71.1263 28.4469 68.641 29.3444 65.5343 29.3444C62.2204 29.3444 59.4589 28.2397 57.3188 26.0996C55.1095 23.8904 54.074 21.2669 54.074 18.1602C54.074 15.0535 55.1786 12.4301 57.3188 10.2209C59.528 8.01164 62.1514 6.97607 65.3271 6.97607C69.3313 6.97607 72.8523 8.90913 74.6473 11.9468L71.0573 14.0179C70.0217 12.292 67.8125 11.0493 65.3271 11.0493C63.256 11.0493 61.5991 11.7397 60.2874 13.0514C58.9757 14.3631 58.3543 16.0891 58.3543 18.0912C58.3543 20.0933 59.0447 21.8192 60.3564 23.1309C61.7372 24.4427 63.4631 25.064 65.6723 25.064C68.9862 25.064 71.1263 23.5452 71.9548 20.9908H65.4652V17.2627H76.0971V17.4008Z"
        fill="#6EABE1" />
    <path
        d="M86.2456 29.3468C83.9674 29.3468 82.0343 28.5873 80.5155 26.9995C78.9967 25.4116 78.1682 23.4785 78.1682 21.2693C78.1682 19.0601 78.9276 17.1271 80.5155 15.5392C82.1034 13.9513 84.0364 13.1919 86.2456 13.1919C88.5239 13.1919 90.457 14.0203 91.9758 15.5392C93.4946 17.058 94.3231 18.9911 94.3231 21.2693C94.3231 23.5476 93.4946 25.4806 91.9758 26.9995C90.457 28.5183 88.5239 29.3468 86.2456 29.3468ZM86.2456 25.4806C87.4193 25.4806 88.4549 25.0664 89.2143 24.307C89.9737 23.5476 90.3879 22.512 90.3879 21.2693C90.3879 20.0266 89.9737 19.0601 89.2143 18.2317C88.3858 17.4032 87.4193 17.058 86.2456 17.058C85.072 17.058 84.0364 17.4722 83.277 18.2317C82.5176 19.0601 82.1034 20.0266 82.1034 21.2693C82.1034 22.512 82.5176 23.4785 83.277 24.307C84.0364 25.1355 85.072 25.4806 86.2456 25.4806Z"
        fill="#6EABE1" />
    <path
        d="M105.369 7.45166C107.44 7.45166 109.166 8.14204 110.547 9.5228C111.928 10.9036 112.687 12.6295 112.687 14.6316C112.687 16.6337 111.997 18.3596 110.547 19.7404C109.166 21.1212 107.371 21.8115 105.369 21.8115H101.572V28.8534H97.3607V7.45166H105.369ZM105.369 17.9454C107.164 17.9454 108.476 16.5647 108.476 14.7006C108.476 12.8366 107.164 11.4559 105.369 11.4559H101.572V17.9454H105.369Z"
        fill="#5065A7" />
    <path
        d="M127.945 14.8387C129.049 15.9433 129.601 17.5312 129.601 19.4643V28.8534H125.597V20.0166C125.597 17.9454 124.424 16.8408 122.56 16.8408C120.488 16.8408 119.177 18.0835 119.177 20.6379V28.9224H115.242V7.45166H119.177V15.322C120.143 13.8722 121.662 13.1818 123.733 13.1818C125.459 13.1818 126.84 13.7341 127.945 14.8387Z"
        fill="#5065A7" />
    <path
        d="M144.583 13.6061H148.518V28.9325H144.583V27.1376C143.409 28.6564 141.752 29.3468 139.612 29.3468C137.541 29.3468 135.815 28.5873 134.365 26.9995C132.915 25.4116 132.156 23.4785 132.156 21.2693C132.156 19.0601 132.915 17.1271 134.365 15.5392C135.815 13.9513 137.61 13.1919 139.612 13.1919C141.752 13.1919 143.409 13.9513 144.583 15.4011V13.6061ZM140.302 25.6187C141.545 25.6187 142.512 25.2045 143.34 24.4451C144.168 23.6166 144.583 22.581 144.583 21.3384C144.583 20.0957 144.168 19.0601 143.34 18.2317C142.512 17.4032 141.545 16.989 140.302 16.989C139.06 16.989 138.093 17.4032 137.265 18.2317C136.436 19.0601 136.091 20.0957 136.091 21.3384C136.091 22.581 136.505 23.6166 137.265 24.4451C138.093 25.2045 139.129 25.6187 140.302 25.6187Z"
        fill="#5065A7" />
    <path
        d="M156.112 16.2264C156.871 14.2934 158.666 13.2578 160.738 13.2578V17.6762C159.564 17.5382 158.459 17.7453 157.493 18.4357C156.526 19.057 156.112 20.0926 156.112 21.6114V28.9294H152.177V13.603H156.112V16.2264Z"
        fill="#5065A7" />
    <path
        d="M185.798 19.4743V28.9325H181.863V19.7505C181.863 17.8865 180.897 16.8509 179.309 16.8509C177.514 16.8509 176.478 18.0936 176.478 20.3028V28.9325H172.543V19.7505C172.543 17.8865 171.577 16.8509 169.989 16.8509C168.263 16.8509 167.089 18.0936 167.089 20.3028V28.9325H163.154V13.6061H167.089V15.263C167.987 13.8823 169.436 13.1919 171.369 13.1919C173.233 13.1919 174.683 13.9513 175.512 15.4011C176.547 13.9513 178.066 13.1919 180.068 13.1919C183.52 13.1919 185.798 15.6773 185.798 19.4743Z"
        fill="#5065A7" />
</svg>
