<svg width="26" height="21" viewBox="0 0 26 21" fill="none" xmlns="http://www.w3.org/2000/svg">
    <path
        d="M22.7064 6.66186C24.1705 8.11441 25.0002 9.99771 25.0002 12C25.0002 13.2695 24.667 14.4958 24.04 15.5987C24.1411 16.2021 24.4325 17.118 24.9159 18.315L25.1743 18.9388L25.2312 19.1068L25.2563 19.205C25.3872 19.8531 25.0455 20.5097 24.4304 20.7705C24.2347 20.8535 24.0226 20.8908 23.8104 20.8797C21.9024 20.7794 20.3802 20.3142 19.2704 19.4561C18.238 19.8137 17.1331 20 16.0002 20C14.8456 20 13.7196 19.8066 12.6681 19.4344C12.1475 19.2502 11.8748 18.6787 12.0591 18.1581C12.2434 17.6374 12.8149 17.3648 13.3355 17.5491C14.1726 17.8454 15.073 18 16.0002 18C17.0866 18 18.1354 17.7876 19.0868 17.3854C19.4634 17.2262 19.899 17.3123 20.1867 17.6028C20.7364 18.1577 21.5583 18.5442 22.6684 18.7437L22.9519 18.7897C22.3782 17.3343 22.0635 16.2351 22.009 15.4466C21.9943 15.2341 22.0478 15.0225 22.1618 14.8426C22.7105 13.9762 23.0002 13.0067 23.0002 12C23.0002 10.5462 22.3933 9.16844 21.2978 8.08166C20.9058 7.69269 20.9033 7.05953 21.2922 6.66746C21.6812 6.27539 22.3144 6.27288 22.7064 6.66186ZM10 0C14.9431 0 19 3.54982 19 8C19 12.4502 14.9431 16 10 16C8.86701 16 7.76217 15.8137 6.72976 15.4561C5.61997 16.3142 4.09781 16.7794 2.18981 16.8797C1.97753 16.8908 1.7655 16.8535 1.5698 16.7705C0.954635 16.5097 0.613006 15.8531 0.743857 15.205L0.768916 15.1068L0.825845 14.9388L0.95947 14.6201C1.47478 13.3764 1.79807 12.4113 1.93092 11.756L1.96016 11.5987L1.80956 11.3204C1.27996 10.2911 0.999996 9.16373 0.999996 8C0.999996 3.54982 5.05693 0 10 0ZM10 2C6.10651 2 3 4.7182 3 8C3 9.0067 3.28965 9.97616 3.83837 10.8426C3.95232 11.0225 4.00584 11.2341 3.99116 11.4466C3.94056 12.1788 3.66563 13.1788 3.16723 14.4833L3.04825 14.7897L3.33178 14.7437C4.44188 14.5442 5.26381 14.1577 5.81344 13.6028C6.10116 13.3123 6.53675 13.2262 6.91334 13.3854C7.86471 13.7876 8.91355 14 10 14C13.8935 14 17 11.2818 17 8C17 4.7182 13.8935 2 10 2Z"
        fill="#3F8AE0" />
</svg>
