<svg width="20" height="14" viewBox="0 0 20 14" fill="none" xmlns="http://www.w3.org/2000/svg">
    <path
        d="M13.3333 1.33264C13.3333 0.964837 13.0327 0.666672 12.6701 0.666672H1.32981C0.963542 0.666672 0.666626 0.961779 0.666626 1.33264V2.0007C0.666626 2.36851 0.967243 2.66667 1.32981 2.66667H12.6701C13.0364 2.66667 13.3333 2.37156 13.3333 2.0007V1.33264ZM10.6666 5.33264C10.6666 4.96484 10.3673 4.66667 9.99497 4.66667H1.33828C0.967337 4.66667 0.666626 4.96178 0.666626 5.33264V6.0007C0.666626 6.36851 0.965906 6.66667 1.33828 6.66667H9.99497C10.3659 6.66667 10.6666 6.37157 10.6666 6.0007V5.33264ZM17.3333 4.66667V8.66667H19.3562C19.4269 8.66667 19.4947 8.69477 19.5447 8.74478C19.6489 8.84892 19.6489 9.01776 19.5447 9.1219L15.5219 13.1448C15.4177 13.2489 15.2489 13.2489 15.1447 13.1448L11.1219 9.1219C11.0718 9.07189 11.0437 9.00406 11.0437 8.93334C11.0437 8.78606 11.1631 8.66667 11.3104 8.66667H13.3333V4.66667H17.3333ZM7.99831 8.66667C8.36279 8.66667 8.66663 8.96484 8.66663 9.33264V10.0007C8.66663 10.3716 8.36741 10.6667 7.99831 10.6667H1.33494C0.970467 10.6667 0.666626 10.3685 0.666626 10.0007V9.33264C0.666626 8.96178 0.965841 8.66667 1.33494 8.66667H7.99831Z"
        fill="#3F8AE0" />
</svg>
