<svg width="153" height="154" viewBox="0 0 153 154" fill="none" xmlns="http://www.w3.org/2000/svg">
    <path opacity="0.3" fill-rule="evenodd" clip-rule="evenodd"
        d="M80.6167 22.6283C89.8325 21.5556 97.6111 28.6707 105.892 32.8463C115.195 37.5372 130.354 38.3634 132.142 48.6094C134.116 59.9216 116.986 65.8506 113.566 76.8143C110.988 85.0783 117.874 93.8813 115.43 102.185C112.232 113.048 108.1 125.709 97.7838 130.423C87.5086 135.117 75.4224 129.539 64.9751 125.239C55.3191 121.264 47.7902 114.228 40.4428 106.82C32.601 98.9141 19.6153 91.7357 20.7726 80.6725C22.0089 68.8548 37.7849 65.038 45.7387 56.1949C50.7858 50.5836 53.4279 43.5539 58.8667 38.3196C65.4391 31.9943 71.5466 23.684 80.6167 22.6283Z"
        stroke="#3F8AE0" />
    <path opacity="0.08" fill-rule="evenodd" clip-rule="evenodd"
        d="M32.7712 44.1888C36.8742 35.8673 47.0726 33.1982 55.0753 28.5114C64.0657 23.246 72.9898 10.965 82.565 15.0264C93.1365 19.5104 88.8145 37.115 96.1645 45.9398C101.705 52.5915 112.836 51.5884 118.482 58.1502C125.868 66.7335 134.257 77.0771 132.614 88.2999C130.977 99.4778 119.73 106.598 110.447 113.037C101.866 118.987 91.8701 121.49 81.66 123.638C70.7628 125.93 57.684 132.938 49.0219 125.959C39.7691 118.504 45.1295 103.184 42.022 91.7031C40.0502 84.4181 35.5815 78.3825 34.1389 70.9733C32.3957 62.0196 28.7331 52.3787 32.7712 44.1888Z"
        fill="#3F8AE0" />
    <path
        d="M80 77H68C67.4696 77 66.9609 77.2107 66.5858 77.5858C66.2107 77.9609 66 78.4696 66 79C66 79.5304 66.2107 80.0391 66.5858 80.4142C66.9609 80.7893 67.4696 81 68 81H80C80.5304 81 81.0391 80.7893 81.4142 80.4142C81.7893 80.0391 82 79.5304 82 79C82 78.4696 81.7893 77.9609 81.4142 77.5858C81.0391 77.2107 80.5304 77 80 77ZM90.82 91L93.42 88.42C93.7966 88.0434 94.0082 87.5326 94.0082 87C94.0082 86.4674 93.7966 85.9566 93.42 85.58C93.0434 85.2034 92.5326 84.9918 92 84.9918C91.4674 84.9918 90.9566 85.2034 90.58 85.58L88 88.18L85.42 85.58C85.0434 85.2034 84.5326 84.9918 84 84.9918C83.4674 84.9918 82.9566 85.2034 82.58 85.58C82.2034 85.9566 81.9918 86.4674 81.9918 87C81.9918 87.5326 82.2034 88.0434 82.58 88.42L85.18 91L82.58 93.58C82.3925 93.7659 82.2438 93.9871 82.1422 94.2308C82.0407 94.4746 81.9884 94.736 81.9884 95C81.9884 95.264 82.0407 95.5254 82.1422 95.7692C82.2438 96.0129 82.3925 96.2341 82.58 96.42C82.7659 96.6075 82.9871 96.7562 83.2308 96.8578C83.4746 96.9593 83.736 97.0116 84 97.0116C84.264 97.0116 84.5254 96.9593 84.7692 96.8578C85.0129 96.7562 85.2341 96.6075 85.42 96.42L88 93.82L90.58 96.42C90.7659 96.6075 90.9871 96.7562 91.2308 96.8578C91.4746 96.9593 91.736 97.0116 92 97.0116C92.264 97.0116 92.5254 96.9593 92.7692 96.8578C93.0129 96.7562 93.2341 96.6075 93.42 96.42C93.6075 96.2341 93.7562 96.0129 93.8578 95.7692C93.9593 95.5254 94.0116 95.264 94.0116 95C94.0116 94.736 93.9593 94.4746 93.8578 94.2308C93.7562 93.9871 93.6075 93.7659 93.42 93.58L90.82 91ZM76 93H64C63.4696 93 62.9609 92.7893 62.5858 92.4142C62.2107 92.0391 62 91.5304 62 91V63C62 62.4696 62.2107 61.9609 62.5858 61.5858C62.9609 61.2107 63.4696 61 64 61H74V67C74 68.5913 74.6321 70.1174 75.7574 71.2426C76.8826 72.3679 78.4087 73 80 73H86V79C86 79.5304 86.2107 80.0391 86.5858 80.4142C86.9609 80.7893 87.4696 81 88 81C88.5304 81 89.0391 80.7893 89.4142 80.4142C89.7893 80.0391 90 79.5304 90 79V71C90 71 90 71 90 70.88C89.9792 70.6963 89.9389 70.5153 89.88 70.34V70.16C89.7838 69.9544 89.6556 69.7653 89.5 69.6L77.5 57.6C77.3347 57.4444 77.1456 57.3162 76.94 57.22C76.8738 57.2084 76.8062 57.2084 76.74 57.22C76.5455 57.116 76.3365 57.0418 76.12 57H64C62.4087 57 60.8826 57.6321 59.7574 58.7574C58.6321 59.8826 58 61.4087 58 63V91C58 92.5913 58.6321 94.1174 59.7574 95.2426C60.8826 96.3679 62.4087 97 64 97H76C76.5304 97 77.0391 96.7893 77.4142 96.4142C77.7893 96.0391 78 95.5304 78 95C78 94.4696 77.7893 93.9609 77.4142 93.5858C77.0391 93.2107 76.5304 93 76 93ZM78 63.82L83.18 69H80C79.4696 69 78.9609 68.7893 78.5858 68.4142C78.2107 68.0391 78 67.5304 78 67V63.82ZM68 69C67.4696 69 66.9609 69.2107 66.5858 69.5858C66.2107 69.9609 66 70.4696 66 71C66 71.5304 66.2107 72.0391 66.5858 72.4142C66.9609 72.7893 67.4696 73 68 73H70C70.5304 73 71.0391 72.7893 71.4142 72.4142C71.7893 72.0391 72 71.5304 72 71C72 70.4696 71.7893 69.9609 71.4142 69.5858C71.0391 69.2107 70.5304 69 70 69H68ZM76 85H68C67.4696 85 66.9609 85.2107 66.5858 85.5858C66.2107 85.9609 66 86.4696 66 87C66 87.5304 66.2107 88.0391 66.5858 88.4142C66.9609 88.7893 67.4696 89 68 89H76C76.5304 89 77.0391 88.7893 77.4142 88.4142C77.7893 88.0391 78 87.5304 78 87C78 86.4696 77.7893 85.9609 77.4142 85.5858C77.0391 85.2107 76.5304 85 76 85Z"
        fill="#3F8AE0" />
</svg>
