<svg width="22" height="18" viewBox="0 0 22 18" fill="none" xmlns="http://www.w3.org/2000/svg">
    <path
        d="M15.7917 0.428711C17.7021 0.428711 18.3948 0.627623 19.0932 1.00114C19.7917 1.37465 20.3398 1.92277 20.7133 2.62118C21.0868 3.3196 21.2857 4.01235 21.2857 5.92275V12.0775C21.2857 13.9879 21.0868 14.6807 20.7133 15.3791C20.3398 16.0775 19.7917 16.6256 19.0932 16.9991C18.3948 17.3727 17.7021 17.5716 15.7917 17.5716H6.20833C4.29794 17.5716 3.60518 17.3727 2.90677 16.9991C2.20835 16.6256 1.66024 16.0775 1.28672 15.3791C0.913206 14.6807 0.714294 13.9879 0.714294 12.0775V5.92275C0.714294 4.01235 0.913206 3.3196 1.28672 2.62118C1.66024 1.92277 2.20835 1.37465 2.90677 1.00114C3.60518 0.627623 4.29794 0.428711 6.20833 0.428711H15.7917ZM19.5706 8.143H2.42772L2.42858 12.5609C2.42858 13.7071 2.54793 14.1228 2.77204 14.5418C2.99615 14.9608 3.32502 15.2897 3.74406 15.5138C4.13692 15.7239 4.5268 15.842 5.51847 15.8559L5.725 15.8573H16.275C17.4212 15.8573 17.8369 15.7379 18.256 15.5138C18.675 15.2897 19.0039 14.9608 19.228 14.5418C19.4381 14.1489 19.5561 13.7591 19.57 12.7674L19.5714 12.5609L19.5706 8.143ZM6.49606 10.7144C6.85002 10.7144 6.99326 10.7542 7.13294 10.8289C7.27262 10.9036 7.38225 11.0132 7.45695 11.1529C7.53165 11.2926 7.57144 11.4358 7.57144 11.7898V12.2105C7.57144 12.5644 7.53165 12.7077 7.45695 12.8474C7.38225 12.987 7.27262 13.0967 7.13294 13.1714C6.99326 13.2461 6.85002 13.2859 6.49606 13.2859H6.07538C5.72142 13.2859 5.57819 13.2461 5.4385 13.1714C5.29882 13.0967 5.1892 12.987 5.11449 12.8474C5.03979 12.7077 5.00001 12.5644 5.00001 12.2105V11.7898C5.00001 11.4358 5.03979 11.2926 5.11449 11.1529C5.1892 11.0132 5.29882 10.9036 5.4385 10.8289C5.57819 10.7542 5.72142 10.7144 6.07538 10.7144H6.49606ZM16.275 2.143H5.725C4.57876 2.143 4.16311 2.26234 3.74406 2.48645C3.32502 2.71056 2.99615 3.03943 2.77204 3.45848C2.56193 3.85134 2.44391 4.24121 2.42997 5.23288L2.42858 5.43942L2.42772 5.57157H19.5706L19.5714 5.43942C19.5714 4.29318 19.4521 3.87753 19.228 3.45848C19.0039 3.03943 18.675 2.71056 18.256 2.48645C17.8631 2.27635 17.4732 2.15832 16.4815 2.14439L16.275 2.143Z"
        fill="#3F8AE0" />
</svg>
