<svg width="37" height="35" viewBox="0 0 37 35" fill="none" xmlns="http://www.w3.org/2000/svg">
    <path
        d="M17.6033 0.816986C17.9701 0.0737399 19.0299 0.07374 19.3967 0.816986L24.1452 10.4384C24.2908 10.7335 24.5724 10.9381 24.8981 10.9854L35.516 12.5283C36.3362 12.6475 36.6637 13.6555 36.0702 14.234L28.387 21.7232C28.1513 21.9529 28.0438 22.2839 28.0994 22.6083L29.9132 33.1833C30.0533 34.0002 29.1959 34.6231 28.4622 34.2375L18.9653 29.2446C18.674 29.0915 18.326 29.0915 18.0347 29.2446L8.53777 34.2375C7.80414 34.6231 6.94671 34.0002 7.08682 33.1833L8.90056 22.6083C8.9562 22.2839 8.84865 21.9529 8.61297 21.7232L0.92982 14.234C0.336303 13.6555 0.663813 12.6475 1.48403 12.5283L12.1019 10.9854C12.4276 10.9381 12.7092 10.7335 12.8548 10.4384L17.6033 0.816986Z"
        fill="#F2C94C" />
</svg>
