<svg width="20" height="23" viewBox="0 0 20 23" fill="none" xmlns="http://www.w3.org/2000/svg">
    <path
        d="M18.364 11.0561C18.8848 11.2401 19.1578 11.8114 18.9738 12.3321C17.7616 15.7633 14.6396 18.1739 11.0052 18.4694L11.005 21C11.005 21.555 10.555 22.005 10 22.005C9.44495 22.005 8.995 21.555 8.995 21L8.99489 18.4694C5.36104 18.174 2.23941 15.7641 1.02675 12.3337C0.842676 11.813 1.11557 11.2416 1.63628 11.0576C2.15699 10.8735 2.72832 11.1464 2.9124 11.6671C3.92794 14.5399 6.65276 16.5 9.75 16.5H10.25C13.3477 16.5 16.0729 14.5393 17.088 11.6659C17.272 11.1451 17.8433 10.8721 18.364 11.0561ZM10 0C12.7614 0 15 2.23858 15 5V9C15 11.7614 12.7614 14 10 14C7.23857 14 5 11.7614 5 9V5C5 2.23858 7.23857 0 10 0ZM10 2.01C8.34867 2.01 7.01 3.34867 7.01 5V9C7.01 10.6513 8.34867 11.99 10 11.99C11.6513 11.99 12.99 10.6513 12.99 9V5C12.99 3.34867 11.6513 2.01 10 2.01Z"
        fill="#99A2AD" />
</svg>
