<svg width="153" height="154" viewBox="0 0 153 154" fill="none" xmlns="http://www.w3.org/2000/svg">
    <path opacity="0.08" fill-rule="evenodd" clip-rule="evenodd"
        d="M32.6233 43.4603C36.7263 35.1388 46.9247 32.4697 54.9273 27.7829C63.9178 22.5175 72.8419 10.2365 82.4171 14.2979C92.9886 18.7819 88.6665 36.3865 96.0165 45.2112C101.557 51.863 112.688 50.8599 118.334 57.4217C125.72 66.005 134.109 76.3486 132.466 87.5713C130.829 98.7492 119.582 105.87 110.299 112.308C101.718 118.259 91.7221 120.761 81.512 122.909C70.6149 125.202 57.536 132.209 48.874 125.23C39.6211 117.776 44.9816 102.455 41.8741 90.9746C39.9022 83.6896 35.4335 77.654 33.991 70.2448C32.2477 61.2911 28.5851 51.6502 32.6233 43.4603Z"
        fill="#3F8AE0" />
</svg>
