<svg width="114" height="112" viewBox="0 0 114 112" fill="none" xmlns="http://www.w3.org/2000/svg">
    <path opacity="0.2" fill-rule="evenodd" clip-rule="evenodd"
        d="M60.9165 1.10875C70.1323 0.0361104 77.9109 7.15117 86.1918 11.3267C95.4949 16.0177 110.653 16.8438 112.442 27.0898C114.416 38.402 97.2857 44.331 93.8658 55.2947C91.2879 63.5588 98.1741 72.3617 95.7294 80.666C92.5315 91.5284 88.4002 104.189 78.0836 108.903C67.8084 113.598 55.7222 108.019 45.2749 103.719C35.6189 99.7445 28.09 92.7087 20.7426 85.3009C12.9008 77.3946 -0.0849202 70.2161 1.07241 59.153C2.30867 47.3352 18.0847 43.5184 26.0385 34.6754C31.0856 29.0641 33.7277 22.0344 39.1665 16.8001C45.7389 10.4747 51.8464 2.16442 60.9165 1.10875Z"
        stroke="#3F8AE0" />
</svg>
