<svg width="36" height="42" viewBox="0 0 36 42" fill="none" xmlns="http://www.w3.org/2000/svg">
<path d="M33.4288 17.5716C34.3756 17.5716 35.1431 18.3391 35.1431 19.2859C35.1431 28.1744 28.3784 35.4829 19.7164 36.3439L19.7146 39.8573C19.7146 40.8041 18.9471 41.5716 18.0003 41.5716C17.0535 41.5716 16.286 40.8041 16.286 39.8573L16.2858 36.344C7.62306 35.4839 0.857422 28.175 0.857422 19.2859C0.857422 18.3391 1.62493 17.5716 2.57171 17.5716C3.51848 17.5716 4.28599 18.3391 4.28599 19.2859C4.28599 26.86 10.4261 33.0001 18.0003 33.0001C25.5745 33.0001 31.7146 26.86 31.7146 19.2859C31.7146 18.3391 32.4821 17.5716 33.4288 17.5716ZM18.0003 0.428711C23.6809 0.428711 28.286 5.03378 28.286 10.7144V19.2859C28.286 24.9665 23.6809 29.5716 18.0003 29.5716C12.3196 29.5716 7.71456 24.9665 7.71456 19.2859V10.7144C7.71456 5.03378 12.3196 0.428711 18.0003 0.428711ZM18.0003 3.85728C14.2132 3.85728 11.1431 6.92733 11.1431 10.7144V19.2859C11.1431 23.0729 14.2132 26.143 18.0003 26.143C21.7874 26.143 24.8574 23.0729 24.8574 19.2859V10.7144C24.8574 6.92733 21.7874 3.85728 18.0003 3.85728Z" fill="#3F8AE0"/>
</svg>
