<svg width="28" height="28" viewBox="0 0 28 28" fill="none" xmlns="http://www.w3.org/2000/svg">
<path opacity="0.25" fill-rule="evenodd" clip-rule="evenodd" d="M8.16683 7.00016V5.8335C8.16683 3.9005 9.73383 2.3335 11.6668 2.3335H16.3335C18.2665 2.3335 19.8335 3.9005 19.8335 5.8335V7.00016H22.1668C24.0998 7.00016 25.6668 8.56717 25.6668 10.5002V22.1668C25.6668 24.0998 24.0998 25.6668 22.1668 25.6668H5.8335C3.9005 25.6668 2.3335 24.0998 2.3335 22.1668V10.5002C2.3335 8.56717 3.9005 7.00016 5.8335 7.00016H8.16683ZM10.5002 5.8335C10.5002 5.18916 11.0225 4.66683 11.6668 4.66683H16.3335C16.9778 4.66683 17.5002 5.18916 17.5002 5.8335V7.00016H10.5002V5.8335Z" fill="#3F8AE0"/>
<path fill-rule="evenodd" clip-rule="evenodd" d="M12.8335 12.8332C12.8335 12.1888 13.3558 11.6665 14.0002 11.6665C14.6445 11.6665 15.1668 12.1888 15.1668 12.8332V15.1665H17.5002C18.1445 15.1665 18.6668 15.6888 18.6668 16.3332C18.6668 16.9775 18.1445 17.4998 17.5002 17.4998H15.1668V19.8332C15.1668 20.4775 14.6445 20.9998 14.0002 20.9998C13.3558 20.9998 12.8335 20.4775 12.8335 19.8332V17.4998H10.5002C9.85583 17.4998 9.3335 16.9775 9.3335 16.3332C9.3335 15.6888 9.85583 15.1665 10.5002 15.1665H12.8335V12.8332Z" fill="#3F8AE0"/>
</svg>
