<svg width="28" height="28" viewBox="0 0 28 28" fill="none" xmlns="http://www.w3.org/2000/svg">
<path opacity="0.25" d="M13.9998 5.61117C12.6373 4.30361 10.7874 3.5 8.74984 3.5C4.56168 3.5 1.1665 6.89517 1.1665 11.0833C1.1665 18.513 9.29857 22.6158 12.6159 23.9805C13.5093 24.348 14.4903 24.348 15.3837 23.9805C18.7011 22.6158 26.8332 18.513 26.8332 11.0833C26.8332 6.89517 23.438 3.5 19.2498 3.5C17.2123 3.5 15.3624 4.30361 13.9998 5.61117Z" fill="#3F8AE0"/>
<path fill-rule="evenodd" clip-rule="evenodd" d="M14.0002 10.3372L12.7436 9.21977C12.0082 8.56581 11.0147 8.1665 9.91683 8.1665C7.66167 8.1665 5.8335 9.86061 5.8335 11.9504C5.8335 14.4676 7.70017 16.4453 10.0318 17.9185C11.1614 18.6322 12.3038 19.1628 13.1706 19.5157C13.4948 19.6477 13.7766 19.7533 14.0002 19.8332C14.2237 19.7533 14.5056 19.6477 14.8297 19.5157C15.6965 19.1628 16.8389 18.6322 17.9686 17.9185C20.3002 16.4453 22.1668 14.4676 22.1668 11.9504C22.1668 9.86061 20.3387 8.1665 18.0835 8.1665C16.9856 8.1665 15.9921 8.56581 15.2567 9.21977L14.0002 10.3372Z" fill="#3F8AE0"/>
</svg>
