<svg width="28" height="28" viewBox="0 0 28 28" fill="none" xmlns="http://www.w3.org/2000/svg">
<path opacity="0.25" d="M23.3332 21.9333V7.74664L15.9265 3.28417L15.9265 3.28417C15.2261 2.86222 14.876 2.65124 14.502 2.56883C14.1712 2.49594 13.8285 2.49594 13.4977 2.56883C13.1237 2.65125 12.7735 2.86222 12.0732 3.28418L4.6665 7.74667V21.9333C4.6665 23.2401 4.6665 23.8935 4.92082 24.3927C5.14453 24.8317 5.50148 25.1887 5.94053 25.4124C6.43965 25.6667 7.09305 25.6667 8.39984 25.6667H19.5998C20.9066 25.6667 21.56 25.6667 22.0591 25.4124C22.4982 25.1887 22.8551 24.8317 23.0788 24.3927C23.3332 23.8935 23.3332 23.2401 23.3332 21.9333Z" fill="#99A2AD"/>
<path fill-rule="evenodd" clip-rule="evenodd" d="M1.33294 11.1004C1.66444 11.6529 2.38108 11.8321 2.93359 11.5006L14 4.8607L25.0664 11.5006C25.6189 11.8321 26.3356 11.6529 26.6671 11.1004C26.9986 10.5479 26.8194 9.83125 26.2669 9.49974L15.2005 2.85989C14.4616 2.41653 13.5384 2.41653 12.7995 2.85989L1.7331 9.49974C1.18059 9.83125 1.00143 10.5479 1.33294 11.1004Z" fill="#99A2AD"/>
<path d="M10.5 18.6665C10.5 16.7335 12.067 15.1665 14 15.1665V15.1665C15.933 15.1665 17.5 16.7335 17.5 18.6665V25.6665H10.5V18.6665Z" fill="#99A2AD"/>
</svg>
