<svg width="28" height="28" viewBox="0 0 28 28" fill="none" xmlns="http://www.w3.org/2000/svg">
<path opacity="0.25" d="M15.3673 18.051C15.559 16.6511 16.6511 15.559 18.051 15.3673C18.8539 15.2573 19.726 15.1665 20.4165 15.1665C21.107 15.1665 21.9791 15.2573 22.782 15.3673C24.1819 15.559 25.274 16.6511 25.4657 18.051C25.5757 18.8539 25.6665 19.726 25.6665 20.4165C25.6665 21.107 25.5757 21.9791 25.4657 22.782C25.274 24.1819 24.1819 25.274 22.782 25.4657C21.9791 25.5757 21.107 25.6665 20.4165 25.6665C19.726 25.6665 18.8539 25.5757 18.051 25.4657C16.6511 25.274 15.559 24.1819 15.3673 22.782C15.2573 21.9791 15.1665 21.107 15.1665 20.4165C15.1665 19.726 15.2573 18.8539 15.3673 18.051Z" fill="#99A2AD"/>
<path opacity="0.25" d="M2.53427 18.051C2.72599 16.6511 3.81812 15.559 5.218 15.3673C6.02092 15.2573 6.89302 15.1665 7.5835 15.1665C8.27397 15.1665 9.14608 15.2573 9.94899 15.3673C11.3489 15.559 12.441 16.6511 12.6327 18.051C12.7427 18.8539 12.8335 19.726 12.8335 20.4165C12.8335 21.107 12.7427 21.9791 12.6327 22.782C12.441 24.1819 11.3489 25.274 9.94899 25.4657C9.14608 25.5757 8.27397 25.6665 7.5835 25.6665C6.89302 25.6665 6.02092 25.5757 5.218 25.4657C3.81812 25.274 2.72599 24.1819 2.53427 22.782C2.42431 21.9791 2.3335 21.107 2.3335 20.4165C2.3335 19.726 2.42431 18.8539 2.53427 18.051Z" fill="#99A2AD"/>
<path opacity="0.25" d="M15.3673 5.218C15.559 3.81812 16.6511 2.72599 18.051 2.53427C18.8539 2.42431 19.726 2.3335 20.4165 2.3335C21.107 2.3335 21.9791 2.42431 22.782 2.53427C24.1819 2.72599 25.274 3.81812 25.4657 5.218C25.5757 6.02092 25.6665 6.89302 25.6665 7.5835C25.6665 8.27397 25.5757 9.14608 25.4657 9.94899C25.274 11.3489 24.1819 12.441 22.782 12.6327C21.9791 12.7427 21.107 12.8335 20.4165 12.8335C19.726 12.8335 18.8539 12.7427 18.051 12.6327C16.6511 12.441 15.559 11.3489 15.3673 9.94899C15.2573 9.14608 15.1665 8.27397 15.1665 7.5835C15.1665 6.89302 15.2573 6.02092 15.3673 5.218Z" fill="#99A2AD"/>
<path d="M2.53427 5.218C2.72599 3.81812 3.81812 2.72599 5.218 2.53427C6.02092 2.42431 6.89302 2.3335 7.5835 2.3335C8.27397 2.3335 9.14608 2.42431 9.94899 2.53427C11.3489 2.72599 12.441 3.81812 12.6327 5.218C12.7427 6.02092 12.8335 6.89302 12.8335 7.5835C12.8335 8.27397 12.7427 9.14608 12.6327 9.94899C12.441 11.3489 11.3489 12.441 9.94899 12.6327C9.14608 12.7427 8.27397 12.8335 7.5835 12.8335C6.89302 12.8335 6.02092 12.7427 5.218 12.6327C3.81812 12.441 2.72599 11.3489 2.53427 9.94899C2.42431 9.14608 2.3335 8.27397 2.3335 7.5835C2.3335 6.89302 2.42431 6.02092 2.53427 5.218Z" fill="#99A2AD"/>
</svg>
